STARTFONT 2.1
FONT Font
SIZE 16 75 75
FONTBOUNDINGBOX 16 16 0 -2
STARTPROPERTIES 5
PIXEL_SIZE 16
POINT_SIZE 160
SPACING "C"
FONT_ASCENT 14
FONT_DESCENT 2
ENDPROPERTIES
CHARS 704
STARTCHAR U+1100
ENCODING 4352
SWIDTH 960 0
DWIDTH 16 0
BBX 16 16 0 -2
BITMAP
0000
0000
0000
0000
0FF8
0008
0008
0008
0008
0008
0008
0008
0008
0000
0000
0000
ENDCHAR
STARTCHAR U+1101
ENCODING 4353
SWIDTH 960 0
DWIDTH 16 0
BBX 16 16 0 -2
BITMAP
0000
0000
0000
0000
1F7C
0104
0104
0104
0104
0104
0104
0104
0104
0000
0000
0000
ENDCHAR
STARTCHAR U+1102
ENCODING 4354
SWIDTH 960 0
DWIDTH 16 0
BBX 16 16 0 -2
BITMAP
0000
0000
0000
0000
0800
0800
0800
0800
0800
0800
0800
0800
07F8
0000
0000
0000
ENDCHAR
STARTCHAR U+1103
ENCODING 4355
SWIDTH 960 0
DWIDTH 16 0
BBX 16 16 0 -2
BITMAP
0000
0000
0000
0000
0FF8
0800
0800
0800
0800
0800
0800
0800
07F8
0000
0000
0000
ENDCHAR
STARTCHAR U+1104
ENCODING 4356
SWIDTH 960 0
DWIDTH 16 0
BBX 16 16 0 -2
BITMAP
0000
0000
0000
0000
1F7C
1040
1040
1040
1040
1040
1040
1040
0F3C
0000
0000
0000
ENDCHAR
STARTCHAR U+1105
ENCODING 4357
SWIDTH 960 0
DWIDTH 16 0
BBX 16 16 0 -2
BITMAP
0000
0000
0000
0000
0FF8
0008
0008
0008
0FF0
0800
0800
0800
07F8
0000
0000
0000
ENDCHAR
STARTCHAR U+1106
ENCODING 4358
SWIDTH 960 0
DWIDTH 16 0
BBX 16 16 0 -2
BITMAP
0000
0000
0000
0000
0FF8
0808
0808
0808
0808
0808
0808
0808
07F8
0000
0000
0000
ENDCHAR
STARTCHAR U+1107
ENCODING 4359
SWIDTH 960 0
DWIDTH 16 0
BBX 16 16 0 -2
BITMAP
0000
0000
0000
0000
0808
0808
0808
0808
0FF8
0808
0808
0808
07F8
0000
0000
0000
ENDCHAR
STARTCHAR U+1108
ENCODING 4360
SWIDTH 960 0
DWIDTH 16 0
BBX 16 16 0 -2
BITMAP
0000
0000
0000
0000
1144
1144
1144
1144
1F7C
1144
1144
1144
0F3C
0000
0000
0000
ENDCHAR
STARTCHAR U+1109
ENCODING 4361
SWIDTH 960 0
DWIDTH 16 0
BBX 16 16 0 -2
BITMAP
0000
0000
0000
0000
0080
0080
0080
0140
0140
0220
0220
0410
0808
0000
0000
0000
ENDCHAR
STARTCHAR U+110A
ENCODING 4362
SWIDTH 960 0
DWIDTH 16 0
BBX 16 16 0 -2
BITMAP
0000
0000
0000
0000
0410
0410
0410
0410
0A28
0A28
1144
1144
2082
0000
0000
0000
ENDCHAR
STARTCHAR U+110B
ENCODING 4363
SWIDTH 960 0
DWIDTH 16 0
BBX 16 16 0 -2
BITMAP
0000
0000
0000
0000
03E0
0410
0808
0808
0808
0808
0808
0410
03E0
0000
0000
0000
ENDCHAR
STARTCHAR U+110C
ENCODING 4364
SWIDTH 960 0
DWIDTH 16 0
BBX 16 16 0 -2
BITMAP
0000
0000
0000
0000
0FF8
0080
0080
0140
0140
0220
0220
0410
0808
0000
0000
0000
ENDCHAR
STARTCHAR U+110D
ENCODING 4365
SWIDTH 960 0
DWIDTH 16 0
BBX 16 16 0 -2
BITMAP
0000
0000
0000
0000
3FFE
0410
0410
0410
0A28
0A28
1144
1144
2082
0000
0000
0000
ENDCHAR
STARTCHAR U+110E
ENCODING 4366
SWIDTH 960 0
DWIDTH 16 0
BBX 16 16 0 -2
BITMAP
0000
0000
0000
0000
03E0
0000
0FF8
0080
0080
0140
0220
0410
0808
0000
0000
0000
ENDCHAR
STARTCHAR U+110F
ENCODING 4367
SWIDTH 960 0
DWIDTH 16 0
BBX 16 16 0 -2
BITMAP
0000
0000
0000
0000
0FF8
0008
0008
0008
0FF8
0008
0008
0008
0008
0000
0000
0000
ENDCHAR
STARTCHAR U+1110
ENCODING 4368
SWIDTH 960 0
DWIDTH 16 0
BBX 16 16 0 -2
BITMAP
0000
0000
0000
0000
0FF8
0800
0800
0800
0FF8
0800
0800
0800
07F8
0000
0000
0000
ENDCHAR
STARTCHAR U+1111
ENCODING 4369
SWIDTH 960 0
DWIDTH 16 0
BBX 16 16 0 -2
BITMAP
0000
0000
0000
0000
0FF8
0220
0220
0220
0220
0220
0220
0220
0FF8
0000
0000
0000
ENDCHAR
STARTCHAR U+1112
ENCODING 4370
SWIDTH 960 0
DWIDTH 16 0
BBX 16 16 0 -2
BITMAP
0000
0000
0000
0000
03E0
0000
0FF8
0000
03E0
0410
0410
0410
03E0
0000
0000
0000
ENDCHAR
STARTCHAR U+1113
ENCODING 4371
SWIDTH 960 0
DWIDTH 16 0
BBX 16 16 0 -2
BITMAP
0000
0000
0000
0000
107C
1004
1004
1004
1004
1004
1004
1004
0F04
0000
0000
0000
ENDCHAR
STARTCHAR U+1114
ENCODING 4372
SWIDTH 960 0
DWIDTH 16 0
BBX 16 16 0 -2
BITMAP
0000
0000
0000
0000
1040
1040
1040
1040
1040
1040
1040
1040
0F3C
0000
0000
0000
ENDCHAR
STARTCHAR U+1115
ENCODING 4373
SWIDTH 960 0
DWIDTH 16 0
BBX 16 16 0 -2
BITMAP
0000
0000
0000
0000
107C
1040
1040
1040
1040
1040
1040
1040
0F3C
0000
0000
0000
ENDCHAR
STARTCHAR U+1116
ENCODING 4374
SWIDTH 960 0
DWIDTH 16 0
BBX 16 16 0 -2
BITMAP
0000
0000
0000
0000
1044
1044
1044
1044
107C
1044
1044
1044
0F3C
0000
0000
0000
ENDCHAR
STARTCHAR U+1117
ENCODING 4375
SWIDTH 960 0
DWIDTH 16 0
BBX 16 16 0 -2
BITMAP
0000
0000
0000
0000
1F7C
1004
1004
1004
1004
1004
1004
1004
0F04
0000
0000
0000
ENDCHAR
STARTCHAR U+1118
ENCODING 4376
SWIDTH 960 0
DWIDTH 16 0
BBX 16 16 0 -2
BITMAP
0000
0000
0000
0000
1F40
0140
0140
0140
1E40
1040
1040
1040
0F3C
0000
0000
0000
ENDCHAR
STARTCHAR U+1119
ENCODING 4377
SWIDTH 960 0
DWIDTH 16 0
BBX 16 16 0 -2
BITMAP
0000
0000
0000
0000
1F7C
0104
0104
0104
1E78
1040
1040
1040
0F3C
0000
0000
0000
ENDCHAR
STARTCHAR U+111A
ENCODING 4378
SWIDTH 960 0
DWIDTH 16 0
BBX 16 16 0 -2
BITMAP
0000
0000
0000
0000
1F38
0100
01FE
0100
1E38
1044
1044
1044
0F38
0000
0000
0000
ENDCHAR
STARTCHAR U+111B
ENCODING 4379
SWIDTH 960 0
DWIDTH 16 0
BBX 16 16 0 -2
BITMAP
0000
0000
0000
0FF8
0008
0FF0
0800
07F8
0000
07F0
0808
0808
0808
07F0
0000
0000
ENDCHAR
STARTCHAR U+111C
ENCODING 4380
SWIDTH 960 0
DWIDTH 16 0
BBX 16 16 0 -2
BITMAP
0000
0000
0000
0000
1F44
1144
1144
1144
117C
1144
1144
1144
0F3C
0000
0000
0000
ENDCHAR
STARTCHAR U+111D
ENCODING 4381
SWIDTH 960 0
DWIDTH 16 0
BBX 16 16 0 -2
BITMAP
0000
0000
0000
0FF8
0808
0808
0808
07F8
0000
07F0
0808
0808
0808
07F0
0000
0000
ENDCHAR
STARTCHAR U+111E
ENCODING 4382
SWIDTH 960 0
DWIDTH 16 0
BBX 16 16 0 -2
BITMAP
0000
0000
0000
0000
117C
1104
1104
1104
1F04
1104
1104
1104
0F04
0000
0000
0000
ENDCHAR
STARTCHAR U+111F
ENCODING 4383
SWIDTH 960 0
DWIDTH 16 0
BBX 16 16 0 -2
BITMAP
0000
0000
0000
0000
1140
1140
1140
1140
1F40
1140
1140
1140
0F3C
0000
0000
0000
ENDCHAR
STARTCHAR U+1120
ENCODING 4384
SWIDTH 960 0
DWIDTH 16 0
BBX 16 16 0 -2
BITMAP
0000
0000
0000
0000
117C
1140
1140
1140
1F40
1140
1140
1140
0F3C
0000
0000
0000
ENDCHAR
STARTCHAR U+1121
ENCODING 4385
SWIDTH 960 0
DWIDTH 16 0
BBX 16 16 0 -2
BITMAP
0000
0000
0000
0000
1110
1110
1110
1110
1F28
1128
1144
1144
0F82
0000
0000
0000
ENDCHAR
STARTCHAR U+1122
ENCODING 4386
SWIDTH 960 0
DWIDTH 16 0
BBX 16 16 0 -2
BITMAP
0000
0000
0000
0000
225E
2242
2242
2242
3EA2
22A2
22A2
2312
1F12
0000
0000
0000
ENDCHAR
STARTCHAR U+1123
ENCODING 4387
SWIDTH 960 0
DWIDTH 16 0
BBX 16 16 0 -2
BITMAP
0000
0000
0000
0000
249E
2490
2490
2490
3D50
2550
2550
2630
1E2E
0000
0000
0000
ENDCHAR
STARTCHAR U+1124
ENCODING 4388
SWIDTH 960 0
DWIDTH 16 0
BBX 16 16 0 -2
BITMAP
0000
0000
0000
0000
2492
2492
2492
2492
3D5E
2552
2552
2632
1E2E
0000
0000
0000
ENDCHAR
STARTCHAR U+1125
ENCODING 4389
SWIDTH 960 0
DWIDTH 16 0
BBX 16 16 0 -2
BITMAP
0000
0000
0000
0000
2488
2488
2488
2488
3D54
2554
2554
2622
1E22
0000
0000
0000
ENDCHAR
STARTCHAR U+1126
ENCODING 4390
SWIDTH 960 0
DWIDTH 16 0
BBX 16 16 0 -2
BITMAP
0000
0000
0000
0000
24BE
2488
2488
2488
3D54
2554
2554
2622
1E22
0000
0000
0000
ENDCHAR
STARTCHAR U+1127
ENCODING 4391
SWIDTH 960 0
DWIDTH 16 0
BBX 16 16 0 -2
BITMAP
0000
0000
0000
0000
117C
1110
1110
1110
1F28
1128
1144
1144
0F82
0000
0000
0000
ENDCHAR
STARTCHAR U+1128
ENCODING 4392
SWIDTH 960 0
DWIDTH 16 0
BBX 16 16 0 -2
BITMAP
0000
0000
0000
0000
1138
1100
117C
1110
1F10
1128
1128
1144
0F82
0000
0000
0000
ENDCHAR
STARTCHAR U+1129
ENCODING 4393
SWIDTH 960 0
DWIDTH 16 0
BBX 16 16 0 -2
BITMAP
0000
0000
0000
0000
117C
1140
1140
1140
1F78
1140
1140
1140
0F3C
0000
0000
0000
ENDCHAR
STARTCHAR U+112A
ENCODING 4394
SWIDTH 960 0
DWIDTH 16 0
BBX 16 16 0 -2
BITMAP
0000
0000
0000
0000
117E
1100
1124
1124
1F24
1124
1124
1124
0F7E
0000
0000
0000
ENDCHAR
STARTCHAR U+112B
ENCODING 4395
SWIDTH 960 0
DWIDTH 16 0
BBX 16 16 0 -2
BITMAP
0000
0000
0000
0808
0808
0FF8
0808
07F8
0000
07F0
0808
0808
0808
07F0
0000
0000
ENDCHAR
STARTCHAR U+112C
ENCODING 4396
SWIDTH 960 0
DWIDTH 16 0
BBX 16 16 0 -2
BITMAP
0000
0000
0000
1144
1144
1F7C
1144
0F3C
0000
07F0
0808
0808
0808
07F0
0000
0000
ENDCHAR
STARTCHAR U+112D
ENCODING 4397
SWIDTH 960 0
DWIDTH 16 0
BBX 16 16 0 -2
BITMAP
0000
0000
0000
0000
047C
0404
0404
0404
0A04
0A04
1104
1104
2084
0000
0000
0000
ENDCHAR
STARTCHAR U+112E
ENCODING 4398
SWIDTH 960 0
DWIDTH 16 0
BBX 16 16 0 -2
BITMAP
0000
0000
0000
0000
0440
0440
0440
0440
0A40
0A40
1140
1140
20BC
0000
0000
0000
ENDCHAR
STARTCHAR U+112F
ENCODING 4399
SWIDTH 960 0
DWIDTH 16 0
BBX 16 16 0 -2
BITMAP
0000
0000
0000
0000
047C
0440
0440
0440
0A40
0A40
1140
1140
20BC
0000
0000
0000
ENDCHAR
STARTCHAR U+1130
ENCODING 4400
SWIDTH 960 0
DWIDTH 16 0
BBX 16 16 0 -2
BITMAP
0000
0000
0000
0000
047C
0404
0404
0404
0A78
0A40
1140
1140
20BC
0000
0000
0000
ENDCHAR
STARTCHAR U+1131
ENCODING 4401
SWIDTH 960 0
DWIDTH 16 0
BBX 16 16 0 -2
BITMAP
0000
0000
0000
0000
047C
0444
0444
0444
0A44
0A44
1144
1144
20BC
0000
0000
0000
ENDCHAR
STARTCHAR U+1132
ENCODING 4402
SWIDTH 960 0
DWIDTH 16 0
BBX 16 16 0 -2
BITMAP
0000
0000
0000
0000
0444
0444
0444
0444
0A7C
0A44
1144
1144
20BC
0000
0000
0000
ENDCHAR
STARTCHAR U+1133
ENCODING 4403
SWIDTH 960 0
DWIDTH 16 0
BBX 16 16 0 -2
BITMAP
0000
0000
0000
0000
0410
0410
0410
0410
0A28
0A28
1144
1144
2082
0000
0000
0000
ENDCHAR
STARTCHAR U+1134
ENCODING 4404
SWIDTH 960 0
DWIDTH 16 0
BBX 16 16 0 -2
BITMAP
0000
0000
0000
0000
0888
0888
0888
0888
1554
1554
1554
2222
2222
0000
0000
0000
ENDCHAR
STARTCHAR U+1135
ENCODING 4405
SWIDTH 960 0
DWIDTH 16 0
BBX 16 16 0 -2
BITMAP
0000
0000
0000
0000
0438
0444
0444
0444
0A44
0A44
1144
1144
20B8
0000
0000
0000
ENDCHAR
STARTCHAR U+1136
ENCODING 4406
SWIDTH 960 0
DWIDTH 16 0
BBX 16 16 0 -2
BITMAP
0000
0000
0000
0000
047C
0410
0410
0410
0A28
0A28
1144
1144
2082
0000
0000
0000
ENDCHAR
STARTCHAR U+1137
ENCODING 4407
SWIDTH 960 0
DWIDTH 16 0
BBX 16 16 0 -2
BITMAP
0000
0000
0000
0000
0438
0400
047C
0410
0A10
0A28
1128
1144
2082
0000
0000
0000
ENDCHAR
STARTCHAR U+1138
ENCODING 4408
SWIDTH 960 0
DWIDTH 16 0
BBX 16 16 0 -2
BITMAP
0000
0000
0000
0000
047C
0404
0404
0404
0A7C
0A04
1104
1104
2084
0000
0000
0000
ENDCHAR
STARTCHAR U+1139
ENCODING 4409
SWIDTH 960 0
DWIDTH 16 0
BBX 16 16 0 -2
BITMAP
0000
0000
0000
0000
047C
0440
0440
0440
0A78
0A40
1140
1140
20BC
0000
0000
0000
ENDCHAR
STARTCHAR U+113A
ENCODING 4410
SWIDTH 960 0
DWIDTH 16 0
BBX 16 16 0 -2
BITMAP
0000
0000
0000
0000
047E
0400
0424
0424
0A24
0A24
1124
1124
20FE
0000
0000
0000
ENDCHAR
STARTCHAR U+113B
ENCODING 4411
SWIDTH 960 0
DWIDTH 16 0
BBX 16 16 0 -2
BITMAP
0000
0000
0000
0000
0438
0400
04FE
0400
0A38
0A44
1144
1144
20B8
0000
0000
0000
ENDCHAR
STARTCHAR U+113C
ENCODING 4412
SWIDTH 960 0
DWIDTH 16 0
BBX 16 16 0 -2
BITMAP
0000
0000
0000
0000
0040
0040
0040
00A0
00A0
0110
0208
0400
0800
0000
0000
0000
ENDCHAR
STARTCHAR U+113D
ENCODING 4413
SWIDTH 960 0
DWIDTH 16 0
BBX 16 16 0 -2
BITMAP
0000
0000
0000
0000
0110
0110
0110
02A8
02A8
0444
0440
0880
1100
0000
0000
0000
ENDCHAR
STARTCHAR U+113E
ENCODING 4414
SWIDTH 960 0
DWIDTH 16 0
BBX 16 16 0 -2
BITMAP
0000
0000
0000
0000
0100
0100
0100
0280
0280
0440
0820
0010
0008
0000
0000
0000
ENDCHAR
STARTCHAR U+113F
ENCODING 4415
SWIDTH 960 0
DWIDTH 16 0
BBX 16 16 0 -2
BITMAP
0000
0000
0000
0000
0440
0440
0440
0AA0
0AA0
1110
0110
0088
0044
0000
0000
0000
ENDCHAR
STARTCHAR U+1140
ENCODING 4416
SWIDTH 960 0
DWIDTH 16 0
BBX 16 16 0 -2
BITMAP
0000
0000
0000
0000
0080
0080
0140
0140
0220
0410
0410
0808
0FF8
0000
0000
0000
ENDCHAR
STARTCHAR U+1141
ENCODING 4417
SWIDTH 960 0
DWIDTH 16 0
BBX 16 16 0 -2
BITMAP
0000
0000
0000
0000
0E7C
1104
1104
1104
1104
1104
1104
1104
0E04
0000
0000
0000
ENDCHAR
STARTCHAR U+1142
ENCODING 4418
SWIDTH 960 0
DWIDTH 16 0
BBX 16 16 0 -2
BITMAP
0000
0000
0000
0000
0E7C
1140
1140
1140
1140
1140
1140
1140
0E3C
0000
0000
0000
ENDCHAR
STARTCHAR U+1143
ENCODING 4419
SWIDTH 960 0
DWIDTH 16 0
BBX 16 16 0 -2
BITMAP
0000
0000
0000
0000
0E7C
1144
1144
1144
1144
1144
1144
1144
0E3C
0000
0000
0000
ENDCHAR
STARTCHAR U+1144
ENCODING 4420
SWIDTH 960 0
DWIDTH 16 0
BBX 16 16 0 -2
BITMAP
0000
0000
0000
0000
0E44
1144
1144
1144
117C
1144
1144
1144
0E3C
0000
0000
0000
ENDCHAR
STARTCHAR U+1145
ENCODING 4421
SWIDTH 960 0
DWIDTH 16 0
BBX 16 16 0 -2
BITMAP
0000
0000
0000
0000
0E10
1110
1110
1110
1128
1128
1144
1144
0E82
0000
0000
0000
ENDCHAR
STARTCHAR U+1146
ENCODING 4422
SWIDTH 960 0
DWIDTH 16 0
BBX 16 16 0 -2
BITMAP
0000
0000
0000
0000
0E10
1110
1128
1128
1128
1144
1144
1182
0EFE
0000
0000
0000
ENDCHAR
STARTCHAR U+1147
ENCODING 4423
SWIDTH 960 0
DWIDTH 16 0
BBX 16 16 0 -2
BITMAP
0000
0000
0000
0000
0E38
1144
1144
1144
1144
1144
1144
1144
0E38
0000
0000
0000
ENDCHAR
STARTCHAR U+1148
ENCODING 4424
SWIDTH 960 0
DWIDTH 16 0
BBX 16 16 0 -2
BITMAP
0000
0000
0000
0000
0E7C
1110
1110
1110
1128
1128
1144
1144
0E82
0000
0000
0000
ENDCHAR
STARTCHAR U+1149
ENCODING 4425
SWIDTH 960 0
DWIDTH 16 0
BBX 16 16 0 -2
BITMAP
0000
0000
0000
0000
0E38
1100
117C
1110
1110
1128
1128
1144
0E82
0000
0000
0000
ENDCHAR
STARTCHAR U+114A
ENCODING 4426
SWIDTH 960 0
DWIDTH 16 0
BBX 16 16 0 -2
BITMAP
0000
0000
0000
0000
0E7C
1140
1140
1140
1178
1140
1140
1140
0E3C
0000
0000
0000
ENDCHAR
STARTCHAR U+114B
ENCODING 4427
SWIDTH 960 0
DWIDTH 16 0
BBX 16 16 0 -2
BITMAP
0000
0000
0000
0000
0E7E
1100
1124
1124
1124
1124
1124
1124
0E7E
0000
0000
0000
ENDCHAR
STARTCHAR U+114C
ENCODING 4428
SWIDTH 960 0
DWIDTH 16 0
BBX 16 16 0 -2
BITMAP
0000
0000
0000
0000
0080
0080
03E0
0410
0808
0808
0808
0410
03E0
0000
0000
0000
ENDCHAR
STARTCHAR U+114D
ENCODING 4429
SWIDTH 960 0
DWIDTH 16 0
BBX 16 16 0 -2
BITMAP
0000
0000
0000
0000
3F90
0410
0438
0444
0A44
0A44
1144
1144
20B8
0000
0000
0000
ENDCHAR
STARTCHAR U+114E
ENCODING 4430
SWIDTH 960 0
DWIDTH 16 0
BBX 16 16 0 -2
BITMAP
0000
0000
0000
0000
03F8
0040
0040
00A0
00A0
0110
0208
0400
0800
0000
0000
0000
ENDCHAR
STARTCHAR U+114F
ENCODING 4431
SWIDTH 960 0
DWIDTH 16 0
BBX 16 16 0 -2
BITMAP
0000
0000
0000
0000
07FC
0110
0110
02A8
02A8
0444
0440
0880
1100
0000
0000
0000
ENDCHAR
STARTCHAR U+1150
ENCODING 4432
SWIDTH 960 0
DWIDTH 16 0
BBX 16 16 0 -2
BITMAP
0000
0000
0000
0000
0FE0
0100
0100
0280
0280
0440
0820
0010
0008
0000
0000
0000
ENDCHAR
STARTCHAR U+1151
ENCODING 4433
SWIDTH 960 0
DWIDTH 16 0
BBX 16 16 0 -2
BITMAP
0000
0000
0000
0000
1FF0
0440
0440
0AA0
0AA0
1110
0110
0088
0044
0000
0000
0000
ENDCHAR
STARTCHAR U+1152
ENCODING 4434
SWIDTH 960 0
DWIDTH 16 0
BBX 16 16 0 -2
BITMAP
0000
0000
0000
0000
0E7C
0004
3F84
0404
047C
0A04
0A04
1104
2084
0000
0000
0000
ENDCHAR
STARTCHAR U+1153
ENCODING 4435
SWIDTH 960 0
DWIDTH 16 0
BBX 16 16 0 -2
BITMAP
0000
0000
0000
0000
0E38
0000
3FFE
0400
0A38
0A44
1144
1144
20B8
0000
0000
0000
ENDCHAR
STARTCHAR U+1154
ENCODING 4436
SWIDTH 960 0
DWIDTH 16 0
BBX 16 16 0 -2
BITMAP
0000
0000
0000
0000
00E0
0000
03F8
0040
00A0
0110
0208
0400
0800
0000
0000
0000
ENDCHAR
STARTCHAR U+1155
ENCODING 4437
SWIDTH 960 0
DWIDTH 16 0
BBX 16 16 0 -2
BITMAP
0000
0000
0000
0000
0380
0000
0FE0
0100
0280
0440
0820
0010
0008
0000
0000
0000
ENDCHAR
STARTCHAR U+1156
ENCODING 4438
SWIDTH 960 0
DWIDTH 16 0
BBX 16 16 0 -2
BITMAP
0000
0000
0000
0000
3F44
0044
1244
1244
127C
1244
1244
1244
3F3C
0000
0000
0000
ENDCHAR
STARTCHAR U+1157
ENCODING 4439
SWIDTH 960 0
DWIDTH 16 0
BBX 16 16 0 -2
BITMAP
0000
0000
0000
1FFC
0410
0410
0410
1FFC
0000
07F0
0808
0808
0808
07F0
0000
0000
ENDCHAR
STARTCHAR U+1158
ENCODING 4440
SWIDTH 960 0
DWIDTH 16 0
BBX 16 16 0 -2
BITMAP
0000
0000
0000
0000
0E38
0000
3FFE
0000
0E38
1144
1144
1144
0E38
0000
0000
0000
ENDCHAR
STARTCHAR U+1159
ENCODING 4441
SWIDTH 960 0
DWIDTH 16 0
BBX 16 16 0 -2
BITMAP
0000
0000
0000
0000
0FF8
0000
01C0
0220
0410
0410
0410
0220
01C0
0000
0000
0000
ENDCHAR
STARTCHAR U+115A
ENCODING 4442
SWIDTH 960 0
DWIDTH 16 0
BBX 16 16 0 -2
BITMAP
0000
0000
0000
0000
1F7C
0140
0140
0140
0140
0140
0140
0140
013C
0000
0000
0000
ENDCHAR
STARTCHAR U+115B
ENCODING 4443
SWIDTH 960 0
DWIDTH 16 0
BBX 16 16 0 -2
BITMAP
0000
0000
0000
0000
1010
1010
1010
1010
1028
1028
1044
1044
0F82
0000
0000
0000
ENDCHAR
STARTCHAR U+115C
ENCODING 4444
SWIDTH 960 0
DWIDTH 16 0
BBX 16 16 0 -2
BITMAP
0000
0000
0000
0000
10FE
1010
1010
1010
1028
1028
1044
1044
0F82
0000
0000
0000
ENDCHAR
STARTCHAR U+115D
ENCODING 4445
SWIDTH 960 0
DWIDTH 16 0
BBX 16 16 0 -2
BITMAP
0000
0000
0000
0000
1038
1000
10FE
1000
1038
1044
1044
1044
0F38
0000
0000
0000
ENDCHAR
STARTCHAR U+115E
ENCODING 4446
SWIDTH 960 0
DWIDTH 16 0
BBX 16 16 0 -2
BITMAP
0000
0000
0000
0000
1F7C
1004
1004
1004
1078
1040
1040
1040
0F3C
0000
0000
0000
ENDCHAR
STARTCHAR U+1161
ENCODING 4449
SWIDTH 960 0
DWIDTH 16 0
BBX 16 16 0 -2
BITMAP
0000
0000
0080
0080
0080
0080
0080
0080
00F0
0080
0080
0080
0080
0080
0080
0080
ENDCHAR
STARTCHAR U+1162
ENCODING 4450
SWIDTH 960 0
DWIDTH 16 0
BBX 16 16 0 -2
BITMAP
0000
0000
0220
0220
0220
0220
0220
0220
03E0
0220
0220
0220
0220
0220
0220
0220
ENDCHAR
STARTCHAR U+1163
ENCODING 4451
SWIDTH 960 0
DWIDTH 16 0
BBX 16 16 0 -2
BITMAP
0000
0000
0080
0080
0080
0080
00F0
0080
0080
0080
00F0
0080
0080
0080
0080
0080
ENDCHAR
STARTCHAR U+1164
ENCODING 4452
SWIDTH 960 0
DWIDTH 16 0
BBX 16 16 0 -2
BITMAP
0000
0000
0220
0220
0220
0220
03E0
0220
0220
0220
03E0
0220
0220
0220
0220
0220
ENDCHAR
STARTCHAR U+1165
ENCODING 4453
SWIDTH 960 0
DWIDTH 16 0
BBX 16 16 0 -2
BITMAP
0000
0000
0080
0080
0080
0080
0080
0080
0780
0080
0080
0080
0080
0080
0080
0080
ENDCHAR
STARTCHAR U+1166
ENCODING 4454
SWIDTH 960 0
DWIDTH 16 0
BBX 16 16 0 -2
BITMAP
0000
0000
0120
0120
0120
0120
0120
0120
0F20
0120
0120
0120
0120
0120
0120
0120
ENDCHAR
STARTCHAR U+1167
ENCODING 4455
SWIDTH 960 0
DWIDTH 16 0
BBX 16 16 0 -2
BITMAP
0000
0000
0080
0080
0080
0080
0780
0080
0080
0080
0780
0080
0080
0080
0080
0080
ENDCHAR
STARTCHAR U+1168
ENCODING 4456
SWIDTH 960 0
DWIDTH 16 0
BBX 16 16 0 -2
BITMAP
0000
0000
0120
0120
0120
0120
0F20
0120
0120
0120
0F20
0120
0120
0120
0120
0120
ENDCHAR
STARTCHAR U+1169
ENCODING 4457
SWIDTH 960 0
DWIDTH 16 0
BBX 16 16 0 -2
BITMAP
0000
0000
0000
0000
0000
0000
0000
0000
0000
0000
0080
0080
0080
7FFF
0000
0000
ENDCHAR
STARTCHAR U+116A
ENCODING 4458
SWIDTH 960 0
DWIDTH 16 0
BBX 16 16 0 -2
BITMAP
0000
0000
0004
0004
0004
0004
0004
0004
0007
0004
0204
0204
0204
7FF4
0004
0004
ENDCHAR
STARTCHAR U+116B
ENCODING 4459
SWIDTH 960 0
DWIDTH 16 0
BBX 16 16 0 -2
BITMAP
0000
0000
0012
0012
0012
0012
0012
0012
001E
0012
0412
0412
0412
7FD2
0012
0012
ENDCHAR
STARTCHAR U+116C
ENCODING 4460
SWIDTH 960 0
DWIDTH 16 0
BBX 16 16 0 -2
BITMAP
0000
0000
0004
0004
0004
0004
0004
0004
0004
0004
0204
0204
0204
7FF4
0004
0004
ENDCHAR
STARTCHAR U+116D
ENCODING 4461
SWIDTH 960 0
DWIDTH 16 0
BBX 16 16 0 -2
BITMAP
0000
0000
0000
0000
0000
0000
0000
0000
0000
0000
0220
0220
0220
7FFF
0000
0000
ENDCHAR
STARTCHAR U+116E
ENCODING 4462
SWIDTH 960 0
DWIDTH 16 0
BBX 16 16 0 -2
BITMAP
0000
0000
0000
0000
0000
0000
0000
0000
7FFF
0080
0080
0080
0080
0080
0080
0080
ENDCHAR
STARTCHAR U+116F
ENCODING 4463
SWIDTH 960 0
DWIDTH 16 0
BBX 16 16 0 -2
BITMAP
0000
0000
0004
0004
0004
0004
0004
0004
7FF4
0204
0204
023C
0204
0204
0204
0204
ENDCHAR
STARTCHAR U+1170
ENCODING 4464
SWIDTH 960 0
DWIDTH 16 0
BBX 16 16 0 -2
BITMAP
0000
0000
0012
0012
0012
0012
0012
0012
7FD2
0412
0412
04F2
0412
0412
0412
0412
ENDCHAR
STARTCHAR U+1171
ENCODING 4465
SWIDTH 960 0
DWIDTH 16 0
BBX 16 16 0 -2
BITMAP
0000
0000
0004
0004
0004
0004
0004
0004
7FF4
0204
0204
0204
0204
0204
0204
0204
ENDCHAR
STARTCHAR U+1172
ENCODING 4466
SWIDTH 960 0
DWIDTH 16 0
BBX 16 16 0 -2
BITMAP
0000
0000
0000
0000
0000
0000
0000
0000
7FFF
0220
0220
0220
0220
0220
0220
0220
ENDCHAR
STARTCHAR U+1173
ENCODING 4467
SWIDTH 960 0
DWIDTH 16 0
BBX 16 16 0 -2
BITMAP
0000
0000
0000
0000
0000
0000
0000
0000
7FFF
0000
0000
0000
0000
0000
0000
0000
ENDCHAR
STARTCHAR U+1174
ENCODING 4468
SWIDTH 960 0
DWIDTH 16 0
BBX 16 16 0 -2
BITMAP
0000
0000
0004
0004
0004
0004
0004
0004
0004
0004
0004
0004
0004
7FF4
0004
0004
ENDCHAR
STARTCHAR U+1175
ENCODING 4469
SWIDTH 960 0
DWIDTH 16 0
BBX 16 16 0 -2
BITMAP
0000
0000
0080
0080
0080
0080
0080
0080
0080
0080
0080
0080
0080
0080
0080
0080
ENDCHAR
STARTCHAR U+1176
ENCODING 4470
SWIDTH 960 0
DWIDTH 16 0
BBX 16 16 0 -2
BITMAP
0000
0000
0008
0008
0008
0008
000F
0008
0008
0008
0088
0080
0080
7FFF
0000
0000
ENDCHAR
STARTCHAR U+1177
ENCODING 4471
SWIDTH 960 0
DWIDTH 16 0
BBX 16 16 0 -2
BITMAP
0000
0000
0008
0008
0008
0008
000F
0008
0008
0008
0008
0000
7FFF
0080
0080
0080
ENDCHAR
STARTCHAR U+1178
ENCODING 4472
SWIDTH 960 0
DWIDTH 16 0
BBX 16 16 0 -2
BITMAP
0000
0000
0008
0008
000F
0008
0008
000F
0008
0008
0088
0080
0080
7FFF
0000
0000
ENDCHAR
STARTCHAR U+1179
ENCODING 4473
SWIDTH 960 0
DWIDTH 16 0
BBX 16 16 0 -2
BITMAP
0000
0000
0008
0008
000F
0008
0008
000F
0008
0008
0228
0220
0220
7FFF
0000
0000
ENDCHAR
STARTCHAR U+117A
ENCODING 4474
SWIDTH 960 0
DWIDTH 16 0
BBX 16 16 0 -2
BITMAP
0000
0000
0008
0008
0008
0008
0078
0008
0008
0008
0088
0080
0080
7FFF
0000
0000
ENDCHAR
STARTCHAR U+117B
ENCODING 4475
SWIDTH 960 0
DWIDTH 16 0
BBX 16 16 0 -2
BITMAP
0000
0000
0008
0008
0008
0008
0078
0008
0008
0008
0008
0000
7FFF
0080
0080
0080
ENDCHAR
STARTCHAR U+117C
ENCODING 4476
SWIDTH 960 0
DWIDTH 16 0
BBX 16 16 0 -2
BITMAP
0000
0000
0008
0008
0008
0008
0078
0008
0008
0008
0008
0000
0000
7FFF
0000
0000
ENDCHAR
STARTCHAR U+117D
ENCODING 4477
SWIDTH 960 0
DWIDTH 16 0
BBX 16 16 0 -2
BITMAP
0000
0000
0008
0008
0078
0008
0008
0078
0008
0008
0088
0080
0080
7FFF
0000
0000
ENDCHAR
STARTCHAR U+117E
ENCODING 4478
SWIDTH 960 0
DWIDTH 16 0
BBX 16 16 0 -2
BITMAP
0000
0000
0008
0008
0078
0008
0008
0078
0008
0008
0008
0000
7FFF
0080
0080
0080
ENDCHAR
STARTCHAR U+117F
ENCODING 4479
SWIDTH 960 0
DWIDTH 16 0
BBX 16 16 0 -2
BITMAP
0000
0000
0004
0004
0004
0004
0004
0004
003C
0004
0204
0204
0204
7FF4
0004
0004
ENDCHAR
STARTCHAR U+1180
ENCODING 4480
SWIDTH 960 0
DWIDTH 16 0
BBX 16 16 0 -2
BITMAP
0000
0000
0012
0012
0012
0012
0012
0012
00F2
0012
0412
0412
0412
7FD2
0012
0012
ENDCHAR
STARTCHAR U+1181
ENCODING 4481
SWIDTH 960 0
DWIDTH 16 0
BBX 16 16 0 -2
BITMAP
0000
0000
0012
0012
0012
0012
00F2
0012
0012
00F2
0412
0412
0412
7FD2
0012
0012
ENDCHAR
STARTCHAR U+1182
ENCODING 4482
SWIDTH 960 0
DWIDTH 16 0
BBX 16 16 0 -2
BITMAP
0000
0000
0000
0000
0000
0080
0080
0080
7FFF
0000
0080
0080
0080
7FFF
0000
0000
ENDCHAR
STARTCHAR U+1183
ENCODING 4483
SWIDTH 960 0
DWIDTH 16 0
BBX 16 16 0 -2
BITMAP
0000
0000
0000
0000
0000
0080
0080
0080
7FFF
0000
0000
0000
7FFF
0080
0080
0080
ENDCHAR
STARTCHAR U+1184
ENCODING 4484
SWIDTH 960 0
DWIDTH 16 0
BBX 16 16 0 -2
BITMAP
0000
0000
0004
0004
0004
0004
0007
0004
0004
0004
0887
0884
0884
7FF4
0004
0004
ENDCHAR
STARTCHAR U+1185
ENCODING 4485
SWIDTH 960 0
DWIDTH 16 0
BBX 16 16 0 -2
BITMAP
0000
0000
0012
0012
0012
0012
001E
0012
0012
001E
1112
1112
1112
7FD2
0012
0012
ENDCHAR
STARTCHAR U+1186
ENCODING 4486
SWIDTH 960 0
DWIDTH 16 0
BBX 16 16 0 -2
BITMAP
0000
0000
0004
0004
0004
0004
003C
0004
0004
003C
0884
0884
0884
7FF4
0004
0004
ENDCHAR
STARTCHAR U+1187
ENCODING 4487
SWIDTH 960 0
DWIDTH 16 0
BBX 16 16 0 -2
BITMAP
0000
0000
0000
0000
0000
0220
0220
0220
7FFF
0000
0080
0080
0080
7FFF
0000
0000
ENDCHAR
STARTCHAR U+1188
ENCODING 4488
SWIDTH 960 0
DWIDTH 16 0
BBX 16 16 0 -2
BITMAP
0000
0000
0004
0004
0004
0004
0004
0004
0004
0004
0884
0884
0884
7FF4
0004
0004
ENDCHAR
STARTCHAR U+1189
ENCODING 4489
SWIDTH 960 0
DWIDTH 16 0
BBX 16 16 0 -2
BITMAP
0000
0000
0004
0004
0004
0004
0004
0004
0007
7FF4
0204
0204
0204
0204
0204
0204
ENDCHAR
STARTCHAR U+118A
ENCODING 4490
SWIDTH 960 0
DWIDTH 16 0
BBX 16 16 0 -2
BITMAP
0000
0000
0012
0012
0012
0012
0012
0012
001E
7FD2
0412
0412
0412
0412
0412
0412
ENDCHAR
STARTCHAR U+118B
ENCODING 4491
SWIDTH 960 0
DWIDTH 16 0
BBX 16 16 0 -2
BITMAP
0000
0000
0008
0008
0008
0008
0008
3FE8
0208
0278
0208
0208
0000
7FFF
0000
0000
ENDCHAR
STARTCHAR U+118C
ENCODING 4492
SWIDTH 960 0
DWIDTH 16 0
BBX 16 16 0 -2
BITMAP
0000
0000
0012
0012
0012
0012
0012
0012
7FD2
0412
04F2
0412
0412
04F2
0412
0412
ENDCHAR
STARTCHAR U+118D
ENCODING 4493
SWIDTH 960 0
DWIDTH 16 0
BBX 16 16 0 -2
BITMAP
0000
0000
0000
0000
0000
0000
0000
7FFF
0080
0080
0080
0000
7FFF
0080
0080
0080
ENDCHAR
STARTCHAR U+118E
ENCODING 4494
SWIDTH 960 0
DWIDTH 16 0
BBX 16 16 0 -2
BITMAP
0000
0000
0004
0004
0004
0004
0004
0004
0007
7FF4
0884
0884
0884
0884
0884
0884
ENDCHAR
STARTCHAR U+118F
ENCODING 4495
SWIDTH 960 0
DWIDTH 16 0
BBX 16 16 0 -2
BITMAP
0000
0000
0004
0004
0004
0004
0004
0004
0004
7FF4
0884
0884
08BC
0884
0884
0884
ENDCHAR
STARTCHAR U+1190
ENCODING 4496
SWIDTH 960 0
DWIDTH 16 0
BBX 16 16 0 -2
BITMAP
0000
0000
0012
0012
0012
0012
0012
0012
0012
7FD2
1112
1112
1172
1112
1112
1112
ENDCHAR
STARTCHAR U+1191
ENCODING 4497
SWIDTH 960 0
DWIDTH 16 0
BBX 16 16 0 -2
BITMAP
0000
0000
0004
0004
0004
0004
0004
0004
0004
7FF4
0884
08BC
0884
0884
08BC
0884
ENDCHAR
STARTCHAR U+1192
ENCODING 4498
SWIDTH 960 0
DWIDTH 16 0
BBX 16 16 0 -2
BITMAP
0000
0000
0012
0012
0012
0012
0012
0012
0012
7FD2
1112
1172
1112
1112
1172
1112
ENDCHAR
STARTCHAR U+1193
ENCODING 4499
SWIDTH 960 0
DWIDTH 16 0
BBX 16 16 0 -2
BITMAP
0000
0000
0000
0000
0000
0000
0000
7FFF
0220
0220
0220
0000
7FFF
0080
0080
0080
ENDCHAR
STARTCHAR U+1194
ENCODING 4500
SWIDTH 960 0
DWIDTH 16 0
BBX 16 16 0 -2
BITMAP
0000
0000
0004
0004
0004
0004
0004
0004
0004
7FF4
0884
0884
0884
0884
0884
0884
ENDCHAR
STARTCHAR U+1195
ENCODING 4501
SWIDTH 960 0
DWIDTH 16 0
BBX 16 16 0 -2
BITMAP
0000
0000
0000
0000
0000
0000
0000
0000
7FFF
0000
0000
0000
7FFF
0080
0080
0080
ENDCHAR
STARTCHAR U+1196
ENCODING 4502
SWIDTH 960 0
DWIDTH 16 0
BBX 16 16 0 -2
BITMAP
0000
0000
0000
0000
0000
0000
0000
0000
7FFF
0000
0000
0000
0000
7FFF
0000
0000
ENDCHAR
STARTCHAR U+1197
ENCODING 4503
SWIDTH 960 0
DWIDTH 16 0
BBX 16 16 0 -2
BITMAP
0000
0000
0008
0008
0008
0008
0008
3FE8
0008
0008
0008
0000
7FFF
0080
0080
0080
ENDCHAR
STARTCHAR U+1198
ENCODING 4504
SWIDTH 960 0
DWIDTH 16 0
BBX 16 16 0 -2
BITMAP
0000
0000
0080
0480
0480
0480
0480
0480
04F0
0480
0480
0480
0480
0480
0480
0080
ENDCHAR
STARTCHAR U+1199
ENCODING 4505
SWIDTH 960 0
DWIDTH 16 0
BBX 16 16 0 -2
BITMAP
0000
0000
0080
0480
0480
0480
04F0
0480
0480
0480
04F0
0480
0480
0480
0480
0080
ENDCHAR
STARTCHAR U+119A
ENCODING 4506
SWIDTH 960 0
DWIDTH 16 0
BBX 16 16 0 -2
BITMAP
0000
0000
0008
0008
0008
0008
0008
0008
0008
0008
0088
0080
0080
7FFF
0000
0000
ENDCHAR
STARTCHAR U+119B
ENCODING 4507
SWIDTH 960 0
DWIDTH 16 0
BBX 16 16 0 -2
BITMAP
0000
0000
0008
0008
0008
0008
0008
0008
0008
0008
0008
0000
7FFF
0080
0080
0080
ENDCHAR
STARTCHAR U+119C
ENCODING 4508
SWIDTH 960 0
DWIDTH 16 0
BBX 16 16 0 -2
BITMAP
0000
0000
0008
0008
0008
0008
0008
0008
0008
0008
0008
0000
0000
7FFF
0000
0000
ENDCHAR
STARTCHAR U+119D
ENCODING 4509
SWIDTH 960 0
DWIDTH 16 0
BBX 16 16 0 -2
BITMAP
0000
0000
0008
0008
0008
0008
0008
0008
0008
0008
0008
0000
0180
0180
0000
0000
ENDCHAR
STARTCHAR U+119E
ENCODING 4510
SWIDTH 960 0
DWIDTH 16 0
BBX 16 16 0 -2
BITMAP
0000
0000
0000
0000
0000
0000
0000
0000
0000
0000
0000
0000
0180
0180
0000
0000
ENDCHAR
STARTCHAR U+119F
ENCODING 4511
SWIDTH 960 0
DWIDTH 16 0
BBX 16 16 0 -2
BITMAP
0000
0000
0004
0004
0004
0004
0004
0004
003C
0004
0004
0004
0604
0604
0004
0004
ENDCHAR
STARTCHAR U+11A0
ENCODING 4512
SWIDTH 960 0
DWIDTH 16 0
BBX 16 16 0 -2
BITMAP
0000
0000
0000
0000
0000
0000
0000
0000
0180
0180
0000
0000
7FFF
0080
0080
0080
ENDCHAR
STARTCHAR U+11A1
ENCODING 4513
SWIDTH 960 0
DWIDTH 16 0
BBX 16 16 0 -2
BITMAP
0000
0000
0004
0004
0004
0004
0004
0004
0004
0004
0004
0004
0304
0304
0004
0004
ENDCHAR
STARTCHAR U+11A2
ENCODING 4514
SWIDTH 960 0
DWIDTH 16 0
BBX 16 16 0 -2
BITMAP
0000
0000
0000
0000
0000
0000
0000
0000
0000
0000
0000
0000
0630
0630
0000
0000
ENDCHAR
STARTCHAR U+11A3
ENCODING 4515
SWIDTH 960 0
DWIDTH 16 0
BBX 16 16 0 -2
BITMAP
0000
0000
0008
0008
0008
0008
000F
0008
0008
0008
0008
0000
0000
7FFF
0000
0000
ENDCHAR
STARTCHAR U+11A4
ENCODING 4516
SWIDTH 960 0
DWIDTH 16 0
BBX 16 16 0 -2
BITMAP
0000
0000
0008
0008
000E
0008
0008
000E
0008
0008
0008
0000
7FFF
0080
0080
0080
ENDCHAR
STARTCHAR U+11A5
ENCODING 4517
SWIDTH 960 0
DWIDTH 16 0
BBX 16 16 0 -2
BITMAP
0000
0000
0020
0120
0120
0120
0F3C
0120
0120
0120
0F3C
0120
0120
0120
0120
0020
ENDCHAR
STARTCHAR U+11A6
ENCODING 4518
SWIDTH 960 0
DWIDTH 16 0
BBX 16 16 0 -2
BITMAP
0000
0000
0004
0004
0004
0004
0007
0004
0004
0004
0207
0204
0204
7FF4
0004
0004
ENDCHAR
STARTCHAR U+11A7
ENCODING 4519
SWIDTH 960 0
DWIDTH 16 0
BBX 16 16 0 -2
BITMAP
0000
0000
0012
0012
0012
0012
001E
0012
0012
001E
0412
0412
0412
7FD2
0012
0012
ENDCHAR
STARTCHAR U+11A8
ENCODING 4520
SWIDTH 960 0
DWIDTH 16 0
BBX 16 16 0 -2
BITMAP
0000
0000
0000
0000
0FF8
0008
0008
0008
0008
0008
0008
0008
0008
0000
0000
0000
ENDCHAR
STARTCHAR U+11A9
ENCODING 4521
SWIDTH 960 0
DWIDTH 16 0
BBX 16 16 0 -2
BITMAP
0000
0000
0000
0000
1F7C
0104
0104
0104
0104
0104
0104
0104
0104
0000
0000
0000
ENDCHAR
STARTCHAR U+11AA
ENCODING 4522
SWIDTH 960 0
DWIDTH 16 0
BBX 16 16 0 -2
BITMAP
0000
0000
0000
0000
1F10
0110
0110
0110
0128
0128
0144
0144
0182
0000
0000
0000
ENDCHAR
STARTCHAR U+11AB
ENCODING 4523
SWIDTH 960 0
DWIDTH 16 0
BBX 16 16 0 -2
BITMAP
0000
0000
0000
0000
0800
0800
0800
0800
0800
0800
0800
0800
07F8
0000
0000
0000
ENDCHAR
STARTCHAR U+11AC
ENCODING 4524
SWIDTH 960 0
DWIDTH 16 0
BBX 16 16 0 -2
BITMAP
0000
0000
0000
0000
10FE
1010
1010
1010
1028
1028
1044
1044
0F82
0000
0000
0000
ENDCHAR
STARTCHAR U+11AD
ENCODING 4525
SWIDTH 960 0
DWIDTH 16 0
BBX 16 16 0 -2
BITMAP
0000
0000
0000
0000
1038
1000
10FE
1000
1038
1044
1044
1044
0F38
0000
0000
0000
ENDCHAR
STARTCHAR U+11AE
ENCODING 4526
SWIDTH 960 0
DWIDTH 16 0
BBX 16 16 0 -2
BITMAP
0000
0000
0000
0000
0FF8
0800
0800
0800
0800
0800
0800
0800
07F8
0000
0000
0000
ENDCHAR
STARTCHAR U+11AF
ENCODING 4527
SWIDTH 960 0
DWIDTH 16 0
BBX 16 16 0 -2
BITMAP
0000
0000
0000
0000
0FF8
0008
0008
0008
0FF0
0800
0800
0800
07F8
0000
0000
0000
ENDCHAR
STARTCHAR U+11B0
ENCODING 4528
SWIDTH 960 0
DWIDTH 16 0
BBX 16 16 0 -2
BITMAP
0000
0000
0000
0000
1F7C
0104
0104
0104
1E04
1004
1004
1004
0F04
0000
0000
0000
ENDCHAR
STARTCHAR U+11B1
ENCODING 4529
SWIDTH 960 0
DWIDTH 16 0
BBX 16 16 0 -2
BITMAP
0000
0000
0000
0000
1F7C
0144
0144
0144
1E44
1044
1044
1044
0F3C
0000
0000
0000
ENDCHAR
STARTCHAR U+11B2
ENCODING 4530
SWIDTH 960 0
DWIDTH 16 0
BBX 16 16 0 -2
BITMAP
0000
0000
0000
0000
1F44
0144
0144
0144
1E7C
1044
1044
1044
0F3C
0000
0000
0000
ENDCHAR
STARTCHAR U+11B3
ENCODING 4531
SWIDTH 960 0
DWIDTH 16 0
BBX 16 16 0 -2
BITMAP
0000
0000
0000
0000
1F10
0110
0110
0110
1E28
1028
1044
1044
0F82
0000
0000
0000
ENDCHAR
STARTCHAR U+11B4
ENCODING 4532
SWIDTH 960 0
DWIDTH 16 0
BBX 16 16 0 -2
BITMAP
0000
0000
0000
0000
1F7C
0140
0140
0140
1E78
1040
1040
1040
0FBC
0000
0000
0000
ENDCHAR
STARTCHAR U+11B5
ENCODING 4533
SWIDTH 960 0
DWIDTH 16 0
BBX 16 16 0 -2
BITMAP
0000
0000
0000
0000
1F7E
0100
0124
0124
1E24
1024
1024
1024
0F7E
0000
0000
0000
ENDCHAR
STARTCHAR U+11B6
ENCODING 4534
SWIDTH 960 0
DWIDTH 16 0
BBX 16 16 0 -2
BITMAP
0000
0000
0000
0000
1F38
0100
01FE
0100
1E38
1044
1044
1044
0F38
0000
0000
0000
ENDCHAR
STARTCHAR U+11B7
ENCODING 4535
SWIDTH 960 0
DWIDTH 16 0
BBX 16 16 0 -2
BITMAP
0000
0000
0000
0000
0FF8
0808
0808
0808
0808
0808
0808
0808
07F8
0000
0000
0000
ENDCHAR
STARTCHAR U+11B8
ENCODING 4536
SWIDTH 960 0
DWIDTH 16 0
BBX 16 16 0 -2
BITMAP
0000
0000
0000
0000
0808
0808
0808
0808
0FF8
0808
0808
0808
07F8
0000
0000
0000
ENDCHAR
STARTCHAR U+11B9
ENCODING 4537
SWIDTH 960 0
DWIDTH 16 0
BBX 16 16 0 -2
BITMAP
0000
0000
0000
0000
1110
1110
1110
1110
1F28
1128
1144
1144
0F82
0000
0000
0000
ENDCHAR
STARTCHAR U+11BA
ENCODING 4538
SWIDTH 960 0
DWIDTH 16 0
BBX 16 16 0 -2
BITMAP
0000
0000
0000
0000
0080
0080
0080
0140
0140
0220
0220
0410
0808
0000
0000
0000
ENDCHAR
STARTCHAR U+11BB
ENCODING 4539
SWIDTH 960 0
DWIDTH 16 0
BBX 16 16 0 -2
BITMAP
0000
0000
0000
0000
0410
0410
0410
0410
0A28
0A28
1144
1144
2082
0000
0000
0000
ENDCHAR
STARTCHAR U+11BC
ENCODING 4540
SWIDTH 960 0
DWIDTH 16 0
BBX 16 16 0 -2
BITMAP
0000
0000
0000
0000
03E0
0410
0808
0808
0808
0808
0808
0410
03E0
0000
0000
0000
ENDCHAR
STARTCHAR U+11BD
ENCODING 4541
SWIDTH 960 0
DWIDTH 16 0
BBX 16 16 0 -2
BITMAP
0000
0000
0000
0000
0FF8
0080
0080
0140
0140
0220
0220
0410
0808
0000
0000
0000
ENDCHAR
STARTCHAR U+11BE
ENCODING 4542
SWIDTH 960 0
DWIDTH 16 0
BBX 16 16 0 -2
BITMAP
0000
0000
0000
0000
03E0
0000
0FF8
0080
0080
0140
0220
0410
0808
0000
0000
0000
ENDCHAR
STARTCHAR U+11BF
ENCODING 4543
SWIDTH 960 0
DWIDTH 16 0
BBX 16 16 0 -2
BITMAP
0000
0000
0000
0000
0FF8
0008
0008
0008
0FF8
0008
0008
0008
0008
0000
0000
0000
ENDCHAR
STARTCHAR U+11C0
ENCODING 4544
SWIDTH 960 0
DWIDTH 16 0
BBX 16 16 0 -2
BITMAP
0000
0000
0000
0000
0FF8
0800
0800
0800
0FF8
0800
0800
0800
07F8
0000
0000
0000
ENDCHAR
STARTCHAR U+11C1
ENCODING 4545
SWIDTH 960 0
DWIDTH 16 0
BBX 16 16 0 -2
BITMAP
0000
0000
0000
0000
1FFC
0410
0410
0410
0410
0410
0410
0410
1FFC
0000
0000
0000
ENDCHAR
STARTCHAR U+11C2
ENCODING 4546
SWIDTH 960 0
DWIDTH 16 0
BBX 16 16 0 -2
BITMAP
0000
0000
0000
0000
03E0
0000
1FFC
0000
03E0
0410
0410
0410
03E0
0000
0000
0000
ENDCHAR
STARTCHAR U+11C3
ENCODING 4547
SWIDTH 960 0
DWIDTH 16 0
BBX 16 16 0 -2
BITMAP
0000
0000
0000
0000
1F7C
0104
0104
0104
0178
0140
0140
0140
013C
0000
0000
0000
ENDCHAR
STARTCHAR U+11C4
ENCODING 4548
SWIDTH 960 0
DWIDTH 16 0
BBX 16 16 0 -2
BITMAP
0000
0000
0000
0000
3E5E
0242
0242
0242
02A2
02A2
02A2
0312
0312
0000
0000
0000
ENDCHAR
STARTCHAR U+11C5
ENCODING 4549
SWIDTH 960 0
DWIDTH 16 0
BBX 16 16 0 -2
BITMAP
0000
0000
0000
0000
107C
1004
1004
1004
1004
1004
1004
1004
0F04
0000
0000
0000
ENDCHAR
STARTCHAR U+11C6
ENCODING 4550
SWIDTH 960 0
DWIDTH 16 0
BBX 16 16 0 -2
BITMAP
0000
0000
0000
0000
107C
1040
1040
1040
1040
1040
1040
1040
0F3C
0000
0000
0000
ENDCHAR
STARTCHAR U+11C7
ENCODING 4551
SWIDTH 960 0
DWIDTH 16 0
BBX 16 16 0 -2
BITMAP
0000
0000
0000
0000
1010
1010
1010
1010
1028
1028
1044
1044
0F82
0000
0000
0000
ENDCHAR
STARTCHAR U+11C8
ENCODING 4552
SWIDTH 960 0
DWIDTH 16 0
BBX 16 16 0 -2
BITMAP
0000
0000
0000
0000
1010
1010
1010
1028
1028
1044
1044
1082
0FFE
0000
0000
0000
ENDCHAR
STARTCHAR U+11C9
ENCODING 4553
SWIDTH 960 0
DWIDTH 16 0
BBX 16 16 0 -2
BITMAP
0000
0000
0000
0000
107C
1040
1040
1040
1078
1040
1040
1040
0F3C
0000
0000
0000
ENDCHAR
STARTCHAR U+11CA
ENCODING 4554
SWIDTH 960 0
DWIDTH 16 0
BBX 16 16 0 -2
BITMAP
0000
0000
0000
0000
1F7C
1004
1004
1004
1004
1004
1004
1004
0F04
0000
0000
0000
ENDCHAR
STARTCHAR U+11CB
ENCODING 4555
SWIDTH 960 0
DWIDTH 16 0
BBX 16 16 0 -2
BITMAP
0000
0000
0000
0000
1F7C
1004
1004
1004
1078
1040
1040
1040
0F3C
0000
0000
0000
ENDCHAR
STARTCHAR U+11CC
ENCODING 4556
SWIDTH 960 0
DWIDTH 16 0
BBX 16 16 0 -2
BITMAP
0000
0000
0000
0000
7BC4
0844
0844
0844
704A
404A
404A
4051
3851
0000
0000
0000
ENDCHAR
STARTCHAR U+11CD
ENCODING 4557
SWIDTH 960 0
DWIDTH 16 0
BBX 16 16 0 -2
BITMAP
0000
0000
0000
0000
1F40
0140
0140
0140
1F40
1040
1040
1040
0F3C
0000
0000
0000
ENDCHAR
STARTCHAR U+11CE
ENCODING 4558
SWIDTH 960 0
DWIDTH 16 0
BBX 16 16 0 -2
BITMAP
0000
0000
0000
0000
1F7C
0140
0140
0140
1F40
1040
1040
1040
0F3C
0000
0000
0000
ENDCHAR
STARTCHAR U+11CF
ENCODING 4559
SWIDTH 960 0
DWIDTH 16 0
BBX 16 16 0 -2
BITMAP
0000
0000
0000
0000
7BCC
0A00
0A3F
0A00
720C
4212
4212
4212
39CC
0000
0000
0000
ENDCHAR
STARTCHAR U+11D0
ENCODING 4560
SWIDTH 960 0
DWIDTH 16 0
BBX 16 16 0 -2
BITMAP
0000
0000
0000
0000
1F7C
0104
0104
0104
1F78
1040
1040
1040
0F3C
0000
0000
0000
ENDCHAR
STARTCHAR U+11D1
ENCODING 4561
SWIDTH 960 0
DWIDTH 16 0
BBX 16 16 0 -2
BITMAP
0000
0000
0000
0000
7BDE
0A42
0A42
0A42
7242
4242
4242
4242
39C2
0000
0000
0000
ENDCHAR
STARTCHAR U+11D2
ENCODING 4562
SWIDTH 960 0
DWIDTH 16 0
BBX 16 16 0 -2
BITMAP
0000
0000
0000
0000
7BC4
0A44
0A44
0A44
724A
424A
424A
4251
39D1
0000
0000
0000
ENDCHAR
STARTCHAR U+11D3
ENCODING 4563
SWIDTH 960 0
DWIDTH 16 0
BBX 16 16 0 -2
BITMAP
0000
0000
0000
0000
7A44
0A44
0A44
0A44
73CA
424A
424A
4251
39D1
0000
0000
0000
ENDCHAR
STARTCHAR U+11D4
ENCODING 4564
SWIDTH 960 0
DWIDTH 16 0
BBX 16 16 0 -2
BITMAP
0000
0000
0000
0000
7A4C
0A40
0A7F
0A40
73CC
4252
4252
4252
39CC
0000
0000
0000
ENDCHAR
STARTCHAR U+11D5
ENCODING 4565
SWIDTH 960 0
DWIDTH 16 0
BBX 16 16 0 -2
BITMAP
0000
0000
0000
0044
1F44
017C
0144
013C
1F00
1038
1044
1044
0F44
0038
0000
0000
ENDCHAR
STARTCHAR U+11D6
ENCODING 4566
SWIDTH 960 0
DWIDTH 16 0
BBX 16 16 0 -2
BITMAP
0000
0000
0000
0000
3C88
0488
0488
0488
3D54
2154
2154
2222
1E22
0000
0000
0000
ENDCHAR
STARTCHAR U+11D7
ENCODING 4567
SWIDTH 960 0
DWIDTH 16 0
BBX 16 16 0 -2
BITMAP
0000
0000
0000
0000
1F10
0110
0110
0128
1E28
1044
1044
1082
0FFE
0000
0000
0000
ENDCHAR
STARTCHAR U+11D8
ENCODING 4568
SWIDTH 960 0
DWIDTH 16 0
BBX 16 16 0 -2
BITMAP
0000
0000
0000
0000
1F7C
0104
0104
0104
1E7C
1004
1004
1004
0F04
0000
0000
0000
ENDCHAR
STARTCHAR U+11D9
ENCODING 4569
SWIDTH 960 0
DWIDTH 16 0
BBX 16 16 0 -2
BITMAP
0000
0000
0000
0000
1FFE
0100
0138
0144
1E44
1044
1044
1044
0F38
0000
0000
0000
ENDCHAR
STARTCHAR U+11DA
ENCODING 4570
SWIDTH 960 0
DWIDTH 16 0
BBX 16 16 0 -2
BITMAP
0000
0000
0000
0000
1F7C
1104
1104
1104
1104
1104
1104
1104
0F04
0000
0000
0000
ENDCHAR
STARTCHAR U+11DB
ENCODING 4571
SWIDTH 960 0
DWIDTH 16 0
BBX 16 16 0 -2
BITMAP
0000
0000
0000
0000
1F7C
1104
1104
1104
1178
1140
1140
1140
0F3C
0000
0000
0000
ENDCHAR
STARTCHAR U+11DC
ENCODING 4572
SWIDTH 960 0
DWIDTH 16 0
BBX 16 16 0 -2
BITMAP
0000
0000
0000
0000
1F44
1144
1144
1144
117C
1144
1144
1144
0F3C
0000
0000
0000
ENDCHAR
STARTCHAR U+11DD
ENCODING 4573
SWIDTH 960 0
DWIDTH 16 0
BBX 16 16 0 -2
BITMAP
0000
0000
0000
0000
1F10
1110
1110
1110
1128
1128
1144
1144
0F82
0000
0000
0000
ENDCHAR
STARTCHAR U+11DE
ENCODING 4574
SWIDTH 960 0
DWIDTH 16 0
BBX 16 16 0 -2
BITMAP
0000
0000
0000
0000
3C88
2488
2488
2488
2554
2554
2554
2622
1E22
0000
0000
0000
ENDCHAR
STARTCHAR U+11DF
ENCODING 4575
SWIDTH 960 0
DWIDTH 16 0
BBX 16 16 0 -2
BITMAP
0000
0000
0000
0000
1F10
1110
1110
1128
1128
1144
1144
1182
0FFE
0000
0000
0000
ENDCHAR
STARTCHAR U+11E0
ENCODING 4576
SWIDTH 960 0
DWIDTH 16 0
BBX 16 16 0 -2
BITMAP
0000
0000
0000
0000
1F38
1100
11FE
1110
1110
1128
1128
1144
0F82
0000
0000
0000
ENDCHAR
STARTCHAR U+11E1
ENCODING 4577
SWIDTH 960 0
DWIDTH 16 0
BBX 16 16 0 -2
BITMAP
0000
0000
0000
0000
1F38
1100
11FE
1100
1138
1144
1144
1144
0F38
0000
0000
0000
ENDCHAR
STARTCHAR U+11E2
ENCODING 4578
SWIDTH 960 0
DWIDTH 16 0
BBX 16 16 0 -2
BITMAP
0000
0000
0000
0FF8
0808
0808
0808
07F8
0000
07F0
0808
0808
0808
07F0
0000
0000
ENDCHAR
STARTCHAR U+11E3
ENCODING 4579
SWIDTH 960 0
DWIDTH 16 0
BBX 16 16 0 -2
BITMAP
0000
0000
0000
0000
117C
1104
1104
1104
1F78
1140
1140
1140
0F3C
0000
0000
0000
ENDCHAR
STARTCHAR U+11E4
ENCODING 4580
SWIDTH 960 0
DWIDTH 16 0
BBX 16 16 0 -2
BITMAP
0000
0000
0000
0000
117E
1100
1124
1124
1F24
1124
1124
1124
0F7E
0000
0000
0000
ENDCHAR
STARTCHAR U+11E5
ENCODING 4581
SWIDTH 960 0
DWIDTH 16 0
BBX 16 16 0 -2
BITMAP
0000
0000
0000
0000
1138
1100
11FE
1100
1F38
1144
1144
1144
0F38
0000
0000
0000
ENDCHAR
STARTCHAR U+11E6
ENCODING 4582
SWIDTH 960 0
DWIDTH 16 0
BBX 16 16 0 -2
BITMAP
0000
0000
0000
0808
0808
0FF8
0808
07F8
0000
07F0
0808
0808
0808
07F0
0000
0000
ENDCHAR
STARTCHAR U+11E7
ENCODING 4583
SWIDTH 960 0
DWIDTH 16 0
BBX 16 16 0 -2
BITMAP
0000
0000
0000
0000
047C
0404
0404
0404
0A04
0A04
1104
1104
2084
0000
0000
0000
ENDCHAR
STARTCHAR U+11E8
ENCODING 4584
SWIDTH 960 0
DWIDTH 16 0
BBX 16 16 0 -2
BITMAP
0000
0000
0000
0000
047C
0440
0440
0440
0A40
0A40
1140
1140
20BC
0000
0000
0000
ENDCHAR
STARTCHAR U+11E9
ENCODING 4585
SWIDTH 960 0
DWIDTH 16 0
BBX 16 16 0 -2
BITMAP
0000
0000
0000
0000
047C
0404
0404
0404
0A78
0A40
1140
1140
20BC
0000
0000
0000
ENDCHAR
STARTCHAR U+11EA
ENCODING 4586
SWIDTH 960 0
DWIDTH 16 0
BBX 16 16 0 -2
BITMAP
0000
0000
0000
0000
0444
0444
0444
0444
0A7C
0A44
1144
1144
20BC
0000
0000
0000
ENDCHAR
STARTCHAR U+11EB
ENCODING 4587
SWIDTH 960 0
DWIDTH 16 0
BBX 16 16 0 -2
BITMAP
0000
0000
0000
0000
0080
0080
0140
0140
0220
0410
0410
0808
0FF8
0000
0000
0000
ENDCHAR
STARTCHAR U+11EC
ENCODING 4588
SWIDTH 960 0
DWIDTH 16 0
BBX 16 16 0 -2
BITMAP
0000
0000
0000
0000
0E7C
1104
1104
1104
1104
1104
1104
1104
0E04
0000
0000
0000
ENDCHAR
STARTCHAR U+11ED
ENCODING 4589
SWIDTH 960 0
DWIDTH 16 0
BBX 16 16 0 -2
BITMAP
0000
0000
0000
0000
33DE
4842
4842
4842
4842
4842
4842
4842
3042
0000
0000
0000
ENDCHAR
STARTCHAR U+11EE
ENCODING 4590
SWIDTH 960 0
DWIDTH 16 0
BBX 16 16 0 -2
BITMAP
0000
0000
0000
0000
0E38
1144
1144
1144
1144
1144
1144
1144
0E38
0000
0000
0000
ENDCHAR
STARTCHAR U+11EF
ENCODING 4591
SWIDTH 960 0
DWIDTH 16 0
BBX 16 16 0 -2
BITMAP
0000
0000
0000
0000
0E7C
1104
1104
1104
117C
1104
1104
1104
0E04
0000
0000
0000
ENDCHAR
STARTCHAR U+11F0
ENCODING 4592
SWIDTH 960 0
DWIDTH 16 0
BBX 16 16 0 -2
BITMAP
0000
0000
0000
0000
0080
0080
03E0
0410
0808
0808
0808
0410
03E0
0000
0000
0000
ENDCHAR
STARTCHAR U+11F1
ENCODING 4593
SWIDTH 960 0
DWIDTH 16 0
BBX 16 16 0 -2
BITMAP
0000
0000
0000
0000
0410
0410
0E10
1110
1128
1128
1144
1144
0E82
0000
0000
0000
ENDCHAR
STARTCHAR U+11F2
ENCODING 4594
SWIDTH 960 0
DWIDTH 16 0
BBX 16 16 0 -2
BITMAP
0000
0000
0000
0000
0410
0410
0E28
1128
1128
1144
1144
1182
0EFE
0000
0000
0000
ENDCHAR
STARTCHAR U+11F3
ENCODING 4595
SWIDTH 960 0
DWIDTH 16 0
BBX 16 16 0 -2
BITMAP
0000
0000
0000
0000
3F44
0044
1244
1244
127C
1244
1244
1244
3F3C
0000
0000
0000
ENDCHAR
STARTCHAR U+11F4
ENCODING 4596
SWIDTH 960 0
DWIDTH 16 0
BBX 16 16 0 -2
BITMAP
0000
0000
0000
1FFC
0410
0410
0410
1FFC
0000
07F0
0808
0808
0808
07F0
0000
0000
ENDCHAR
STARTCHAR U+11F5
ENCODING 4597
SWIDTH 960 0
DWIDTH 16 0
BBX 16 16 0 -2
BITMAP
0000
0000
0000
0000
0E40
0040
3FC0
0040
0E40
1140
1140
1140
0E3C
0000
0000
0000
ENDCHAR
STARTCHAR U+11F6
ENCODING 4598
SWIDTH 960 0
DWIDTH 16 0
BBX 16 16 0 -2
BITMAP
0000
0000
0000
0000
0E7C
0004
3F84
0004
0E78
1140
1140
1140
0E3C
0000
0000
0000
ENDCHAR
STARTCHAR U+11F7
ENCODING 4599
SWIDTH 960 0
DWIDTH 16 0
BBX 16 16 0 -2
BITMAP
0000
0000
0000
0000
0E7C
0044
3FC4
0044
0E44
1144
1144
1144
0E3C
0000
0000
0000
ENDCHAR
STARTCHAR U+11F8
ENCODING 4600
SWIDTH 960 0
DWIDTH 16 0
BBX 16 16 0 -2
BITMAP
0000
0000
0000
0000
0E44
0044
3FC4
0044
0E7C
1144
1144
1144
0E3C
0000
0000
0000
ENDCHAR
STARTCHAR U+11F9
ENCODING 4601
SWIDTH 960 0
DWIDTH 16 0
BBX 16 16 0 -2
BITMAP
0000
0000
0000
0000
0FF8
0000
01C0
0220
0410
0410
0410
0220
01C0
0000
0000
0000
ENDCHAR
STARTCHAR U+11FA
ENCODING 4602
SWIDTH 960 0
DWIDTH 16 0
BBX 16 16 0 -2
BITMAP
0000
0000
0000
0000
1F40
0140
0140
0140
0140
0140
0140
0140
013C
0000
0000
0000
ENDCHAR
STARTCHAR U+11FB
ENCODING 4603
SWIDTH 960 0
DWIDTH 16 0
BBX 16 16 0 -2
BITMAP
0000
0000
0000
0000
1F44
0144
0144
0144
017C
0144
0144
0144
013C
0000
0000
0000
ENDCHAR
STARTCHAR U+11FC
ENCODING 4604
SWIDTH 960 0
DWIDTH 16 0
BBX 16 16 0 -2
BITMAP
0000
0000
0000
0000
1F38
0100
01FE
0110
0110
0128
0128
0144
0182
0000
0000
0000
ENDCHAR
STARTCHAR U+11FD
ENCODING 4605
SWIDTH 960 0
DWIDTH 16 0
BBX 16 16 0 -2
BITMAP
0000
0000
0000
0000
1F7C
0104
0104
0104
017C
0104
0104
0104
0104
0000
0000
0000
ENDCHAR
STARTCHAR U+11FE
ENCODING 4606
SWIDTH 960 0
DWIDTH 16 0
BBX 16 16 0 -2
BITMAP
0000
0000
0000
0000
1F38
0100
01FE
0100
0138
0144
0144
0144
0138
0000
0000
0000
ENDCHAR
STARTCHAR U+11FF
ENCODING 4607
SWIDTH 960 0
DWIDTH 16 0
BBX 16 16 0 -2
BITMAP
0000
0000
0000
0000
1040
1040
1040
1040
1040
1040
1040
1040
0F3C
0000
0000
0000
ENDCHAR
STARTCHAR U+3131
ENCODING 12593
SWIDTH 960 0
DWIDTH 16 0
BBX 16 16 0 -2
BITMAP
0000
0000
0000
0000
0FF8
0008
0008
0008
0008
0008
0008
0008
0008
0000
0000
0000
ENDCHAR
STARTCHAR U+3132
ENCODING 12594
SWIDTH 960 0
DWIDTH 16 0
BBX 16 16 0 -2
BITMAP
0000
0000
0000
0000
1F7C
0104
0104
0104
0104
0104
0104
0104
0104
0000
0000
0000
ENDCHAR
STARTCHAR U+3133
ENCODING 12595
SWIDTH 960 0
DWIDTH 16 0
BBX 16 16 0 -2
BITMAP
0000
0000
0000
0000
1F10
0110
0110
0110
0128
0128
0144
0144
0182
0000
0000
0000
ENDCHAR
STARTCHAR U+3134
ENCODING 12596
SWIDTH 960 0
DWIDTH 16 0
BBX 16 16 0 -2
BITMAP
0000
0000
0000
0000
0800
0800
0800
0800
0800
0800
0800
0800
07F8
0000
0000
0000
ENDCHAR
STARTCHAR U+3135
ENCODING 12597
SWIDTH 960 0
DWIDTH 16 0
BBX 16 16 0 -2
BITMAP
0000
0000
0000
0000
10FE
1010
1010
1010
1028
1028
1044
1044
0F82
0000
0000
0000
ENDCHAR
STARTCHAR U+3136
ENCODING 12598
SWIDTH 960 0
DWIDTH 16 0
BBX 16 16 0 -2
BITMAP
0000
0000
0000
0000
1038
1000
10FE
1000
1038
1044
1044
1044
0F38
0000
0000
0000
ENDCHAR
STARTCHAR U+3137
ENCODING 12599
SWIDTH 960 0
DWIDTH 16 0
BBX 16 16 0 -2
BITMAP
0000
0000
0000
0000
0FF8
0800
0800
0800
0800
0800
0800
0800
07F8
0000
0000
0000
ENDCHAR
STARTCHAR U+3138
ENCODING 12600
SWIDTH 960 0
DWIDTH 16 0
BBX 16 16 0 -2
BITMAP
0000
0000
0000
0000
1F7C
1040
1040
1040
1040
1040
1040
1040
0F3C
0000
0000
0000
ENDCHAR
STARTCHAR U+3139
ENCODING 12601
SWIDTH 960 0
DWIDTH 16 0
BBX 16 16 0 -2
BITMAP
0000
0000
0000
0000
0FF8
0008
0008
0008
0FF0
0800
0800
0800
07F8
0000
0000
0000
ENDCHAR
STARTCHAR U+313A
ENCODING 12602
SWIDTH 960 0
DWIDTH 16 0
BBX 16 16 0 -2
BITMAP
0000
0000
0000
0000
1F7C
0104
0104
0104
1E04
1004
1004
1004
0F04
0000
0000
0000
ENDCHAR
STARTCHAR U+313B
ENCODING 12603
SWIDTH 960 0
DWIDTH 16 0
BBX 16 16 0 -2
BITMAP
0000
0000
0000
0000
1F7C
0144
0144
0144
1E44
1044
1044
1044
0F3C
0000
0000
0000
ENDCHAR
STARTCHAR U+313C
ENCODING 12604
SWIDTH 960 0
DWIDTH 16 0
BBX 16 16 0 -2
BITMAP
0000
0000
0000
0000
1F44
0144
0144
0144
1E7C
1044
1044
1044
0F3C
0000
0000
0000
ENDCHAR
STARTCHAR U+313D
ENCODING 12605
SWIDTH 960 0
DWIDTH 16 0
BBX 16 16 0 -2
BITMAP
0000
0000
0000
0000
1F10
0110
0110
0110
1E28
1028
1044
1044
0F82
0000
0000
0000
ENDCHAR
STARTCHAR U+313E
ENCODING 12606
SWIDTH 960 0
DWIDTH 16 0
BBX 16 16 0 -2
BITMAP
0000
0000
0000
0000
1F7C
0140
0140
0140
1E78
1040
1040
1040
0FBC
0000
0000
0000
ENDCHAR
STARTCHAR U+313F
ENCODING 12607
SWIDTH 960 0
DWIDTH 16 0
BBX 16 16 0 -2
BITMAP
0000
0000
0000
0000
1F7E
0100
0124
0124
1E24
1024
1024
1024
0F7E
0000
0000
0000
ENDCHAR
STARTCHAR U+3140
ENCODING 12608
SWIDTH 960 0
DWIDTH 16 0
BBX 16 16 0 -2
BITMAP
0000
0000
0000
0000
1F38
0100
01FE
0100
1E38
1044
1044
1044
0F38
0000
0000
0000
ENDCHAR
STARTCHAR U+3141
ENCODING 12609
SWIDTH 960 0
DWIDTH 16 0
BBX 16 16 0 -2
BITMAP
0000
0000
0000
0000
0FF8
0808
0808
0808
0808
0808
0808
0808
07F8
0000
0000
0000
ENDCHAR
STARTCHAR U+3142
ENCODING 12610
SWIDTH 960 0
DWIDTH 16 0
BBX 16 16 0 -2
BITMAP
0000
0000
0000
0000
0808
0808
0808
0808
0FF8
0808
0808
0808
07F8
0000
0000
0000
ENDCHAR
STARTCHAR U+3143
ENCODING 12611
SWIDTH 960 0
DWIDTH 16 0
BBX 16 16 0 -2
BITMAP
0000
0000
0000
0000
1144
1144
1144
1144
1F7C
1144
1144
1144
0F3C
0000
0000
0000
ENDCHAR
STARTCHAR U+3144
ENCODING 12612
SWIDTH 960 0
DWIDTH 16 0
BBX 16 16 0 -2
BITMAP
0000
0000
0000
0000
1110
1110
1110
1110
1F28
1128
1144
1144
0F82
0000
0000
0000
ENDCHAR
STARTCHAR U+3145
ENCODING 12613
SWIDTH 960 0
DWIDTH 16 0
BBX 16 16 0 -2
BITMAP
0000
0000
0000
0000
0080
0080
0080
0140
0140
0220
0220
0410
0808
0000
0000
0000
ENDCHAR
STARTCHAR U+3146
ENCODING 12614
SWIDTH 960 0
DWIDTH 16 0
BBX 16 16 0 -2
BITMAP
0000
0000
0000
0000
0410
0410
0410
0410
0A28
0A28
1144
1144
2082
0000
0000
0000
ENDCHAR
STARTCHAR U+3147
ENCODING 12615
SWIDTH 960 0
DWIDTH 16 0
BBX 16 16 0 -2
BITMAP
0000
0000
0000
0000
03E0
0410
0808
0808
0808
0808
0808
0410
03E0
0000
0000
0000
ENDCHAR
STARTCHAR U+3148
ENCODING 12616
SWIDTH 960 0
DWIDTH 16 0
BBX 16 16 0 -2
BITMAP
0000
0000
0000
0000
0FF8
0080
0080
0140
0140
0220
0220
0410
0808
0000
0000
0000
ENDCHAR
STARTCHAR U+3149
ENCODING 12617
SWIDTH 960 0
DWIDTH 16 0
BBX 16 16 0 -2
BITMAP
0000
0000
0000
0000
3FFE
0410
0410
0410
0A28
0A28
1144
1144
2082
0000
0000
0000
ENDCHAR
STARTCHAR U+314A
ENCODING 12618
SWIDTH 960 0
DWIDTH 16 0
BBX 16 16 0 -2
BITMAP
0000
0000
0000
0000
03E0
0000
0FF8
0080
0080
0140
0220
0410
0808
0000
0000
0000
ENDCHAR
STARTCHAR U+314B
ENCODING 12619
SWIDTH 960 0
DWIDTH 16 0
BBX 16 16 0 -2
BITMAP
0000
0000
0000
0000
0FF8
0008
0008
0008
0FF8
0008
0008
0008
0008
0000
0000
0000
ENDCHAR
STARTCHAR U+314C
ENCODING 12620
SWIDTH 960 0
DWIDTH 16 0
BBX 16 16 0 -2
BITMAP
0000
0000
0000
0000
0FF8
0800
0800
0800
0FF8
0800
0800
0800
07F8
0000
0000
0000
ENDCHAR
STARTCHAR U+314D
ENCODING 12621
SWIDTH 960 0
DWIDTH 16 0
BBX 16 16 0 -2
BITMAP
0000
0000
0000
0000
0FF8
0220
0220
0220
0220
0220
0220
0220
0FF8
0000
0000
0000
ENDCHAR
STARTCHAR U+314E
ENCODING 12622
SWIDTH 960 0
DWIDTH 16 0
BBX 16 16 0 -2
BITMAP
0000
0000
0000
0000
03E0
0000
0FF8
0000
03E0
0410
0410
0410
03E0
0000
0000
0000
ENDCHAR
STARTCHAR U+314F
ENCODING 12623
SWIDTH 960 0
DWIDTH 16 0
BBX 16 16 0 -2
BITMAP
0000
0000
0080
0080
0080
0080
0080
0080
00F0
0080
0080
0080
0080
0080
0080
0080
ENDCHAR
STARTCHAR U+3150
ENCODING 12624
SWIDTH 960 0
DWIDTH 16 0
BBX 16 16 0 -2
BITMAP
0000
0000
0220
0220
0220
0220
0220
0220
03E0
0220
0220
0220
0220
0220
0220
0220
ENDCHAR
STARTCHAR U+3151
ENCODING 12625
SWIDTH 960 0
DWIDTH 16 0
BBX 16 16 0 -2
BITMAP
0000
0000
0080
0080
0080
0080
00F0
0080
0080
0080
00F0
0080
0080
0080
0080
0080
ENDCHAR
STARTCHAR U+3152
ENCODING 12626
SWIDTH 960 0
DWIDTH 16 0
BBX 16 16 0 -2
BITMAP
0000
0000
0220
0220
0220
0220
03E0
0220
0220
0220
03E0
0220
0220
0220
0220
0220
ENDCHAR
STARTCHAR U+3153
ENCODING 12627
SWIDTH 960 0
DWIDTH 16 0
BBX 16 16 0 -2
BITMAP
0000
0000
0080
0080
0080
0080
0080
0080
0780
0080
0080
0080
0080
0080
0080
0080
ENDCHAR
STARTCHAR U+3154
ENCODING 12628
SWIDTH 960 0
DWIDTH 16 0
BBX 16 16 0 -2
BITMAP
0000
0000
0120
0120
0120
0120
0120
0120
0F20
0120
0120
0120
0120
0120
0120
0120
ENDCHAR
STARTCHAR U+3155
ENCODING 12629
SWIDTH 960 0
DWIDTH 16 0
BBX 16 16 0 -2
BITMAP
0000
0000
0080
0080
0080
0080
0780
0080
0080
0080
0780
0080
0080
0080
0080
0080
ENDCHAR
STARTCHAR U+3156
ENCODING 12630
SWIDTH 960 0
DWIDTH 16 0
BBX 16 16 0 -2
BITMAP
0000
0000
0120
0120
0120
0120
0F20
0120
0120
0120
0F20
0120
0120
0120
0120
0120
ENDCHAR
STARTCHAR U+3157
ENCODING 12631
SWIDTH 960 0
DWIDTH 16 0
BBX 16 16 0 -2
BITMAP
0000
0000
0000
0000
0000
0000
0000
0000
0000
0000
0080
0080
0080
7FFF
0000
0000
ENDCHAR
STARTCHAR U+3158
ENCODING 12632
SWIDTH 960 0
DWIDTH 16 0
BBX 16 16 0 -2
BITMAP
0000
0000
0004
0004
0004
0004
0004
0004
0007
0004
0204
0204
0204
7FF4
0004
0004
ENDCHAR
STARTCHAR U+3159
ENCODING 12633
SWIDTH 960 0
DWIDTH 16 0
BBX 16 16 0 -2
BITMAP
0000
0000
0012
0012
0012
0012
0012
0012
001E
0012
0412
0412
0412
7FD2
0012
0012
ENDCHAR
STARTCHAR U+315A
ENCODING 12634
SWIDTH 960 0
DWIDTH 16 0
BBX 16 16 0 -2
BITMAP
0000
0000
0004
0004
0004
0004
0004
0004
0004
0004
0204
0204
0204
7FF4
0004
0004
ENDCHAR
STARTCHAR U+315B
ENCODING 12635
SWIDTH 960 0
DWIDTH 16 0
BBX 16 16 0 -2
BITMAP
0000
0000
0000
0000
0000
0000
0000
0000
0000
0000
0220
0220
0220
7FFF
0000
0000
ENDCHAR
STARTCHAR U+315C
ENCODING 12636
SWIDTH 960 0
DWIDTH 16 0
BBX 16 16 0 -2
BITMAP
0000
0000
0000
0000
0000
0000
0000
0000
7FFF
0080
0080
0080
0080
0080
0080
0080
ENDCHAR
STARTCHAR U+315D
ENCODING 12637
SWIDTH 960 0
DWIDTH 16 0
BBX 16 16 0 -2
BITMAP
0000
0000
0004
0004
0004
0004
0004
0004
7FF4
0204
0204
023C
0204
0204
0204
0204
ENDCHAR
STARTCHAR U+315E
ENCODING 12638
SWIDTH 960 0
DWIDTH 16 0
BBX 16 16 0 -2
BITMAP
0000
0000
0012
0012
0012
0012
0012
0012
7FD2
0412
0412
04F2
0412
0412
0412
0412
ENDCHAR
STARTCHAR U+315F
ENCODING 12639
SWIDTH 960 0
DWIDTH 16 0
BBX 16 16 0 -2
BITMAP
0000
0000
0004
0004
0004
0004
0004
0004
7FF4
0204
0204
0204
0204
0204
0204
0204
ENDCHAR
STARTCHAR U+3160
ENCODING 12640
SWIDTH 960 0
DWIDTH 16 0
BBX 16 16 0 -2
BITMAP
0000
0000
0000
0000
0000
0000
0000
0000
7FFF
0220
0220
0220
0220
0220
0220
0220
ENDCHAR
STARTCHAR U+3161
ENCODING 12641
SWIDTH 960 0
DWIDTH 16 0
BBX 16 16 0 -2
BITMAP
0000
0000
0000
0000
0000
0000
0000
0000
7FFF
0000
0000
0000
0000
0000
0000
0000
ENDCHAR
STARTCHAR U+3162
ENCODING 12642
SWIDTH 960 0
DWIDTH 16 0
BBX 16 16 0 -2
BITMAP
0000
0000
0004
0004
0004
0004
0004
0004
0004
0004
0004
0004
0004
7FF4
0004
0004
ENDCHAR
STARTCHAR U+3163
ENCODING 12643
SWIDTH 960 0
DWIDTH 16 0
BBX 16 16 0 -2
BITMAP
0000
0000
0080
0080
0080
0080
0080
0080
0080
0080
0080
0080
0080
0080
0080
0080
ENDCHAR
STARTCHAR U+3165
ENCODING 12645
SWIDTH 960 0
DWIDTH 16 0
BBX 16 16 0 -2
BITMAP
0000
0000
0000
0000
1040
1040
1040
1040
1040
1040
1040
1040
0F3C
0000
0000
0000
ENDCHAR
STARTCHAR U+3166
ENCODING 12646
SWIDTH 960 0
DWIDTH 16 0
BBX 16 16 0 -2
BITMAP
0000
0000
0000
0000
107C
1040
1040
1040
1040
1040
1040
1040
0F3C
0000
0000
0000
ENDCHAR
STARTCHAR U+3167
ENCODING 12647
SWIDTH 960 0
DWIDTH 16 0
BBX 16 16 0 -2
BITMAP
0000
0000
0000
0000
1010
1010
1010
1010
1028
1028
1044
1044
0F82
0000
0000
0000
ENDCHAR
STARTCHAR U+3168
ENCODING 12648
SWIDTH 960 0
DWIDTH 16 0
BBX 16 16 0 -2
BITMAP
0000
0000
0000
0000
1010
1010
1010
1028
1028
1044
1044
1082
0FFE
0000
0000
0000
ENDCHAR
STARTCHAR U+3169
ENCODING 12649
SWIDTH 960 0
DWIDTH 16 0
BBX 16 16 0 -2
BITMAP
0000
0000
0000
0000
7BC4
0844
0844
0844
704A
404A
404A
4051
3851
0000
0000
0000
ENDCHAR
STARTCHAR U+316A
ENCODING 12650
SWIDTH 960 0
DWIDTH 16 0
BBX 16 16 0 -2
BITMAP
0000
0000
0000
0000
1F7C
0140
0140
0140
1F40
1040
1040
1040
0F3C
0000
0000
0000
ENDCHAR
STARTCHAR U+316B
ENCODING 12651
SWIDTH 960 0
DWIDTH 16 0
BBX 16 16 0 -2
BITMAP
0000
0000
0000
0000
7A44
0A44
0A44
0A44
73CA
424A
424A
4251
39D1
0000
0000
0000
ENDCHAR
STARTCHAR U+316C
ENCODING 12652
SWIDTH 960 0
DWIDTH 16 0
BBX 16 16 0 -2
BITMAP
0000
0000
0000
0000
1F10
0110
0110
0128
1E28
1044
1044
1082
0FFE
0000
0000
0000
ENDCHAR
STARTCHAR U+316D
ENCODING 12653
SWIDTH 960 0
DWIDTH 16 0
BBX 16 16 0 -2
BITMAP
0000
0000
0000
0000
1F38
0100
01FE
0100
1E38
1044
1044
1044
0F38
0000
0000
0000
ENDCHAR
STARTCHAR U+316E
ENCODING 12654
SWIDTH 960 0
DWIDTH 16 0
BBX 16 16 0 -2
BITMAP
0000
0000
0000
0000
1F44
1144
1144
1144
117C
1144
1144
1144
0F3C
0000
0000
0000
ENDCHAR
STARTCHAR U+316F
ENCODING 12655
SWIDTH 960 0
DWIDTH 16 0
BBX 16 16 0 -2
BITMAP
0000
0000
0000
0000
1F10
1110
1110
1110
1128
1128
1144
1144
0F82
0000
0000
0000
ENDCHAR
STARTCHAR U+3170
ENCODING 12656
SWIDTH 960 0
DWIDTH 16 0
BBX 16 16 0 -2
BITMAP
0000
0000
0000
0000
1F10
1110
1110
1128
1128
1144
1144
1182
0FFE
0000
0000
0000
ENDCHAR
STARTCHAR U+3171
ENCODING 12657
SWIDTH 960 0
DWIDTH 16 0
BBX 16 16 0 -2
BITMAP
0000
0000
0000
0FF8
0808
0808
0808
07F8
0000
07F0
0808
0808
0808
07F0
0000
0000
ENDCHAR
STARTCHAR U+3172
ENCODING 12658
SWIDTH 960 0
DWIDTH 16 0
BBX 16 16 0 -2
BITMAP
0000
0000
0000
0000
117C
1104
1104
1104
1F04
1104
1104
1104
0F04
0000
0000
0000
ENDCHAR
STARTCHAR U+3173
ENCODING 12659
SWIDTH 960 0
DWIDTH 16 0
BBX 16 16 0 -2
BITMAP
0000
0000
0000
0000
117C
1140
1140
1140
1F40
1140
1140
1140
0F3C
0000
0000
0000
ENDCHAR
STARTCHAR U+3174
ENCODING 12660
SWIDTH 960 0
DWIDTH 16 0
BBX 16 16 0 -2
BITMAP
0000
0000
0000
0000
225E
2242
2242
2242
3EA2
22A2
22A2
2312
1F12
0000
0000
0000
ENDCHAR
STARTCHAR U+3175
ENCODING 12661
SWIDTH 960 0
DWIDTH 16 0
BBX 16 16 0 -2
BITMAP
0000
0000
0000
0000
249E
2490
2490
2490
3D50
2550
2550
2630
1E2E
0000
0000
0000
ENDCHAR
STARTCHAR U+3176
ENCODING 12662
SWIDTH 960 0
DWIDTH 16 0
BBX 16 16 0 -2
BITMAP
0000
0000
0000
0000
117C
1110
1110
1110
1F28
1128
1144
1144
0F82
0000
0000
0000
ENDCHAR
STARTCHAR U+3177
ENCODING 12663
SWIDTH 960 0
DWIDTH 16 0
BBX 16 16 0 -2
BITMAP
0000
0000
0000
0000
117C
1140
1140
1140
1F7C
1140
1140
1140
0F3C
0000
0000
0000
ENDCHAR
STARTCHAR U+3178
ENCODING 12664
SWIDTH 960 0
DWIDTH 16 0
BBX 16 16 0 -2
BITMAP
0000
0000
0000
0808
0808
0FF8
0808
07F8
0000
07F0
0808
0808
0808
07F0
0000
0000
ENDCHAR
STARTCHAR U+3179
ENCODING 12665
SWIDTH 960 0
DWIDTH 16 0
BBX 16 16 0 -2
BITMAP
0000
0000
0000
1144
1144
1F7C
1144
0F3C
0000
07F0
0808
0808
0808
07F0
0000
0000
ENDCHAR
STARTCHAR U+317A
ENCODING 12666
SWIDTH 960 0
DWIDTH 16 0
BBX 16 16 0 -2
BITMAP
0000
0000
0000
0000
047C
0404
0404
0404
0A04
0A04
1104
1104
2084
0000
0000
0000
ENDCHAR
STARTCHAR U+317B
ENCODING 12667
SWIDTH 960 0
DWIDTH 16 0
BBX 16 16 0 -2
BITMAP
0000
0000
0000
0000
0440
0440
0440
0440
0A40
0A40
1140
1140
20BC
0000
0000
0000
ENDCHAR
STARTCHAR U+317C
ENCODING 12668
SWIDTH 960 0
DWIDTH 16 0
BBX 16 16 0 -2
BITMAP
0000
0000
0000
0000
047C
0440
0440
0440
0A40
0A40
1140
1140
20BC
0000
0000
0000
ENDCHAR
STARTCHAR U+317D
ENCODING 12669
SWIDTH 960 0
DWIDTH 16 0
BBX 16 16 0 -2
BITMAP
0000
0000
0000
0000
0444
0444
0444
0444
0A7C
0A44
1144
1144
20BC
0000
0000
0000
ENDCHAR
STARTCHAR U+317E
ENCODING 12670
SWIDTH 960 0
DWIDTH 16 0
BBX 16 16 0 -2
BITMAP
0000
0000
0000
0000
04FE
0410
0410
0410
0A28
0A28
1144
1144
2082
0000
0000
0000
ENDCHAR
STARTCHAR U+317F
ENCODING 12671
SWIDTH 960 0
DWIDTH 16 0
BBX 16 16 0 -2
BITMAP
0000
0000
0000
0000
0080
0080
0140
0140
0220
0410
0410
0808
0FF8
0000
0000
0000
ENDCHAR
STARTCHAR U+3180
ENCODING 12672
SWIDTH 960 0
DWIDTH 16 0
BBX 16 16 0 -2
BITMAP
0000
0000
0000
0000
0E38
1144
1144
1144
1144
1144
1144
1144
0E38
0000
0000
0000
ENDCHAR
STARTCHAR U+3181
ENCODING 12673
SWIDTH 960 0
DWIDTH 16 0
BBX 16 16 0 -2
BITMAP
0000
0000
0000
0000
0080
0080
03E0
0410
0808
0808
0808
0410
03E0
0000
0000
0000
ENDCHAR
STARTCHAR U+3182
ENCODING 12674
SWIDTH 960 0
DWIDTH 16 0
BBX 16 16 0 -2
BITMAP
0000
0000
0000
0000
0410
0410
0E10
1110
1128
1128
1144
1144
0E82
0000
0000
0000
ENDCHAR
STARTCHAR U+3183
ENCODING 12675
SWIDTH 960 0
DWIDTH 16 0
BBX 16 16 0 -2
BITMAP
0000
0000
0000
0000
0410
0410
0E28
1128
1128
1144
1144
1182
0EFE
0000
0000
0000
ENDCHAR
STARTCHAR U+3184
ENCODING 12676
SWIDTH 960 0
DWIDTH 16 0
BBX 16 16 0 -2
BITMAP
0000
0000
0000
1FFC
0410
0410
0410
1FFC
0000
07F0
0808
0808
0808
07F0
0000
0000
ENDCHAR
STARTCHAR U+3185
ENCODING 12677
SWIDTH 960 0
DWIDTH 16 0
BBX 16 16 0 -2
BITMAP
0000
0000
0000
0000
0E38
0000
3FFE
0000
0E38
1144
1144
1144
0E38
0000
0000
0000
ENDCHAR
STARTCHAR U+3186
ENCODING 12678
SWIDTH 960 0
DWIDTH 16 0
BBX 16 16 0 -2
BITMAP
0000
0000
0000
0000
0FF8
0000
01C0
0220
0410
0410
0410
0220
01C0
0000
0000
0000
ENDCHAR
STARTCHAR U+3187
ENCODING 12679
SWIDTH 960 0
DWIDTH 16 0
BBX 16 16 0 -2
BITMAP
0000
0000
0004
0004
0004
0004
0007
0004
0004
0904
0907
0904
0904
7FF4
0004
0004
ENDCHAR
STARTCHAR U+3188
ENCODING 12680
SWIDTH 960 0
DWIDTH 16 0
BBX 16 16 0 -2
BITMAP
0000
0000
0012
0012
0012
0012
001E
0012
0012
1212
121E
1212
1212
7FD2
0012
0012
ENDCHAR
STARTCHAR U+3189
ENCODING 12681
SWIDTH 960 0
DWIDTH 16 0
BBX 16 16 0 -2
BITMAP
0000
0000
0004
0004
0004
0004
0004
0004
0004
0904
0904
0904
0904
7FF4
0004
0004
ENDCHAR
STARTCHAR U+318A
ENCODING 12682
SWIDTH 960 0
DWIDTH 16 0
BBX 16 16 0 -2
BITMAP
0000
0000
0004
0004
0004
0004
0004
0004
0004
7FF4
0904
0904
0904
0904
0904
0904
ENDCHAR
STARTCHAR U+318B
ENCODING 12683
SWIDTH 960 0
DWIDTH 16 0
BBX 16 16 0 -2
BITMAP
0000
0000
0012
0012
0012
0012
0012
0012
0012
7FD2
1212
12F2
1212
12F2
1212
1212
ENDCHAR
STARTCHAR U+318C
ENCODING 12684
SWIDTH 960 0
DWIDTH 16 0
BBX 16 16 0 -2
BITMAP
0000
0000
0004
0004
0004
0004
0004
0004
0004
7FF4
0904
0904
0904
0904
0904
0904
ENDCHAR
STARTCHAR U+318D
ENCODING 12685
SWIDTH 960 0
DWIDTH 16 0
BBX 16 16 0 -2
BITMAP
0000
0000
0000
0000
0000
0000
0000
0000
0000
0000
0000
0000
0180
0180
0000
0000
ENDCHAR
STARTCHAR U+318E
ENCODING 12686
SWIDTH 960 0
DWIDTH 16 0
BBX 16 16 0 -2
BITMAP
0000
0000
0004
0004
0004
0004
0004
0004
0004
0004
0004
0004
0304
0304
0004
0004
ENDCHAR
STARTCHAR U+A960
ENCODING 43360
SWIDTH 960 0
DWIDTH 16 0
BBX 16 16 0 -2
BITMAP
0000
0000
0000
0000
1F7C
1044
1044
1044
1044
1044
1044
1044
0F3C
0000
0000
0000
ENDCHAR
STARTCHAR U+A961
ENCODING 43361
SWIDTH 960 0
DWIDTH 16 0
BBX 16 16 0 -2
BITMAP
0000
0000
0000
0000
1F44
1044
1044
1044
107C
1044
1044
1044
0F3C
0000
0000
0000
ENDCHAR
STARTCHAR U+A962
ENCODING 43362
SWIDTH 960 0
DWIDTH 16 0
BBX 16 16 0 -2
BITMAP
0000
0000
0000
0000
1F10
1010
1010
1010
1028
1028
1044
1044
0F82
0000
0000
0000
ENDCHAR
STARTCHAR U+A963
ENCODING 43363
SWIDTH 960 0
DWIDTH 16 0
BBX 16 16 0 -2
BITMAP
0000
0000
0000
0000
1F7E
1010
1010
1010
1028
1028
1044
1044
0F82
0000
0000
0000
ENDCHAR
STARTCHAR U+A964
ENCODING 43364
SWIDTH 960 0
DWIDTH 16 0
BBX 16 16 0 -2
BITMAP
0000
0000
0000
0000
1F7C
0104
0104
0104
1E04
1004
1004
1004
0F04
0000
0000
0000
ENDCHAR
STARTCHAR U+A965
ENCODING 43365
SWIDTH 960 0
DWIDTH 16 0
BBX 16 16 0 -2
BITMAP
0000
0000
0000
0000
7BDE
0842
0842
0842
7042
4042
4042
4042
3842
0000
0000
0000
ENDCHAR
STARTCHAR U+A966
ENCODING 43366
SWIDTH 960 0
DWIDTH 16 0
BBX 16 16 0 -2
BITMAP
0000
0000
0000
0000
1F7C
0140
0140
0140
1E40
1040
1040
1040
0F3C
0000
0000
0000
ENDCHAR
STARTCHAR U+A967
ENCODING 43367
SWIDTH 960 0
DWIDTH 16 0
BBX 16 16 0 -2
BITMAP
0000
0000
0000
0000
7BDE
0A10
0A10
0A10
7210
4210
4210
4210
39CE
0000
0000
0000
ENDCHAR
STARTCHAR U+A968
ENCODING 43368
SWIDTH 960 0
DWIDTH 16 0
BBX 16 16 0 -2
BITMAP
0000
0000
0000
0000
1F7C
0144
0144
0144
1E44
1044
1044
1044
0F3C
0000
0000
0000
ENDCHAR
STARTCHAR U+A969
ENCODING 43369
SWIDTH 960 0
DWIDTH 16 0
BBX 16 16 0 -2
BITMAP
0000
0000
0000
0000
1F44
0144
0144
0144
1E7C
1044
1044
1044
0F3C
0000
0000
0000
ENDCHAR
STARTCHAR U+A96A
ENCODING 43370
SWIDTH 960 0
DWIDTH 16 0
BBX 16 16 0 -2
BITMAP
0000
0000
0000
0000
7A52
0A52
0A52
0A52
73DE
4252
4252
4252
39CE
0000
0000
0000
ENDCHAR
STARTCHAR U+A96B
ENCODING 43371
SWIDTH 960 0
DWIDTH 16 0
BBX 16 16 0 -2
BITMAP
0000
0000
0000
0044
1F44
017C
0144
013C
1F00
1038
1044
1044
0F44
0038
0000
0000
ENDCHAR
STARTCHAR U+A96C
ENCODING 43372
SWIDTH 960 0
DWIDTH 16 0
BBX 16 16 0 -2
BITMAP
0000
0000
0000
0000
1F10
0110
0110
0110
1E28
1028
1044
1044
0F82
0000
0000
0000
ENDCHAR
STARTCHAR U+A96D
ENCODING 43373
SWIDTH 960 0
DWIDTH 16 0
BBX 16 16 0 -2
BITMAP
0000
0000
0000
0000
1F7E
0110
0110
0110
1E28
1028
1044
1044
0F82
0000
0000
0000
ENDCHAR
STARTCHAR U+A96E
ENCODING 43374
SWIDTH 960 0
DWIDTH 16 0
BBX 16 16 0 -2
BITMAP
0000
0000
0000
0000
1F7C
0104
0104
0104
1E7C
1004
1004
1004
0F04
0000
0000
0000
ENDCHAR
STARTCHAR U+A96F
ENCODING 43375
SWIDTH 960 0
DWIDTH 16 0
BBX 16 16 0 -2
BITMAP
0000
0000
0000
0000
1F7C
1104
1104
1104
1104
1104
1104
1104
0F04
0000
0000
0000
ENDCHAR
STARTCHAR U+A970
ENCODING 43376
SWIDTH 960 0
DWIDTH 16 0
BBX 16 16 0 -2
BITMAP
0000
0000
0000
0000
1F7C
1140
1140
1140
1140
1140
1140
1140
0F3C
0000
0000
0000
ENDCHAR
STARTCHAR U+A971
ENCODING 43377
SWIDTH 960 0
DWIDTH 16 0
BBX 16 16 0 -2
BITMAP
0000
0000
0000
0000
1F10
1110
1110
1110
1128
1128
1144
1144
0F82
0000
0000
0000
ENDCHAR
STARTCHAR U+A972
ENCODING 43378
SWIDTH 960 0
DWIDTH 16 0
BBX 16 16 0 -2
BITMAP
0000
0000
0000
0000
249E
2490
2490
2490
3D5E
2550
2550
2630
1E2E
0000
0000
0000
ENDCHAR
STARTCHAR U+A973
ENCODING 43379
SWIDTH 960 0
DWIDTH 16 0
BBX 16 16 0 -2
BITMAP
0000
0000
0000
0000
117C
1104
1104
1104
1F7C
1104
1104
1104
0F04
0000
0000
0000
ENDCHAR
STARTCHAR U+A974
ENCODING 43380
SWIDTH 960 0
DWIDTH 16 0
BBX 16 16 0 -2
BITMAP
0000
0000
0000
0000
1138
1100
11FE
1100
1F38
1144
1144
1144
0F38
0000
0000
0000
ENDCHAR
STARTCHAR U+A975
ENCODING 43381
SWIDTH 960 0
DWIDTH 16 0
BBX 16 16 0 -2
BITMAP
0000
0000
0000
0000
0892
0892
0892
0892
155E
1552
1552
2232
222E
0000
0000
0000
ENDCHAR
STARTCHAR U+A976
ENCODING 43382
SWIDTH 960 0
DWIDTH 16 0
BBX 16 16 0 -2
BITMAP
0000
0000
0000
0000
0E7C
1104
1104
1104
1178
1140
1140
1140
0E3C
0000
0000
0000
ENDCHAR
STARTCHAR U+A977
ENCODING 43383
SWIDTH 960 0
DWIDTH 16 0
BBX 16 16 0 -2
BITMAP
0000
0000
0000
0000
0E38
1100
11FE
1100
1138
1144
1144
1144
0E38
0000
0000
0000
ENDCHAR
STARTCHAR U+A978
ENCODING 43384
SWIDTH 960 0
DWIDTH 16 0
BBX 16 16 0 -2
BITMAP
0000
0000
0000
0000
7FCC
1100
113F
1100
2A8C
2A92
2A92
4452
444C
0000
0000
0000
ENDCHAR
STARTCHAR U+A979
ENCODING 43385
SWIDTH 960 0
DWIDTH 16 0
BBX 16 16 0 -2
BITMAP
0000
0000
0000
0000
1F7C
1040
1040
1040
1E78
1040
1040
1040
0F3C
0000
0000
0000
ENDCHAR
STARTCHAR U+A97A
ENCODING 43386
SWIDTH 960 0
DWIDTH 16 0
BBX 16 16 0 -2
BITMAP
0000
0000
0000
0000
3F38
0000
12FE
1200
1238
1244
1244
1244
3F38
0000
0000
0000
ENDCHAR
STARTCHAR U+A97B
ENCODING 43387
SWIDTH 960 0
DWIDTH 16 0
BBX 16 16 0 -2
BITMAP
0000
0000
0000
0000
0E10
0010
3F90
0010
0E28
1128
1144
1144
0E82
0000
0000
0000
ENDCHAR
STARTCHAR U+A97C
ENCODING 43388
SWIDTH 960 0
DWIDTH 16 0
BBX 16 16 0 -2
BITMAP
0000
0000
0000
0000
0E38
0000
3FFE
0000
0E38
1144
1144
1144
0E38
0000
0000
0000
ENDCHAR
STARTCHAR U+D7B0
ENCODING 55216
SWIDTH 960 0
DWIDTH 16 0
BBX 16 16 0 -2
BITMAP
0000
0000
0004
0004
0004
0004
003C
0004
0004
003C
0204
0204
0204
7FF4
0004
0004
ENDCHAR
STARTCHAR U+D7B1
ENCODING 55217
SWIDTH 960 0
DWIDTH 16 0
BBX 16 16 0 -2
BITMAP
0000
0000
0000
0000
0000
0080
0080
7FFF
0000
0080
0080
7FFF
0000
0080
0080
0080
ENDCHAR
STARTCHAR U+D7B2
ENCODING 55218
SWIDTH 960 0
DWIDTH 16 0
BBX 16 16 0 -2
BITMAP
0000
0000
0004
0004
0004
0004
0004
0004
0007
0004
0884
0884
0884
7FF4
0004
0004
ENDCHAR
STARTCHAR U+D7B3
ENCODING 55219
SWIDTH 960 0
DWIDTH 16 0
BBX 16 16 0 -2
BITMAP
0000
0000
0012
0012
0012
0012
0012
0012
001E
0012
1112
1112
1112
7FD2
0012
0012
ENDCHAR
STARTCHAR U+D7B4
ENCODING 55220
SWIDTH 960 0
DWIDTH 16 0
BBX 16 16 0 -2
BITMAP
0000
0000
0004
0004
0004
0004
0004
0004
003C
0004
0884
0884
0884
7FF4
0004
0004
ENDCHAR
STARTCHAR U+D7B5
ENCODING 55221
SWIDTH 960 0
DWIDTH 16 0
BBX 16 16 0 -2
BITMAP
0000
0000
0004
0004
0004
0004
0004
0004
0004
7FF4
0204
023C
0204
0204
023C
0204
ENDCHAR
STARTCHAR U+D7B6
ENCODING 55222
SWIDTH 960 0
DWIDTH 16 0
BBX 16 16 0 -2
BITMAP
0000
0000
0002
0012
0012
0012
0012
0012
7FD2
0412
0412
0412
0412
0412
0412
0002
ENDCHAR
STARTCHAR U+D7B7
ENCODING 55223
SWIDTH 960 0
DWIDTH 16 0
BBX 16 16 0 -2
BITMAP
0000
0000
0012
0012
0012
0012
0012
001E
7FD2
1112
1112
1112
1112
1112
1112
1112
ENDCHAR
STARTCHAR U+D7B8
ENCODING 55224
SWIDTH 960 0
DWIDTH 16 0
BBX 16 16 0 -2
BITMAP
0000
0000
0000
0000
0000
0000
0000
7FFF
0220
0220
02A0
0080
0080
7FFF
0000
0000
ENDCHAR
STARTCHAR U+D7B9
ENCODING 55225
SWIDTH 960 0
DWIDTH 16 0
BBX 16 16 0 -2
BITMAP
0000
0000
0004
0004
0004
0004
0004
0004
0007
0004
0004
0004
0004
7FF4
0004
0004
ENDCHAR
STARTCHAR U+D7BA
ENCODING 55226
SWIDTH 960 0
DWIDTH 16 0
BBX 16 16 0 -2
BITMAP
0000
0000
0004
0004
0004
0004
0004
0004
001C
0004
0004
0004
0004
7FF4
0004
0004
ENDCHAR
STARTCHAR U+D7BB
ENCODING 55227
SWIDTH 960 0
DWIDTH 16 0
BBX 16 16 0 -2
BITMAP
0000
0000
0012
0012
0012
0012
0012
0012
00F2
0012
0012
0012
0012
7FD2
0012
0012
ENDCHAR
STARTCHAR U+D7BC
ENCODING 55228
SWIDTH 960 0
DWIDTH 16 0
BBX 16 16 0 -2
BITMAP
0000
0000
0000
0000
0000
0000
0000
0000
7FFF
0000
0080
0080
0080
7FFF
0000
0000
ENDCHAR
STARTCHAR U+D7BD
ENCODING 55229
SWIDTH 960 0
DWIDTH 16 0
BBX 16 16 0 -2
BITMAP
0000
0000
0004
0024
0027
0024
0024
0027
0024
0024
0084
0080
0080
7FFF
0000
0000
ENDCHAR
STARTCHAR U+D7BE
ENCODING 55230
SWIDTH 960 0
DWIDTH 16 0
BBX 16 16 0 -2
BITMAP
0000
0000
0048
0448
0448
0448
0478
0448
0448
0448
0478
0448
0448
0448
0448
0048
ENDCHAR
STARTCHAR U+D7BF
ENCODING 55231
SWIDTH 960 0
DWIDTH 16 0
BBX 16 16 0 -2
BITMAP
0000
0000
0010
0410
0410
0410
04F0
0410
0410
0410
04F0
0410
0410
0410
0410
0010
ENDCHAR
STARTCHAR U+D7C0
ENCODING 55232
SWIDTH 960 0
DWIDTH 16 0
BBX 16 16 0 -2
BITMAP
0000
0000
0048
0848
0848
0848
09C8
0848
0848
0848
09C8
0848
0848
0848
0848
0048
ENDCHAR
STARTCHAR U+D7C1
ENCODING 55233
SWIDTH 960 0
DWIDTH 16 0
BBX 16 16 0 -2
BITMAP
0000
0000
0008
0008
0008
0008
0008
0008
0088
0080
0080
7FFF
0000
0080
0080
0080
ENDCHAR
STARTCHAR U+D7C2
ENCODING 55234
SWIDTH 960 0
DWIDTH 16 0
BBX 16 16 0 -2
BITMAP
0000
0000
0008
0008
0008
0008
0008
0008
0008
0008
0220
0220
0220
7FFF
0000
0000
ENDCHAR
STARTCHAR U+D7C3
ENCODING 55235
SWIDTH 960 0
DWIDTH 16 0
BBX 16 16 0 -2
BITMAP
0000
0000
0008
0008
0008
0008
0008
0008
0008
0008
0000
0000
7FFF
0220
0220
0220
ENDCHAR
STARTCHAR U+D7C4
ENCODING 55236
SWIDTH 960 0
DWIDTH 16 0
BBX 16 16 0 -2
BITMAP
0000
0000
0020
0220
0220
0220
0220
0220
0220
0220
0220
0220
0220
0220
0220
0020
ENDCHAR
STARTCHAR U+D7C5
ENCODING 55237
SWIDTH 960 0
DWIDTH 16 0
BBX 16 16 0 -2
BITMAP
0000
0000
0004
0004
0004
0004
0004
0004
0007
0004
0004
0004
0304
0304
0004
0004
ENDCHAR
STARTCHAR U+D7C6
ENCODING 55238
SWIDTH 960 0
DWIDTH 16 0
BBX 16 16 0 -2
BITMAP
0000
0000
0024
0024
0024
0024
0024
0024
01E4
0024
0024
0024
1824
1824
0024
0024
ENDCHAR
STARTCHAR U+D7CB
ENCODING 55243
SWIDTH 960 0
DWIDTH 16 0
BBX 16 16 0 -2
BITMAP
0000
0000
0000
0000
107C
1004
1004
1004
1078
1040
1040
1040
0F3C
0000
0000
0000
ENDCHAR
STARTCHAR U+D7CC
ENCODING 55244
SWIDTH 960 0
DWIDTH 16 0
BBX 16 16 0 -2
BITMAP
0000
0000
0000
0000
1038
1000
10FE
1010
1028
1028
1044
1044
0F82
0000
0000
0000
ENDCHAR
STARTCHAR U+D7CD
ENCODING 55245
SWIDTH 960 0
DWIDTH 16 0
BBX 16 16 0 -2
BITMAP
0000
0000
0000
0000
1F7C
1040
1040
1040
1040
1040
1040
1040
0F3C
0000
0000
0000
ENDCHAR
STARTCHAR U+D7CE
ENCODING 55246
SWIDTH 960 0
DWIDTH 16 0
BBX 16 16 0 -2
BITMAP
0000
0000
0000
0000
7BD2
4212
4212
4212
421E
4212
4212
4212
39CE
0000
0000
0000
ENDCHAR
STARTCHAR U+D7CF
ENCODING 55247
SWIDTH 960 0
DWIDTH 16 0
BBX 16 16 0 -2
BITMAP
0000
0000
0000
0000
1F44
1044
1044
1044
107C
1044
1044
1044
0F3C
0000
0000
0000
ENDCHAR
STARTCHAR U+D7D0
ENCODING 55248
SWIDTH 960 0
DWIDTH 16 0
BBX 16 16 0 -2
BITMAP
0000
0000
0000
0000
1F10
1010
1010
1010
1028
1028
1044
1044
0F82
0000
0000
0000
ENDCHAR
STARTCHAR U+D7D1
ENCODING 55249
SWIDTH 960 0
DWIDTH 16 0
BBX 16 16 0 -2
BITMAP
0000
0000
0000
0000
3C9E
2082
2082
2082
2142
2142
2142
2222
1E22
0000
0000
0000
ENDCHAR
STARTCHAR U+D7D2
ENCODING 55250
SWIDTH 960 0
DWIDTH 16 0
BBX 16 16 0 -2
BITMAP
0000
0000
0000
0000
1F7E
1010
1010
1010
1028
1028
1044
1044
0F82
0000
0000
0000
ENDCHAR
STARTCHAR U+D7D3
ENCODING 55251
SWIDTH 960 0
DWIDTH 16 0
BBX 16 16 0 -2
BITMAP
0000
0000
0000
0000
1F38
1000
10FE
1010
1010
1028
1028
1044
0F82
0000
0000
0000
ENDCHAR
STARTCHAR U+D7D4
ENCODING 55252
SWIDTH 960 0
DWIDTH 16 0
BBX 16 16 0 -2
BITMAP
0000
0000
0000
0000
1F7C
1040
1040
1040
1078
1040
1040
1040
0F3C
0000
0000
0000
ENDCHAR
STARTCHAR U+D7D5
ENCODING 55253
SWIDTH 960 0
DWIDTH 16 0
BBX 16 16 0 -2
BITMAP
0000
0000
0000
0000
7BDE
0842
0842
0842
7042
4042
4042
4042
3842
0000
0000
0000
ENDCHAR
STARTCHAR U+D7D6
ENCODING 55254
SWIDTH 960 0
DWIDTH 16 0
BBX 16 16 0 -2
BITMAP
0000
0000
0000
0000
7BCC
0840
087F
0840
704C
4052
4052
4052
384C
0000
0000
0000
ENDCHAR
STARTCHAR U+D7D7
ENCODING 55255
SWIDTH 960 0
DWIDTH 16 0
BBX 16 16 0 -2
BITMAP
0000
0000
0000
0000
7BDE
0842
0842
0842
739E
4202
4202
4202
39C2
0000
0000
0000
ENDCHAR
STARTCHAR U+D7D8
ENCODING 55256
SWIDTH 960 0
DWIDTH 16 0
BBX 16 16 0 -2
BITMAP
0000
0000
0000
0000
7BCC
0A40
0A7F
0A40
724C
4252
4252
4252
39CC
0000
0000
0000
ENDCHAR
STARTCHAR U+D7D9
ENCODING 55257
SWIDTH 960 0
DWIDTH 16 0
BBX 16 16 0 -2
BITMAP
0000
0000
0000
0000
7A5E
0A50
0A50
0A50
73D0
4250
4250
4250
39CE
0000
0000
0000
ENDCHAR
STARTCHAR U+D7DA
ENCODING 55258
SWIDTH 960 0
DWIDTH 16 0
BBX 16 16 0 -2
BITMAP
0000
0000
0000
0000
7A5F
0A40
0A4A
0A4A
73CA
424A
424A
424A
39DF
0000
0000
0000
ENDCHAR
STARTCHAR U+D7DB
ENCODING 55259
SWIDTH 960 0
DWIDTH 16 0
BBX 16 16 0 -2
BITMAP
0000
0000
0000
0000
1F10
0110
0138
0144
1E44
1044
1044
1044
0F38
0000
0000
0000
ENDCHAR
STARTCHAR U+D7DC
ENCODING 55260
SWIDTH 960 0
DWIDTH 16 0
BBX 16 16 0 -2
BITMAP
0000
0000
0000
0000
7FEC
0800
09BF
0A40
724C
4252
4252
4252
398C
0000
0000
0000
ENDCHAR
STARTCHAR U+D7DD
ENCODING 55261
SWIDTH 960 0
DWIDTH 16 0
BBX 16 16 0 -2
BITMAP
0000
0000
0000
0FF8
0008
0FF0
0800
07F8
0000
07F0
0808
0808
0808
07F0
0000
0000
ENDCHAR
STARTCHAR U+D7DE
ENCODING 55262
SWIDTH 960 0
DWIDTH 16 0
BBX 16 16 0 -2
BITMAP
0000
0000
0000
0000
1F40
1140
1140
1140
1140
1140
1140
1140
0F3C
0000
0000
0000
ENDCHAR
STARTCHAR U+D7DF
ENCODING 55263
SWIDTH 960 0
DWIDTH 16 0
BBX 16 16 0 -2
BITMAP
0000
0000
0000
0000
7A10
4A10
4A10
4A10
4A10
4A10
4A10
4A10
39CE
0000
0000
0000
ENDCHAR
STARTCHAR U+D7E0
ENCODING 55264
SWIDTH 960 0
DWIDTH 16 0
BBX 16 16 0 -2
BITMAP
0000
0000
0000
0000
1F7C
1144
1144
1144
1144
1144
1144
1144
0F3C
0000
0000
0000
ENDCHAR
STARTCHAR U+D7E1
ENCODING 55265
SWIDTH 960 0
DWIDTH 16 0
BBX 16 16 0 -2
BITMAP
0000
0000
0000
0000
7A44
4A44
4A44
4A44
4BCA
4A4A
4A4A
4A51
39D1
0000
0000
0000
ENDCHAR
STARTCHAR U+D7E2
ENCODING 55266
SWIDTH 960 0
DWIDTH 16 0
BBX 16 16 0 -2
BITMAP
0000
0000
0000
0000
1F7E
1110
1110
1110
1110
1128
1128
1144
0F82
0000
0000
0000
ENDCHAR
STARTCHAR U+D7E3
ENCODING 55267
SWIDTH 960 0
DWIDTH 16 0
BBX 16 16 0 -2
BITMAP
0000
0000
0000
0000
117C
1140
1140
1140
1F40
1140
1140
1140
0F3C
0000
0000
0000
ENDCHAR
STARTCHAR U+D7E4
ENCODING 55268
SWIDTH 960 0
DWIDTH 16 0
BBX 16 16 0 -2
BITMAP
0000
0000
0000
0000
4BDF
4840
484A
484A
7B8A
4A0A
4A0A
4A0A
39DF
0000
0000
0000
ENDCHAR
STARTCHAR U+D7E5
ENCODING 55269
SWIDTH 960 0
DWIDTH 16 0
BBX 16 16 0 -2
BITMAP
0000
0000
0000
0000
117C
1144
1144
1144
1F44
1144
1144
1144
0F3C
0000
0000
0000
ENDCHAR
STARTCHAR U+D7E6
ENCODING 55270
SWIDTH 960 0
DWIDTH 16 0
BBX 16 16 0 -2
BITMAP
0000
0000
0000
0000
1144
1144
1144
1144
1F7C
1144
1144
1144
0F3C
0000
0000
0000
ENDCHAR
STARTCHAR U+D7E7
ENCODING 55271
SWIDTH 960 0
DWIDTH 16 0
BBX 16 16 0 -2
BITMAP
0000
0000
0000
0000
249E
2490
2490
2490
3D50
2550
2550
2630
1E2E
0000
0000
0000
ENDCHAR
STARTCHAR U+D7E8
ENCODING 55272
SWIDTH 960 0
DWIDTH 16 0
BBX 16 16 0 -2
BITMAP
0000
0000
0000
0000
117E
1110
1110
1110
1F28
1128
1144
1144
0F82
0000
0000
0000
ENDCHAR
STARTCHAR U+D7E9
ENCODING 55273
SWIDTH 960 0
DWIDTH 16 0
BBX 16 16 0 -2
BITMAP
0000
0000
0000
0000
1138
1100
11FE
1110
1F10
1128
1128
1144
0F82
0000
0000
0000
ENDCHAR
STARTCHAR U+D7EA
ENCODING 55274
SWIDTH 960 0
DWIDTH 16 0
BBX 16 16 0 -2
BITMAP
0000
0000
0000
0000
047C
0444
0444
0444
0A44
0A44
1144
1144
20BC
0000
0000
0000
ENDCHAR
STARTCHAR U+D7EB
ENCODING 55275
SWIDTH 960 0
DWIDTH 16 0
BBX 16 16 0 -2
BITMAP
0000
0000
0000
0044
0444
047C
0444
043C
0A00
0A38
1144
1144
20C4
0038
0000
0000
ENDCHAR
STARTCHAR U+D7EC
ENCODING 55276
SWIDTH 960 0
DWIDTH 16 0
BBX 16 16 0 -2
BITMAP
0000
0000
0000
0000
089E
0882
0882
0882
1542
1542
1542
2222
2222
0000
0000
0000
ENDCHAR
STARTCHAR U+D7ED
ENCODING 55277
SWIDTH 960 0
DWIDTH 16 0
BBX 16 16 0 -2
BITMAP
0000
0000
0000
0000
089E
0890
0890
0890
1550
1550
1550
2230
222E
0000
0000
0000
ENDCHAR
STARTCHAR U+D7EE
ENCODING 55278
SWIDTH 960 0
DWIDTH 16 0
BBX 16 16 0 -2
BITMAP
0000
0000
0000
0000
0410
0410
0428
0428
0A28
0A44
1144
1182
20FE
0000
0000
0000
ENDCHAR
STARTCHAR U+D7EF
ENCODING 55279
SWIDTH 960 0
DWIDTH 16 0
BBX 16 16 0 -2
BITMAP
0000
0000
0000
0000
04FE
0410
0410
0410
0A28
0A28
1144
1144
2082
0000
0000
0000
ENDCHAR
STARTCHAR U+D7F0
ENCODING 55280
SWIDTH 960 0
DWIDTH 16 0
BBX 16 16 0 -2
BITMAP
0000
0000
0000
0000
0438
0400
04FE
0410
0A10
0A28
1128
1144
2082
0000
0000
0000
ENDCHAR
STARTCHAR U+D7F1
ENCODING 55281
SWIDTH 960 0
DWIDTH 16 0
BBX 16 16 0 -2
BITMAP
0000
0000
0000
0000
047C
0440
0440
0440
0A78
0A40
1140
1140
20BC
0000
0000
0000
ENDCHAR
STARTCHAR U+D7F2
ENCODING 55282
SWIDTH 960 0
DWIDTH 16 0
BBX 16 16 0 -2
BITMAP
0000
0000
0000
0000
0438
0400
04FE
0400
0A38
0A44
1144
1144
20B8
0000
0000
0000
ENDCHAR
STARTCHAR U+D7F3
ENCODING 55283
SWIDTH 960 0
DWIDTH 16 0
BBX 16 16 0 -2
BITMAP
0000
0000
0000
0000
0444
0444
0A44
0A44
0A7C
1144
1144
20C4
3FBC
0000
0000
0000
ENDCHAR
STARTCHAR U+D7F4
ENCODING 55284
SWIDTH 960 0
DWIDTH 16 0
BBX 16 16 0 -2
BITMAP
0000
0000
0000
0044
0444
047C
0A44
0A3C
0A00
1138
1144
20C4
3FC4
0038
0000
0000
ENDCHAR
STARTCHAR U+D7F5
ENCODING 55285
SWIDTH 960 0
DWIDTH 16 0
BBX 16 16 0 -2
BITMAP
0000
0000
0000
0000
047C
0444
0E44
1144
1144
1144
1144
1144
0E3C
0000
0000
0000
ENDCHAR
STARTCHAR U+D7F6
ENCODING 55286
SWIDTH 960 0
DWIDTH 16 0
BBX 16 16 0 -2
BITMAP
0000
0000
0000
0000
0438
0400
0EFE
1100
1138
1144
1144
1144
0E38
0000
0000
0000
ENDCHAR
STARTCHAR U+D7F7
ENCODING 55287
SWIDTH 960 0
DWIDTH 16 0
BBX 16 16 0 -2
BITMAP
0000
0000
0000
0000
1F44
0444
0444
0444
0A7C
0A44
1144
1144
20BC
0000
0000
0000
ENDCHAR
STARTCHAR U+D7F8
ENCODING 55288
SWIDTH 960 0
DWIDTH 16 0
BBX 16 16 0 -2
BITMAP
0000
0000
0000
0000
7E52
1252
1252
1252
2BDE
2A52
2A52
4652
45CE
0000
0000
0000
ENDCHAR
STARTCHAR U+D7F9
ENCODING 55289
SWIDTH 960 0
DWIDTH 16 0
BBX 16 16 0 -2
BITMAP
0000
0000
0000
0000
3FFE
0410
0410
0410
0A28
0A28
1144
1144
2082
0000
0000
0000
ENDCHAR
STARTCHAR U+D7FA
ENCODING 55290
SWIDTH 960 0
DWIDTH 16 0
BBX 16 16 0 -2
BITMAP
0000
0000
0000
0000
3F38
0000
12FE
1200
1238
1244
1244
1244
3F38
0000
0000
0000
ENDCHAR
STARTCHAR U+D7FB
ENCODING 55291
SWIDTH 960 0
DWIDTH 16 0
BBX 16 16 0 -2
BITMAP
0000
0000
0000
0000
3F7C
0040
1240
1240
1278
1240
1240
1240
3F3C
0000
0000
0000
ENDCHAR
STARTCHAR U+F100
ENCODING 61696
SWIDTH 960 0
DWIDTH 16 0
BBX 16 16 0 -2
BITMAP
0000
0000
0000
0000
0000
0000
0000
0000
0000
0000
0000
0000
0000
0000
0000
0000
ENDCHAR
STARTCHAR U+F101
ENCODING 61697
SWIDTH 960 0
DWIDTH 16 0
BBX 16 16 0 -2
BITMAP
0000
0000
0000
0000
0FF8
0008
0008
0008
0008
0008
0008
0008
0008
0000
0000
0000
ENDCHAR
STARTCHAR U+F102
ENCODING 61698
SWIDTH 960 0
DWIDTH 16 0
BBX 16 16 0 -2
BITMAP
0000
0000
0000
0000
1F7C
0104
0104
0104
0104
0104
0104
0104
0104
0000
0000
0000
ENDCHAR
STARTCHAR U+F103
ENCODING 61699
SWIDTH 960 0
DWIDTH 16 0
BBX 16 16 0 -2
BITMAP
0000
0000
0000
0000
1F10
0110
0110
0110
0128
0128
0144
0144
0182
0000
0000
0000
ENDCHAR
STARTCHAR U+F104
ENCODING 61700
SWIDTH 960 0
DWIDTH 16 0
BBX 16 16 0 -2
BITMAP
0000
0000
0000
0000
0800
0800
0800
0800
0800
0800
0800
0800
07F8
0000
0000
0000
ENDCHAR
STARTCHAR U+F105
ENCODING 61701
SWIDTH 960 0
DWIDTH 16 0
BBX 16 16 0 -2
BITMAP
0000
0000
0000
0000
10FE
1010
1010
1010
1028
1028
1044
1044
0F82
0000
0000
0000
ENDCHAR
STARTCHAR U+F106
ENCODING 61702
SWIDTH 960 0
DWIDTH 16 0
BBX 16 16 0 -2
BITMAP
0000
0000
0000
0000
1038
1000
10FE
1000
1038
1044
1044
1044
0F38
0000
0000
0000
ENDCHAR
STARTCHAR U+F107
ENCODING 61703
SWIDTH 960 0
DWIDTH 16 0
BBX 16 16 0 -2
BITMAP
0000
0000
0000
0000
0FF8
0800
0800
0800
0800
0800
0800
0800
07F8
0000
0000
0000
ENDCHAR
STARTCHAR U+F108
ENCODING 61704
SWIDTH 960 0
DWIDTH 16 0
BBX 16 16 0 -2
BITMAP
0000
0000
0000
0000
1F7C
1040
1040
1040
1040
1040
1040
1040
0F3C
0000
0000
0000
ENDCHAR
STARTCHAR U+F109
ENCODING 61705
SWIDTH 960 0
DWIDTH 16 0
BBX 16 16 0 -2
BITMAP
0000
0000
0000
0000
0FF8
0008
0008
0008
0FF0
0800
0800
0800
07F8
0000
0000
0000
ENDCHAR
STARTCHAR U+F10A
ENCODING 61706
SWIDTH 960 0
DWIDTH 16 0
BBX 16 16 0 -2
BITMAP
0000
0000
0000
0000
1F7C
0104
0104
0104
1E04
1004
1004
1004
0F04
0000
0000
0000
ENDCHAR
STARTCHAR U+F10B
ENCODING 61707
SWIDTH 960 0
DWIDTH 16 0
BBX 16 16 0 -2
BITMAP
0000
0000
0000
0000
1F7C
0144
0144
0144
1E44
1044
1044
1044
0F3C
0000
0000
0000
ENDCHAR
STARTCHAR U+F10C
ENCODING 61708
SWIDTH 960 0
DWIDTH 16 0
BBX 16 16 0 -2
BITMAP
0000
0000
0000
0000
1F44
0144
0144
0144
1E7C
1044
1044
1044
0F3C
0000
0000
0000
ENDCHAR
STARTCHAR U+F10D
ENCODING 61709
SWIDTH 960 0
DWIDTH 16 0
BBX 16 16 0 -2
BITMAP
0000
0000
0000
0000
1F10
0110
0110
0110
1E28
1028
1044
1044
0F82
0000
0000
0000
ENDCHAR
STARTCHAR U+F10E
ENCODING 61710
SWIDTH 960 0
DWIDTH 16 0
BBX 16 16 0 -2
BITMAP
0000
0000
0000
0000
1F7C
0140
0140
0140
1E78
1040
1040
1040
0FBC
0000
0000
0000
ENDCHAR
STARTCHAR U+F10F
ENCODING 61711
SWIDTH 960 0
DWIDTH 16 0
BBX 16 16 0 -2
BITMAP
0000
0000
0000
0000
1F7E
0100
0124
0124
1E24
1024
1024
1024
0F7E
0000
0000
0000
ENDCHAR
STARTCHAR U+F110
ENCODING 61712
SWIDTH 960 0
DWIDTH 16 0
BBX 16 16 0 -2
BITMAP
0000
0000
0000
0000
1F38
0100
01FE
0100
1E38
1044
1044
1044
0F38
0000
0000
0000
ENDCHAR
STARTCHAR U+F111
ENCODING 61713
SWIDTH 960 0
DWIDTH 16 0
BBX 16 16 0 -2
BITMAP
0000
0000
0000
0000
0FF8
0808
0808
0808
0808
0808
0808
0808
07F8
0000
0000
0000
ENDCHAR
STARTCHAR U+F112
ENCODING 61714
SWIDTH 960 0
DWIDTH 16 0
BBX 16 16 0 -2
BITMAP
0000
0000
0000
0000
0808
0808
0808
0808
0FF8
0808
0808
0808
07F8
0000
0000
0000
ENDCHAR
STARTCHAR U+F113
ENCODING 61715
SWIDTH 960 0
DWIDTH 16 0
BBX 16 16 0 -2
BITMAP
0000
0000
0000
0000
1144
1144
1144
1144
1F7C
1144
1144
1144
0F3C
0000
0000
0000
ENDCHAR
STARTCHAR U+F114
ENCODING 61716
SWIDTH 960 0
DWIDTH 16 0
BBX 16 16 0 -2
BITMAP
0000
0000
0000
0000
1110
1110
1110
1110
1F28
1128
1144
1144
0F82
0000
0000
0000
ENDCHAR
STARTCHAR U+F115
ENCODING 61717
SWIDTH 960 0
DWIDTH 16 0
BBX 16 16 0 -2
BITMAP
0000
0000
0000
0000
0080
0080
0080
0140
0140
0220
0220
0410
0808
0000
0000
0000
ENDCHAR
STARTCHAR U+F116
ENCODING 61718
SWIDTH 960 0
DWIDTH 16 0
BBX 16 16 0 -2
BITMAP
0000
0000
0000
0000
0410
0410
0410
0410
0A28
0A28
1144
1144
2082
0000
0000
0000
ENDCHAR
STARTCHAR U+F117
ENCODING 61719
SWIDTH 960 0
DWIDTH 16 0
BBX 16 16 0 -2
BITMAP
0000
0000
0000
0000
03E0
0410
0808
0808
0808
0808
0808
0410
03E0
0000
0000
0000
ENDCHAR
STARTCHAR U+F118
ENCODING 61720
SWIDTH 960 0
DWIDTH 16 0
BBX 16 16 0 -2
BITMAP
0000
0000
0000
0000
0FF8
0080
0080
0140
0140
0220
0220
0410
0808
0000
0000
0000
ENDCHAR
STARTCHAR U+F119
ENCODING 61721
SWIDTH 960 0
DWIDTH 16 0
BBX 16 16 0 -2
BITMAP
0000
0000
0000
0000
3FFE
0410
0410
0410
0A28
0A28
1144
1144
2082
0000
0000
0000
ENDCHAR
STARTCHAR U+F11A
ENCODING 61722
SWIDTH 960 0
DWIDTH 16 0
BBX 16 16 0 -2
BITMAP
0000
0000
0000
0000
03E0
0000
0FF8
0080
0080
0140
0220
0410
0808
0000
0000
0000
ENDCHAR
STARTCHAR U+F11B
ENCODING 61723
SWIDTH 960 0
DWIDTH 16 0
BBX 16 16 0 -2
BITMAP
0000
0000
0000
0000
0FF8
0008
0008
0008
0FF8
0008
0008
0008
0008
0000
0000
0000
ENDCHAR
STARTCHAR U+F11C
ENCODING 61724
SWIDTH 960 0
DWIDTH 16 0
BBX 16 16 0 -2
BITMAP
0000
0000
0000
0000
0FF8
0800
0800
0800
0FF8
0800
0800
0800
07F8
0000
0000
0000
ENDCHAR
STARTCHAR U+F11D
ENCODING 61725
SWIDTH 960 0
DWIDTH 16 0
BBX 16 16 0 -2
BITMAP
0000
0000
0000
0000
0FF8
0220
0220
0220
0220
0220
0220
0220
0FF8
0000
0000
0000
ENDCHAR
STARTCHAR U+F11E
ENCODING 61726
SWIDTH 960 0
DWIDTH 16 0
BBX 16 16 0 -2
BITMAP
0000
0000
0000
0000
03E0
0000
0FF8
0000
03E0
0410
0410
0410
03E0
0000
0000
0000
ENDCHAR
STARTCHAR U+F11F
ENCODING 61727
SWIDTH 960 0
DWIDTH 16 0
BBX 16 16 0 -2
BITMAP
0000
0000
0080
0080
0080
0080
0080
0080
00F0
0080
0080
0080
0080
0080
0080
0080
ENDCHAR
STARTCHAR U+F120
ENCODING 61728
SWIDTH 960 0
DWIDTH 16 0
BBX 16 16 0 -2
BITMAP
0000
0000
0220
0220
0220
0220
0220
0220
03E0
0220
0220
0220
0220
0220
0220
0220
ENDCHAR
STARTCHAR U+F121
ENCODING 61729
SWIDTH 960 0
DWIDTH 16 0
BBX 16 16 0 -2
BITMAP
0000
0000
0080
0080
0080
0080
00F0
0080
0080
0080
00F0
0080
0080
0080
0080
0080
ENDCHAR
STARTCHAR U+F122
ENCODING 61730
SWIDTH 960 0
DWIDTH 16 0
BBX 16 16 0 -2
BITMAP
0000
0000
0220
0220
0220
0220
03E0
0220
0220
0220
03E0
0220
0220
0220
0220
0220
ENDCHAR
STARTCHAR U+F123
ENCODING 61731
SWIDTH 960 0
DWIDTH 16 0
BBX 16 16 0 -2
BITMAP
0000
0000
0080
0080
0080
0080
0080
0080
0780
0080
0080
0080
0080
0080
0080
0080
ENDCHAR
STARTCHAR U+F124
ENCODING 61732
SWIDTH 960 0
DWIDTH 16 0
BBX 16 16 0 -2
BITMAP
0000
0000
0120
0120
0120
0120
0120
0120
0F20
0120
0120
0120
0120
0120
0120
0120
ENDCHAR
STARTCHAR U+F125
ENCODING 61733
SWIDTH 960 0
DWIDTH 16 0
BBX 16 16 0 -2
BITMAP
0000
0000
0080
0080
0080
0080
0780
0080
0080
0080
0780
0080
0080
0080
0080
0080
ENDCHAR
STARTCHAR U+F126
ENCODING 61734
SWIDTH 960 0
DWIDTH 16 0
BBX 16 16 0 -2
BITMAP
0000
0000
0120
0120
0120
0120
0F20
0120
0120
0120
0F20
0120
0120
0120
0120
0120
ENDCHAR
STARTCHAR U+F127
ENCODING 61735
SWIDTH 960 0
DWIDTH 16 0
BBX 16 16 0 -2
BITMAP
0000
0000
0000
0000
0000
0000
0000
0000
0000
0000
0080
0080
0080
7FFF
0000
0000
ENDCHAR
STARTCHAR U+F128
ENCODING 61736
SWIDTH 960 0
DWIDTH 16 0
BBX 16 16 0 -2
BITMAP
0000
0000
0004
0004
0004
0004
0004
0004
0007
0004
0204
0204
0204
7FF4
0004
0004
ENDCHAR
STARTCHAR U+F129
ENCODING 61737
SWIDTH 960 0
DWIDTH 16 0
BBX 16 16 0 -2
BITMAP
0000
0000
0012
0012
0012
0012
0012
0012
001E
0012
0412
0412
0412
7FD2
0012
0012
ENDCHAR
STARTCHAR U+F12A
ENCODING 61738
SWIDTH 960 0
DWIDTH 16 0
BBX 16 16 0 -2
BITMAP
0000
0000
0004
0004
0004
0004
0004
0004
0004
0004
0204
0204
0204
7FF4
0004
0004
ENDCHAR
STARTCHAR U+F12B
ENCODING 61739
SWIDTH 960 0
DWIDTH 16 0
BBX 16 16 0 -2
BITMAP
0000
0000
0000
0000
0000
0000
0000
0000
0000
0000
0220
0220
0220
7FFF
0000
0000
ENDCHAR
STARTCHAR U+F12C
ENCODING 61740
SWIDTH 960 0
DWIDTH 16 0
BBX 16 16 0 -2
BITMAP
0000
0000
0000
0000
0000
0000
0000
0000
7FFF
0080
0080
0080
0080
0080
0080
0080
ENDCHAR
STARTCHAR U+F12D
ENCODING 61741
SWIDTH 960 0
DWIDTH 16 0
BBX 16 16 0 -2
BITMAP
0000
0000
0004
0004
0004
0004
0004
0004
7FF4
0204
0204
023C
0204
0204
0204
0204
ENDCHAR
STARTCHAR U+F12E
ENCODING 61742
SWIDTH 960 0
DWIDTH 16 0
BBX 16 16 0 -2
BITMAP
0000
0000
0012
0012
0012
0012
0012
0012
7FD2
0412
0412
04F2
0412
0412
0412
0412
ENDCHAR
STARTCHAR U+F12F
ENCODING 61743
SWIDTH 960 0
DWIDTH 16 0
BBX 16 16 0 -2
BITMAP
0000
0000
0004
0004
0004
0004
0004
0004
7FF4
0204
0204
0204
0204
0204
0204
0204
ENDCHAR
STARTCHAR U+F130
ENCODING 61744
SWIDTH 960 0
DWIDTH 16 0
BBX 16 16 0 -2
BITMAP
0000
0000
0000
0000
0000
0000
0000
0000
7FFF
0220
0220
0220
0220
0220
0220
0220
ENDCHAR
STARTCHAR U+F131
ENCODING 61745
SWIDTH 960 0
DWIDTH 16 0
BBX 16 16 0 -2
BITMAP
0000
0000
0000
0000
0000
0000
0000
0000
7FFF
0000
0000
0000
0000
0000
0000
0000
ENDCHAR
STARTCHAR U+F132
ENCODING 61746
SWIDTH 960 0
DWIDTH 16 0
BBX 16 16 0 -2
BITMAP
0000
0000
0004
0004
0004
0004
0004
0004
0004
0004
0004
0004
0004
7FF4
0004
0004
ENDCHAR
STARTCHAR U+F133
ENCODING 61747
SWIDTH 960 0
DWIDTH 16 0
BBX 16 16 0 -2
BITMAP
0000
0000
0080
0080
0080
0080
0080
0080
0080
0080
0080
0080
0080
0080
0080
0080
ENDCHAR
STARTCHAR U+F134
ENCODING 61748
SWIDTH 960 0
DWIDTH 16 0
BBX 16 16 0 -2
BITMAP
0000
0000
0000
3F80
0080
0080
0080
0080
0100
0100
0200
0C00
3000
0000
0000
0000
ENDCHAR
STARTCHAR U+F135
ENCODING 61749
SWIDTH 960 0
DWIDTH 16 0
BBX 16 16 0 -2
BITMAP
0000
0000
0000
3F80
0480
0480
0480
0480
0480
0900
0900
1200
2400
0000
0000
0000
ENDCHAR
STARTCHAR U+F136
ENCODING 61750
SWIDTH 960 0
DWIDTH 16 0
BBX 16 16 0 -2
BITMAP
0000
0000
0000
2000
2000
2000
2000
2000
2000
2000
2000
2000
1F80
0000
0000
0000
ENDCHAR
STARTCHAR U+F137
ENCODING 61751
SWIDTH 960 0
DWIDTH 16 0
BBX 16 16 0 -2
BITMAP
0000
0000
0000
3F80
2000
2000
2000
2000
2000
2000
2000
2000
1F80
0000
0000
0000
ENDCHAR
STARTCHAR U+F138
ENCODING 61752
SWIDTH 960 0
DWIDTH 16 0
BBX 16 16 0 -2
BITMAP
0000
0000
0000
3B80
2200
2200
2200
2200
2200
2200
2200
2200
1980
0000
0000
0000
ENDCHAR
STARTCHAR U+F139
ENCODING 61753
SWIDTH 960 0
DWIDTH 16 0
BBX 16 16 0 -2
BITMAP
0000
0000
0000
3F80
0080
0080
0080
3F00
2000
2000
2000
2000
1F80
0000
0000
0000
ENDCHAR
STARTCHAR U+F13A
ENCODING 61754
SWIDTH 960 0
DWIDTH 16 0
BBX 16 16 0 -2
BITMAP
0000
0000
0000
3F80
2080
2080
2080
2080
2080
2080
2080
2080
1F80
0000
0000
0000
ENDCHAR
STARTCHAR U+F13B
ENCODING 61755
SWIDTH 960 0
DWIDTH 16 0
BBX 16 16 0 -2
BITMAP
0000
0000
0000
2080
2080
2080
2080
3F80
2080
2080
2080
2080
1F80
0000
0000
0000
ENDCHAR
STARTCHAR U+F13C
ENCODING 61756
SWIDTH 960 0
DWIDTH 16 0
BBX 16 16 0 -2
BITMAP
0000
0000
0000
2480
2480
2480
2480
3F80
2480
2480
2480
2480
1F80
0000
0000
0000
ENDCHAR
STARTCHAR U+F13D
ENCODING 61757
SWIDTH 960 0
DWIDTH 16 0
BBX 16 16 0 -2
BITMAP
0000
0000
0000
0400
0400
0400
0400
0A00
0A00
0A00
1100
1100
2080
0000
0000
0000
ENDCHAR
STARTCHAR U+F13E
ENCODING 61758
SWIDTH 960 0
DWIDTH 16 0
BBX 16 16 0 -2
BITMAP
0000
0000
0000
1100
1100
1100
1100
1100
1100
2A80
2A80
2A80
4440
0000
0000
0000
ENDCHAR
STARTCHAR U+F13F
ENCODING 61759
SWIDTH 960 0
DWIDTH 16 0
BBX 16 16 0 -2
BITMAP
0000
0000
0000
0E00
1100
2080
2080
2080
2080
2080
2080
1100
0E00
0000
0000
0000
ENDCHAR
STARTCHAR U+F140
ENCODING 61760
SWIDTH 960 0
DWIDTH 16 0
BBX 16 16 0 -2
BITMAP
0000
0000
0000
3F80
0400
0400
0400
0A00
0A00
0A00
1100
1100
2080
0000
0000
0000
ENDCHAR
STARTCHAR U+F141
ENCODING 61761
SWIDTH 960 0
DWIDTH 16 0
BBX 16 16 0 -2
BITMAP
0000
0000
0000
7FC0
1100
1100
1100
1100
1100
2A80
2A80
2A80
4440
0000
0000
0000
ENDCHAR
STARTCHAR U+F142
ENCODING 61762
SWIDTH 960 0
DWIDTH 16 0
BBX 16 16 0 -2
BITMAP
0000
0000
0000
1F00
0000
3F80
0400
0400
0A00
0A00
1100
1100
2080
0000
0000
0000
ENDCHAR
STARTCHAR U+F143
ENCODING 61763
SWIDTH 960 0
DWIDTH 16 0
BBX 16 16 0 -2
BITMAP
0000
0000
0000
3F80
0080
0080
0380
3C80
0100
0100
0200
0C00
3000
0000
0000
0000
ENDCHAR
STARTCHAR U+F144
ENCODING 61764
SWIDTH 960 0
DWIDTH 16 0
BBX 16 16 0 -2
BITMAP
0000
0000
0000
3F80
2000
2000
2000
3F00
2000
2000
2000
2000
1F80
0000
0000
0000
ENDCHAR
STARTCHAR U+F145
ENCODING 61765
SWIDTH 960 0
DWIDTH 16 0
BBX 16 16 0 -2
BITMAP
0000
0000
0000
3F80
0000
1100
1100
1100
1100
1100
1100
1100
3F80
0000
0000
0000
ENDCHAR
STARTCHAR U+F146
ENCODING 61766
SWIDTH 960 0
DWIDTH 16 0
BBX 16 16 0 -2
BITMAP
0000
0000
0000
0F00
0000
3FC0
0000
0F00
1080
1080
1080
1080
0F00
0000
0000
0000
ENDCHAR
STARTCHAR U+F147
ENCODING 61767
SWIDTH 960 0
DWIDTH 16 0
BBX 16 16 0 -2
BITMAP
0000
0000
0000
3F80
0080
0080
0080
0080
0080
0080
0080
0000
0000
0000
0000
0000
ENDCHAR
STARTCHAR U+F148
ENCODING 61768
SWIDTH 960 0
DWIDTH 16 0
BBX 16 16 0 -2
BITMAP
0000
0000
0000
7FC0
0440
0440
0440
0840
0880
1080
2100
0000
0000
0000
0000
0000
ENDCHAR
STARTCHAR U+F149
ENCODING 61769
SWIDTH 960 0
DWIDTH 16 0
BBX 16 16 0 -2
BITMAP
0000
0000
0000
2000
2000
2000
2000
2000
2000
1F80
0000
0000
0000
0000
0000
0000
ENDCHAR
STARTCHAR U+F14A
ENCODING 61770
SWIDTH 960 0
DWIDTH 16 0
BBX 16 16 0 -2
BITMAP
0000
0000
0000
3F80
2000
2000
2000
2000
2000
1F80
0000
0000
0000
0000
0000
0000
ENDCHAR
STARTCHAR U+F14B
ENCODING 61771
SWIDTH 960 0
DWIDTH 16 0
BBX 16 16 0 -2
BITMAP
0000
0000
0000
3B80
2200
2200
2200
2200
2200
1980
0000
0000
0000
0000
0000
0000
ENDCHAR
STARTCHAR U+F14C
ENCODING 61772
SWIDTH 960 0
DWIDTH 16 0
BBX 16 16 0 -2
BITMAP
0000
0000
0000
3F80
0080
0080
3F00
2000
2000
1F80
0000
0000
0000
0000
0000
0000
ENDCHAR
STARTCHAR U+F14D
ENCODING 61773
SWIDTH 960 0
DWIDTH 16 0
BBX 16 16 0 -2
BITMAP
0000
0000
0000
3F80
2080
2080
2080
2080
2080
1F80
0000
0000
0000
0000
0000
0000
ENDCHAR
STARTCHAR U+F14E
ENCODING 61774
SWIDTH 960 0
DWIDTH 16 0
BBX 16 16 0 -2
BITMAP
0000
0000
0000
2080
2080
2080
3F80
2080
2080
1F80
0000
0000
0000
0000
0000
0000
ENDCHAR
STARTCHAR U+F14F
ENCODING 61775
SWIDTH 960 0
DWIDTH 16 0
BBX 16 16 0 -2
BITMAP
0000
0000
0000
2480
2480
2480
3F80
2480
2480
1F80
0000
0000
0000
0000
0000
0000
ENDCHAR
STARTCHAR U+F150
ENCODING 61776
SWIDTH 960 0
DWIDTH 16 0
BBX 16 16 0 -2
BITMAP
0000
0000
0000
0400
0400
0400
0A00
0A00
1100
2080
0000
0000
0000
0000
0000
0000
ENDCHAR
STARTCHAR U+F151
ENCODING 61777
SWIDTH 960 0
DWIDTH 16 0
BBX 16 16 0 -2
BITMAP
0000
0000
0000
1100
1100
1100
1100
2A80
2A80
4440
0000
0000
0000
0000
0000
0000
ENDCHAR
STARTCHAR U+F152
ENCODING 61778
SWIDTH 960 0
DWIDTH 16 0
BBX 16 16 0 -2
BITMAP
0000
0000
0000
0E00
1100
2080
2080
2080
1100
0E00
0000
0000
0000
0000
0000
0000
ENDCHAR
STARTCHAR U+F153
ENCODING 61779
SWIDTH 960 0
DWIDTH 16 0
BBX 16 16 0 -2
BITMAP
0000
0000
0000
3F80
0400
0400
0A00
0A00
1100
2080
0000
0000
0000
0000
0000
0000
ENDCHAR
STARTCHAR U+F154
ENCODING 61780
SWIDTH 960 0
DWIDTH 16 0
BBX 16 16 0 -2
BITMAP
0000
0000
0000
7FC0
1100
1100
1100
2A80
2A80
4440
0000
0000
0000
0000
0000
0000
ENDCHAR
STARTCHAR U+F155
ENCODING 61781
SWIDTH 960 0
DWIDTH 16 0
BBX 16 16 0 -2
BITMAP
0000
0000
0000
1F00
0000
3F80
0400
0A00
1100
2080
0000
0000
0000
0000
0000
0000
ENDCHAR
STARTCHAR U+F156
ENCODING 61782
SWIDTH 960 0
DWIDTH 16 0
BBX 16 16 0 -2
BITMAP
0000
0000
0000
3F80
0080
0080
3F80
0080
0080
0080
0080
0000
0000
0000
0000
0000
ENDCHAR
STARTCHAR U+F157
ENCODING 61783
SWIDTH 960 0
DWIDTH 16 0
BBX 16 16 0 -2
BITMAP
0000
0000
0000
3F80
2000
2000
3F00
2000
2000
1F80
0000
0000
0000
0000
0000
0000
ENDCHAR
STARTCHAR U+F158
ENCODING 61784
SWIDTH 960 0
DWIDTH 16 0
BBX 16 16 0 -2
BITMAP
0000
0000
0000
3F80
0000
1100
1100
1100
1100
3F80
0000
0000
0000
0000
0000
0000
ENDCHAR
STARTCHAR U+F159
ENCODING 61785
SWIDTH 960 0
DWIDTH 16 0
BBX 16 16 0 -2
BITMAP
0000
0000
0000
1F00
0000
7FC0
0000
1F00
2080
2080
1F00
0000
0000
0000
0000
0000
ENDCHAR
STARTCHAR U+F15A
ENCODING 61786
SWIDTH 960 0
DWIDTH 16 0
BBX 16 16 0 -2
BITMAP
0000
0000
0000
1FFC
0004
0004
0004
0004
0004
0004
0004
0000
0000
0000
0000
0000
ENDCHAR
STARTCHAR U+F15B
ENCODING 61787
SWIDTH 960 0
DWIDTH 16 0
BBX 16 16 0 -2
BITMAP
0000
0000
0000
1F7C
0104
0104
0104
0104
0204
0404
0808
0000
0000
0000
0000
0000
ENDCHAR
STARTCHAR U+F15C
ENCODING 61788
SWIDTH 960 0
DWIDTH 16 0
BBX 16 16 0 -2
BITMAP
0000
0000
0000
1000
1000
1000
1000
1000
1000
0FFC
0000
0000
0000
0000
0000
0000
ENDCHAR
STARTCHAR U+F15D
ENCODING 61789
SWIDTH 960 0
DWIDTH 16 0
BBX 16 16 0 -2
BITMAP
0000
0000
0000
1FFC
1000
1000
1000
1000
1000
0FFC
0000
0000
0000
0000
0000
0000
ENDCHAR
STARTCHAR U+F15E
ENCODING 61790
SWIDTH 960 0
DWIDTH 16 0
BBX 16 16 0 -2
BITMAP
0000
0000
0000
1F7C
1040
1040
1040
1040
1040
0F3C
0000
0000
0000
0000
0000
0000
ENDCHAR
STARTCHAR U+F15F
ENCODING 61791
SWIDTH 960 0
DWIDTH 16 0
BBX 16 16 0 -2
BITMAP
0000
0000
0000
1FFC
0004
0004
1FF8
1000
1000
0FFC
0000
0000
0000
0000
0000
0000
ENDCHAR
STARTCHAR U+F160
ENCODING 61792
SWIDTH 960 0
DWIDTH 16 0
BBX 16 16 0 -2
BITMAP
0000
0000
0000
1FFC
1004
1004
1004
1004
1004
0FFC
0000
0000
0000
0000
0000
0000
ENDCHAR
STARTCHAR U+F161
ENCODING 61793
SWIDTH 960 0
DWIDTH 16 0
BBX 16 16 0 -2
BITMAP
0000
0000
0000
1004
1004
1004
1FFC
1004
1004
0FFC
0000
0000
0000
0000
0000
0000
ENDCHAR
STARTCHAR U+F162
ENCODING 61794
SWIDTH 960 0
DWIDTH 16 0
BBX 16 16 0 -2
BITMAP
0000
0000
0000
1144
1144
1144
1F7C
1144
1144
0F3C
0000
0000
0000
0000
0000
0000
ENDCHAR
STARTCHAR U+F163
ENCODING 61795
SWIDTH 960 0
DWIDTH 16 0
BBX 16 16 0 -2
BITMAP
0000
0000
0000
0080
0080
0080
0140
0220
0410
180C
0000
0000
0000
0000
0000
0000
ENDCHAR
STARTCHAR U+F164
ENCODING 61796
SWIDTH 960 0
DWIDTH 16 0
BBX 16 16 0 -2
BITMAP
0000
0000
0000
0410
0410
0410
0410
0A28
0A28
1144
0000
0000
0000
0000
0000
0000
ENDCHAR
STARTCHAR U+F165
ENCODING 61797
SWIDTH 960 0
DWIDTH 16 0
BBX 16 16 0 -2
BITMAP
0000
0000
0000
07F0
0808
1004
1004
1004
0808
07F0
0000
0000
0000
0000
0000
0000
ENDCHAR
STARTCHAR U+F166
ENCODING 61798
SWIDTH 960 0
DWIDTH 16 0
BBX 16 16 0 -2
BITMAP
0000
0000
0000
1FFC
0080
0080
0140
0220
0410
180C
0000
0000
0000
0000
0000
0000
ENDCHAR
STARTCHAR U+F167
ENCODING 61799
SWIDTH 960 0
DWIDTH 16 0
BBX 16 16 0 -2
BITMAP
0000
0000
0000
1F7C
0410
0410
0410
0A28
0A28
1144
0000
0000
0000
0000
0000
0000
ENDCHAR
STARTCHAR U+F168
ENCODING 61800
SWIDTH 960 0
DWIDTH 16 0
BBX 16 16 0 -2
BITMAP
0000
0000
0000
03E0
0000
1FFC
0080
0140
0630
180C
0000
0000
0000
0000
0000
0000
ENDCHAR
STARTCHAR U+F169
ENCODING 61801
SWIDTH 960 0
DWIDTH 16 0
BBX 16 16 0 -2
BITMAP
0000
0000
0000
1FFC
0004
0004
1FFC
0004
0004
0004
0004
0000
0000
0000
0000
0000
ENDCHAR
STARTCHAR U+F16A
ENCODING 61802
SWIDTH 960 0
DWIDTH 16 0
BBX 16 16 0 -2
BITMAP
0000
0000
0000
1FFC
1000
1000
1FF8
1000
1000
0FFC
0000
0000
0000
0000
0000
0000
ENDCHAR
STARTCHAR U+F16B
ENCODING 61803
SWIDTH 960 0
DWIDTH 16 0
BBX 16 16 0 -2
BITMAP
0000
0000
0000
1FFC
0000
0410
0410
0410
0410
1FFC
0000
0000
0000
0000
0000
0000
ENDCHAR
STARTCHAR U+F16C
ENCODING 61804
SWIDTH 960 0
DWIDTH 16 0
BBX 16 16 0 -2
BITMAP
0000
0000
0000
03E0
0000
1FFC
0000
07F0
0808
0808
07F0
0000
0000
0000
0000
0000
ENDCHAR
STARTCHAR U+F16D
ENCODING 61805
SWIDTH 960 0
DWIDTH 16 0
BBX 16 16 0 -2
BITMAP
0000
0000
3F80
0080
0080
0100
0100
0600
3800
0000
0000
0000
0000
0000
0000
0000
ENDCHAR
STARTCHAR U+F16E
ENCODING 61806
SWIDTH 960 0
DWIDTH 16 0
BBX 16 16 0 -2
BITMAP
0000
0000
3F80
0480
0480
0900
0900
1200
2400
0000
0000
0000
0000
0000
0000
0000
ENDCHAR
STARTCHAR U+F16F
ENCODING 61807
SWIDTH 960 0
DWIDTH 16 0
BBX 16 16 0 -2
BITMAP
0000
0000
2000
2000
2000
2000
2000
2000
1F80
0000
0000
0000
0000
0000
0000
0000
ENDCHAR
STARTCHAR U+F170
ENCODING 61808
SWIDTH 960 0
DWIDTH 16 0
BBX 16 16 0 -2
BITMAP
0000
0000
3F80
2000
2000
2000
2000
2000
1F80
0000
0000
0000
0000
0000
0000
0000
ENDCHAR
STARTCHAR U+F171
ENCODING 61809
SWIDTH 960 0
DWIDTH 16 0
BBX 16 16 0 -2
BITMAP
0000
0000
3B80
2200
2200
2200
2200
2200
1980
0000
0000
0000
0000
0000
0000
0000
ENDCHAR
STARTCHAR U+F172
ENCODING 61810
SWIDTH 960 0
DWIDTH 16 0
BBX 16 16 0 -2
BITMAP
0000
0000
3F80
0080
0080
3F00
2000
2000
1F80
0000
0000
0000
0000
0000
0000
0000
ENDCHAR
STARTCHAR U+F173
ENCODING 61811
SWIDTH 960 0
DWIDTH 16 0
BBX 16 16 0 -2
BITMAP
0000
0000
3F80
2080
2080
2080
2080
2080
1F80
0000
0000
0000
0000
0000
0000
0000
ENDCHAR
STARTCHAR U+F174
ENCODING 61812
SWIDTH 960 0
DWIDTH 16 0
BBX 16 16 0 -2
BITMAP
0000
0000
2080
2080
2080
3F80
2080
2080
1F80
0000
0000
0000
0000
0000
0000
0000
ENDCHAR
STARTCHAR U+F175
ENCODING 61813
SWIDTH 960 0
DWIDTH 16 0
BBX 16 16 0 -2
BITMAP
0000
0000
2480
2480
2480
3F80
2480
2480
1F80
0000
0000
0000
0000
0000
0000
0000
ENDCHAR
STARTCHAR U+F176
ENCODING 61814
SWIDTH 960 0
DWIDTH 16 0
BBX 16 16 0 -2
BITMAP
0000
0000
0400
0400
0400
0A00
0A00
1100
2080
0000
0000
0000
0000
0000
0000
0000
ENDCHAR
STARTCHAR U+F177
ENCODING 61815
SWIDTH 960 0
DWIDTH 16 0
BBX 16 16 0 -2
BITMAP
0000
0000
1100
1100
1100
1100
2A80
2A80
4440
0000
0000
0000
0000
0000
0000
0000
ENDCHAR
STARTCHAR U+F178
ENCODING 61816
SWIDTH 960 0
DWIDTH 16 0
BBX 16 16 0 -2
BITMAP
0000
0000
0E00
1100
2080
2080
2080
1100
0E00
0000
0000
0000
0000
0000
0000
0000
ENDCHAR
STARTCHAR U+F179
ENCODING 61817
SWIDTH 960 0
DWIDTH 16 0
BBX 16 16 0 -2
BITMAP
0000
0000
3F80
0400
0400
0A00
0A00
1100
2080
0000
0000
0000
0000
0000
0000
0000
ENDCHAR
STARTCHAR U+F17A
ENCODING 61818
SWIDTH 960 0
DWIDTH 16 0
BBX 16 16 0 -2
BITMAP
0000
0000
7FC0
1100
1100
1100
2A80
2A80
4440
0000
0000
0000
0000
0000
0000
0000
ENDCHAR
STARTCHAR U+F17B
ENCODING 61819
SWIDTH 960 0
DWIDTH 16 0
BBX 16 16 0 -2
BITMAP
0000
0000
1F00
0000
3F80
0400
0A00
1100
2080
0000
0000
0000
0000
0000
0000
0000
ENDCHAR
STARTCHAR U+F17C
ENCODING 61820
SWIDTH 960 0
DWIDTH 16 0
BBX 16 16 0 -2
BITMAP
0000
0000
3F80
0080
0080
3F00
0100
0600
3800
0000
0000
0000
0000
0000
0000
0000
ENDCHAR
STARTCHAR U+F17D
ENCODING 61821
SWIDTH 960 0
DWIDTH 16 0
BBX 16 16 0 -2
BITMAP
0000
0000
3F80
2000
2000
3F00
2000
2000
1F80
0000
0000
0000
0000
0000
0000
0000
ENDCHAR
STARTCHAR U+F17E
ENCODING 61822
SWIDTH 960 0
DWIDTH 16 0
BBX 16 16 0 -2
BITMAP
0000
0000
3F80
0000
1100
1100
1100
1100
3F80
0000
0000
0000
0000
0000
0000
0000
ENDCHAR
STARTCHAR U+F17F
ENCODING 61823
SWIDTH 960 0
DWIDTH 16 0
BBX 16 16 0 -2
BITMAP
0000
0000
0400
7FC0
0000
1F00
2080
2080
1F00
0000
0000
0000
0000
0000
0000
0000
ENDCHAR
STARTCHAR U+F180
ENCODING 61824
SWIDTH 960 0
DWIDTH 16 0
BBX 16 16 0 -2
BITMAP
0000
0000
3F80
0080
0080
0080
0080
0080
0000
0000
0000
0000
0000
0000
0000
0000
ENDCHAR
STARTCHAR U+F181
ENCODING 61825
SWIDTH 960 0
DWIDTH 16 0
BBX 16 16 0 -2
BITMAP
0000
0000
7F80
0880
0880
0880
1100
0000
0000
0000
0000
0000
0000
0000
0000
0000
ENDCHAR
STARTCHAR U+F182
ENCODING 61826
SWIDTH 960 0
DWIDTH 16 0
BBX 16 16 0 -2
BITMAP
0000
0000
2000
2000
2000
2000
1F80
0000
0000
0000
0000
0000
0000
0000
0000
0000
ENDCHAR
STARTCHAR U+F183
ENCODING 61827
SWIDTH 960 0
DWIDTH 16 0
BBX 16 16 0 -2
BITMAP
0000
0000
3F80
2000
2000
2000
1F80
0000
0000
0000
0000
0000
0000
0000
0000
0000
ENDCHAR
STARTCHAR U+F184
ENCODING 61828
SWIDTH 960 0
DWIDTH 16 0
BBX 16 16 0 -2
BITMAP
0000
0000
3B80
2200
2200
2200
1980
0000
0000
0000
0000
0000
0000
0000
0000
0000
ENDCHAR
STARTCHAR U+F185
ENCODING 61829
SWIDTH 960 0
DWIDTH 16 0
BBX 16 16 0 -2
BITMAP
0000
0000
3F80
0080
3F00
2000
1F80
0000
0000
0000
0000
0000
0000
0000
0000
0000
ENDCHAR
STARTCHAR U+F186
ENCODING 61830
SWIDTH 960 0
DWIDTH 16 0
BBX 16 16 0 -2
BITMAP
0000
0000
3F80
2080
2080
2080
1F80
0000
0000
0000
0000
0000
0000
0000
0000
0000
ENDCHAR
STARTCHAR U+F187
ENCODING 61831
SWIDTH 960 0
DWIDTH 16 0
BBX 16 16 0 -2
BITMAP
0000
0000
2080
2080
3F80
2080
1F80
0000
0000
0000
0000
0000
0000
0000
0000
0000
ENDCHAR
STARTCHAR U+F188
ENCODING 61832
SWIDTH 960 0
DWIDTH 16 0
BBX 16 16 0 -2
BITMAP
0000
0000
2480
2480
3F80
2480
1F80
0000
0000
0000
0000
0000
0000
0000
0000
0000
ENDCHAR
STARTCHAR U+F189
ENCODING 61833
SWIDTH 960 0
DWIDTH 16 0
BBX 16 16 0 -2
BITMAP
0000
0000
0400
0400
0A00
1100
2080
0000
0000
0000
0000
0000
0000
0000
0000
0000
ENDCHAR
STARTCHAR U+F18A
ENCODING 61834
SWIDTH 960 0
DWIDTH 16 0
BBX 16 16 0 -2
BITMAP
0000
0000
1100
1100
1100
2A80
4440
0000
0000
0000
0000
0000
0000
0000
0000
0000
ENDCHAR
STARTCHAR U+F18B
ENCODING 61835
SWIDTH 960 0
DWIDTH 16 0
BBX 16 16 0 -2
BITMAP
0000
0000
1F00
2080
2080
2080
1F00
0000
0000
0000
0000
0000
0000
0000
0000
0000
ENDCHAR
STARTCHAR U+F18C
ENCODING 61836
SWIDTH 960 0
DWIDTH 16 0
BBX 16 16 0 -2
BITMAP
0000
0000
3F80
0400
0A00
1100
2080
0000
0000
0000
0000
0000
0000
0000
0000
0000
ENDCHAR
STARTCHAR U+F18D
ENCODING 61837
SWIDTH 960 0
DWIDTH 16 0
BBX 16 16 0 -2
BITMAP
0000
0000
7FC0
1100
1100
2A80
4440
0000
0000
0000
0000
0000
0000
0000
0000
0000
ENDCHAR
STARTCHAR U+F18E
ENCODING 61838
SWIDTH 960 0
DWIDTH 16 0
BBX 16 16 0 -2
BITMAP
0000
0000
0400
3F80
0A00
1100
2080
0000
0000
0000
0000
0000
0000
0000
0000
0000
ENDCHAR
STARTCHAR U+F18F
ENCODING 61839
SWIDTH 960 0
DWIDTH 16 0
BBX 16 16 0 -2
BITMAP
0000
0000
3F80
0080
0080
3F80
0080
0080
0000
0000
0000
0000
0000
0000
0000
0000
ENDCHAR
STARTCHAR U+F190
ENCODING 61840
SWIDTH 960 0
DWIDTH 16 0
BBX 16 16 0 -2
BITMAP
0000
0000
3F80
2000
3F00
2000
1F80
0000
0000
0000
0000
0000
0000
0000
0000
0000
ENDCHAR
STARTCHAR U+F191
ENCODING 61841
SWIDTH 960 0
DWIDTH 16 0
BBX 16 16 0 -2
BITMAP
0000
0000
3F80
1100
1100
1100
3F80
0000
0000
0000
0000
0000
0000
0000
0000
0000
ENDCHAR
STARTCHAR U+F192
ENCODING 61842
SWIDTH 960 0
DWIDTH 16 0
BBX 16 16 0 -2
BITMAP
0000
0000
0400
7FC0
1100
2080
1F00
0000
0000
0000
0000
0000
0000
0000
0000
0000
ENDCHAR
STARTCHAR U+F193
ENCODING 61843
SWIDTH 960 0
DWIDTH 16 0
BBX 16 16 0 -2
BITMAP
0000
0000
1FFC
0004
0004
0004
0004
0004
0000
0000
0000
0000
0000
0000
0000
0000
ENDCHAR
STARTCHAR U+F194
ENCODING 61844
SWIDTH 960 0
DWIDTH 16 0
BBX 16 16 0 -2
BITMAP
0000
0000
1F7C
0104
0104
0204
0408
0000
0000
0000
0000
0000
0000
0000
0000
0000
ENDCHAR
STARTCHAR U+F195
ENCODING 61845
SWIDTH 960 0
DWIDTH 16 0
BBX 16 16 0 -2
BITMAP
0000
0000
1000
1000
1000
1000
0FFC
0000
0000
0000
0000
0000
0000
0000
0000
0000
ENDCHAR
STARTCHAR U+F196
ENCODING 61846
SWIDTH 960 0
DWIDTH 16 0
BBX 16 16 0 -2
BITMAP
0000
0000
1FFC
1000
1000
1000
0FFC
0000
0000
0000
0000
0000
0000
0000
0000
0000
ENDCHAR
STARTCHAR U+F197
ENCODING 61847
SWIDTH 960 0
DWIDTH 16 0
BBX 16 16 0 -2
BITMAP
0000
0000
1F7C
1040
1040
1040
0F3C
0000
0000
0000
0000
0000
0000
0000
0000
0000
ENDCHAR
STARTCHAR U+F198
ENCODING 61848
SWIDTH 960 0
DWIDTH 16 0
BBX 16 16 0 -2
BITMAP
0000
0000
1FFC
0004
1FF8
1000
0FFC
0000
0000
0000
0000
0000
0000
0000
0000
0000
ENDCHAR
STARTCHAR U+F199
ENCODING 61849
SWIDTH 960 0
DWIDTH 16 0
BBX 16 16 0 -2
BITMAP
0000
0000
1FFC
1004
1004
1004
0FFC
0000
0000
0000
0000
0000
0000
0000
0000
0000
ENDCHAR
STARTCHAR U+F19A
ENCODING 61850
SWIDTH 960 0
DWIDTH 16 0
BBX 16 16 0 -2
BITMAP
0000
0000
1004
1004
1FFC
1004
0FFC
0000
0000
0000
0000
0000
0000
0000
0000
0000
ENDCHAR
STARTCHAR U+F19B
ENCODING 61851
SWIDTH 960 0
DWIDTH 16 0
BBX 16 16 0 -2
BITMAP
0000
0000
1144
1144
1F7C
1144
0F3C
0000
0000
0000
0000
0000
0000
0000
0000
0000
ENDCHAR
STARTCHAR U+F19C
ENCODING 61852
SWIDTH 960 0
DWIDTH 16 0
BBX 16 16 0 -2
BITMAP
0000
0000
0080
0080
0140
0630
180C
0000
0000
0000
0000
0000
0000
0000
0000
0000
ENDCHAR
STARTCHAR U+F19D
ENCODING 61853
SWIDTH 960 0
DWIDTH 16 0
BBX 16 16 0 -2
BITMAP
0000
0000
0410
0410
0410
0A28
31C6
0000
0000
0000
0000
0000
0000
0000
0000
0000
ENDCHAR
STARTCHAR U+F19E
ENCODING 61854
SWIDTH 960 0
DWIDTH 16 0
BBX 16 16 0 -2
BITMAP
0000
0000
0FF8
1004
1004
1004
0FF8
0000
0000
0000
0000
0000
0000
0000
0000
0000
ENDCHAR
STARTCHAR U+F19F
ENCODING 61855
SWIDTH 960 0
DWIDTH 16 0
BBX 16 16 0 -2
BITMAP
0000
0000
1FFC
0080
0140
0630
180C
0000
0000
0000
0000
0000
0000
0000
0000
0000
ENDCHAR
STARTCHAR U+F1A0
ENCODING 61856
SWIDTH 960 0
DWIDTH 16 0
BBX 16 16 0 -2
BITMAP
0000
0000
1F7C
0410
0410
0A28
31C6
0000
0000
0000
0000
0000
0000
0000
0000
0000
ENDCHAR
STARTCHAR U+F1A1
ENCODING 61857
SWIDTH 960 0
DWIDTH 16 0
BBX 16 16 0 -2
BITMAP
0000
0000
0080
1FFC
0140
0630
180C
0000
0000
0000
0000
0000
0000
0000
0000
0000
ENDCHAR
STARTCHAR U+F1A2
ENCODING 61858
SWIDTH 960 0
DWIDTH 16 0
BBX 16 16 0 -2
BITMAP
0000
0000
1FFC
0004
0004
1FFC
0004
0004
0000
0000
0000
0000
0000
0000
0000
0000
ENDCHAR
STARTCHAR U+F1A3
ENCODING 61859
SWIDTH 960 0
DWIDTH 16 0
BBX 16 16 0 -2
BITMAP
0000
0000
1FFC
1000
1FF8
1000
0FFC
0000
0000
0000
0000
0000
0000
0000
0000
0000
ENDCHAR
STARTCHAR U+F1A4
ENCODING 61860
SWIDTH 960 0
DWIDTH 16 0
BBX 16 16 0 -2
BITMAP
0000
0000
1FFC
0410
0410
0410
1FFC
0000
0000
0000
0000
0000
0000
0000
0000
0000
ENDCHAR
STARTCHAR U+F1A5
ENCODING 61861
SWIDTH 960 0
DWIDTH 16 0
BBX 16 16 0 -2
BITMAP
0000
0000
0080
1FFC
0410
0808
07F0
0000
0000
0000
0000
0000
0000
0000
0000
0000
ENDCHAR
STARTCHAR U+F1A6
ENCODING 61862
SWIDTH 960 0
DWIDTH 16 0
BBX 16 16 0 -2
BITMAP
0000
0000
0004
0004
0004
0004
0004
0007
0004
0004
0004
0004
0004
0004
0004
0004
ENDCHAR
STARTCHAR U+F1A7
ENCODING 61863
SWIDTH 960 0
DWIDTH 16 0
BBX 16 16 0 -2
BITMAP
0000
0000
0012
0012
0012
0012
0012
001E
0012
0012
0012
0012
0012
0012
0012
0012
ENDCHAR
STARTCHAR U+F1A8
ENCODING 61864
SWIDTH 960 0
DWIDTH 16 0
BBX 16 16 0 -2
BITMAP
0000
0000
0004
0004
0004
0004
0007
0004
0004
0007
0004
0004
0004
0004
0004
0004
ENDCHAR
STARTCHAR U+F1A9
ENCODING 61865
SWIDTH 960 0
DWIDTH 16 0
BBX 16 16 0 -2
BITMAP
0000
0000
0012
0012
0012
0012
001E
0012
0012
001E
0012
0012
0012
0012
0012
0012
ENDCHAR
STARTCHAR U+F1AA
ENCODING 61866
SWIDTH 960 0
DWIDTH 16 0
BBX 16 16 0 -2
BITMAP
0000
0000
0004
0004
0004
0004
0004
003C
0004
0004
0004
0004
0004
0004
0004
0004
ENDCHAR
STARTCHAR U+F1AB
ENCODING 61867
SWIDTH 960 0
DWIDTH 16 0
BBX 16 16 0 -2
BITMAP
0000
0000
0012
0012
0012
0012
0012
0072
0012
0012
0012
0012
0012
0012
0012
0012
ENDCHAR
STARTCHAR U+F1AC
ENCODING 61868
SWIDTH 960 0
DWIDTH 16 0
BBX 16 16 0 -2
BITMAP
0000
0000
0004
0004
0004
0004
003C
0004
0004
003C
0004
0004
0004
0004
0004
0004
ENDCHAR
STARTCHAR U+F1AD
ENCODING 61869
SWIDTH 960 0
DWIDTH 16 0
BBX 16 16 0 -2
BITMAP
0000
0000
0012
0012
0012
0012
0072
0012
0012
0072
0012
0012
0012
0012
0012
0012
ENDCHAR
STARTCHAR U+F1AE
ENCODING 61870
SWIDTH 960 0
DWIDTH 16 0
BBX 16 16 0 -2
BITMAP
0000
0000
0000
0000
0000
0000
0000
0000
0000
0000
0080
0080
0080
7FFF
0000
0000
ENDCHAR
STARTCHAR U+F1AF
ENCODING 61871
SWIDTH 960 0
DWIDTH 16 0
BBX 16 16 0 -2
BITMAP
0000
0000
0004
0004
0004
0004
0004
0007
0004
0004
0404
0404
0404
7FF4
0004
0004
ENDCHAR
STARTCHAR U+F1B0
ENCODING 61872
SWIDTH 960 0
DWIDTH 16 0
BBX 16 16 0 -2
BITMAP
0000
0000
0012
0012
0012
0012
0012
001E
0012
0012
0412
0412
0412
7FD2
0012
0012
ENDCHAR
STARTCHAR U+F1B1
ENCODING 61873
SWIDTH 960 0
DWIDTH 16 0
BBX 16 16 0 -2
BITMAP
0000
0000
0004
0004
0004
0004
0004
0004
0004
0004
0404
0404
0404
7FF4
0004
0004
ENDCHAR
STARTCHAR U+F1B2
ENCODING 61874
SWIDTH 960 0
DWIDTH 16 0
BBX 16 16 0 -2
BITMAP
0000
0000
0000
0000
0000
0000
0000
0000
0000
0000
0220
0220
0220
7FFF
0000
0000
ENDCHAR
STARTCHAR U+F1B3
ENCODING 61875
SWIDTH 960 0
DWIDTH 16 0
BBX 16 16 0 -2
BITMAP
0000
0000
0000
0000
0000
0000
0000
0000
0000
7FFF
0080
0080
0080
0080
0080
0080
ENDCHAR
STARTCHAR U+F1B4
ENCODING 61876
SWIDTH 960 0
DWIDTH 16 0
BBX 16 16 0 -2
BITMAP
0000
0000
0004
0004
0004
0004
0004
0004
0004
7FF4
0404
0404
043C
0404
0404
0404
ENDCHAR
STARTCHAR U+F1B5
ENCODING 61877
SWIDTH 960 0
DWIDTH 16 0
BBX 16 16 0 -2
BITMAP
0000
0000
0012
0012
0012
0012
0012
0012
0012
7FD2
0412
0412
04F2
0412
0412
0412
ENDCHAR
STARTCHAR U+F1B6
ENCODING 61878
SWIDTH 960 0
DWIDTH 16 0
BBX 16 16 0 -2
BITMAP
0000
0000
0004
0004
0004
0004
0004
0004
0004
7FF4
0404
0404
0404
0404
0404
0404
ENDCHAR
STARTCHAR U+F1B7
ENCODING 61879
SWIDTH 960 0
DWIDTH 16 0
BBX 16 16 0 -2
BITMAP
0000
0000
0000
0000
0000
0000
0000
0000
0000
7FFF
0410
0410
0410
0410
0410
0410
ENDCHAR
STARTCHAR U+F1B8
ENCODING 61880
SWIDTH 960 0
DWIDTH 16 0
BBX 16 16 0 -2
BITMAP
0000
0000
0000
0000
0000
0000
0000
0000
0000
0000
0000
0000
0000
7FFF
0000
0000
ENDCHAR
STARTCHAR U+F1B9
ENCODING 61881
SWIDTH 960 0
DWIDTH 16 0
BBX 16 16 0 -2
BITMAP
0000
0000
0004
0004
0004
0004
0004
0004
0004
0004
0004
0004
0004
7FF4
0004
0004
ENDCHAR
STARTCHAR U+F1BA
ENCODING 61882
SWIDTH 960 0
DWIDTH 16 0
BBX 16 16 0 -2
BITMAP
0000
0000
0004
0004
0004
0004
0004
0004
0004
0004
0004
0004
0004
0004
0004
0004
ENDCHAR
STARTCHAR U+F1BB
ENCODING 61883
SWIDTH 960 0
DWIDTH 16 0
BBX 16 16 0 -2
BITMAP
0000
0000
0004
0004
0004
0007
0004
0004
0004
0004
0004
0004
0000
0000
0000
0000
ENDCHAR
STARTCHAR U+F1BC
ENCODING 61884
SWIDTH 960 0
DWIDTH 16 0
BBX 16 16 0 -2
BITMAP
0000
0000
0012
0012
0012
001E
0012
0012
0012
0012
0012
0012
0000
0000
0000
0000
ENDCHAR
STARTCHAR U+F1BD
ENCODING 61885
SWIDTH 960 0
DWIDTH 16 0
BBX 16 16 0 -2
BITMAP
0000
0000
0004
0004
0007
0004
0004
0007
0004
0004
0004
0004
0000
0000
0000
0000
ENDCHAR
STARTCHAR U+F1BE
ENCODING 61886
SWIDTH 960 0
DWIDTH 16 0
BBX 16 16 0 -2
BITMAP
0000
0000
0012
0012
001E
0012
0012
001E
0012
0012
0012
0012
0000
0000
0000
0000
ENDCHAR
STARTCHAR U+F1BF
ENCODING 61887
SWIDTH 960 0
DWIDTH 16 0
BBX 16 16 0 -2
BITMAP
0000
0000
0004
0004
0004
003C
0004
0004
0004
0004
0004
0004
0000
0000
0000
0000
ENDCHAR
STARTCHAR U+F1C0
ENCODING 61888
SWIDTH 960 0
DWIDTH 16 0
BBX 16 16 0 -2
BITMAP
0000
0000
0012
0012
0012
0072
0012
0012
0012
0012
0012
0012
0000
0000
0000
0000
ENDCHAR
STARTCHAR U+F1C1
ENCODING 61889
SWIDTH 960 0
DWIDTH 16 0
BBX 16 16 0 -2
BITMAP
0000
0000
0004
0004
003C
0004
0004
003C
0004
0004
0004
0004
0000
0000
0000
0000
ENDCHAR
STARTCHAR U+F1C2
ENCODING 61890
SWIDTH 960 0
DWIDTH 16 0
BBX 16 16 0 -2
BITMAP
0000
0000
0012
0012
0072
0012
0012
0072
0012
0012
0012
0012
0000
0000
0000
0000
ENDCHAR
STARTCHAR U+F1C3
ENCODING 61891
SWIDTH 960 0
DWIDTH 16 0
BBX 16 16 0 -2
BITMAP
0000
0000
0000
0000
0000
0000
0000
0080
0080
7FFF
0000
0000
0000
0000
0000
0000
ENDCHAR
STARTCHAR U+F1C4
ENCODING 61892
SWIDTH 960 0
DWIDTH 16 0
BBX 16 16 0 -2
BITMAP
0000
0000
0004
0004
0004
0007
0004
0404
0404
7FF4
0004
0004
0000
0000
0000
0000
ENDCHAR
STARTCHAR U+F1C5
ENCODING 61893
SWIDTH 960 0
DWIDTH 16 0
BBX 16 16 0 -2
BITMAP
0000
0000
0012
0012
0012
001E
0012
0412
0412
7FD2
0012
0012
0000
0000
0000
0000
ENDCHAR
STARTCHAR U+F1C6
ENCODING 61894
SWIDTH 960 0
DWIDTH 16 0
BBX 16 16 0 -2
BITMAP
0000
0000
0004
0004
0004
0004
0004
0404
0404
7FF4
0004
0004
0000
0000
0000
0000
ENDCHAR
STARTCHAR U+F1C7
ENCODING 61895
SWIDTH 960 0
DWIDTH 16 0
BBX 16 16 0 -2
BITMAP
0000
0000
0000
0000
0000
0000
0000
0220
0220
7FFF
0000
0000
0000
0000
0000
0000
ENDCHAR
STARTCHAR U+F1C8
ENCODING 61896
SWIDTH 960 0
DWIDTH 16 0
BBX 16 16 0 -2
BITMAP
0000
0000
0000
0000
0000
0000
0000
0000
0000
7FFF
0080
0080
0080
0000
0000
0000
ENDCHAR
STARTCHAR U+F1C9
ENCODING 61897
SWIDTH 960 0
DWIDTH 16 0
BBX 16 16 0 -2
BITMAP
0000
0000
0004
0004
0004
0004
0004
0004
7FF4
0404
043C
0404
0000
0000
0000
0000
ENDCHAR
STARTCHAR U+F1CA
ENCODING 61898
SWIDTH 960 0
DWIDTH 16 0
BBX 16 16 0 -2
BITMAP
0000
0000
0012
0012
0012
0012
0012
0012
7FD2
0212
02F2
0212
0000
0000
0000
0000
ENDCHAR
STARTCHAR U+F1CB
ENCODING 61899
SWIDTH 960 0
DWIDTH 16 0
BBX 16 16 0 -2
BITMAP
0000
0000
0004
0004
0004
0004
0004
0004
7FF4
0404
0404
0404
0000
0000
0000
0000
ENDCHAR
STARTCHAR U+F1CC
ENCODING 61900
SWIDTH 960 0
DWIDTH 16 0
BBX 16 16 0 -2
BITMAP
0000
0000
0000
0000
0000
0000
0000
0000
0000
7FFF
0220
0220
0220
0000
0000
0000
ENDCHAR
STARTCHAR U+F1CD
ENCODING 61901
SWIDTH 960 0
DWIDTH 16 0
BBX 16 16 0 -2
BITMAP
0000
0000
0000
0000
0000
0000
0000
0000
0000
7FFF
0000
0000
0000
0000
0000
0000
ENDCHAR
STARTCHAR U+F1CE
ENCODING 61902
SWIDTH 960 0
DWIDTH 16 0
BBX 16 16 0 -2
BITMAP
0000
0000
0004
0004
0004
0004
0004
0004
0004
7FF4
0004
0004
0000
0000
0000
0000
ENDCHAR
STARTCHAR U+F1CF
ENCODING 61903
SWIDTH 960 0
DWIDTH 16 0
BBX 16 16 0 -2
BITMAP
0000
0000
0004
0004
0004
0004
0004
0004
0004
0004
0004
0004
0000
0000
0000
0000
ENDCHAR
STARTCHAR U+F1D0
ENCODING 61904
SWIDTH 960 0
DWIDTH 16 0
BBX 16 16 0 -2
BITMAP
0000
0000
0004
0004
0004
0007
0004
0004
0004
0004
0000
0000
0000
0000
0000
0000
ENDCHAR
STARTCHAR U+F1D1
ENCODING 61905
SWIDTH 960 0
DWIDTH 16 0
BBX 16 16 0 -2
BITMAP
0000
0000
0012
0012
0012
001E
0012
0012
0012
0012
0000
0000
0000
0000
0000
0000
ENDCHAR
STARTCHAR U+F1D2
ENCODING 61906
SWIDTH 960 0
DWIDTH 16 0
BBX 16 16 0 -2
BITMAP
0000
0000
0004
0004
0007
0004
0004
0007
0004
0004
0000
0000
0000
0000
0000
0000
ENDCHAR
STARTCHAR U+F1D3
ENCODING 61907
SWIDTH 960 0
DWIDTH 16 0
BBX 16 16 0 -2
BITMAP
0000
0000
0012
0012
001E
0012
0012
001E
0012
0012
0000
0000
0000
0000
0000
0000
ENDCHAR
STARTCHAR U+F1D4
ENCODING 61908
SWIDTH 960 0
DWIDTH 16 0
BBX 16 16 0 -2
BITMAP
0000
0000
0004
0004
0004
003C
0004
0004
0004
0004
0000
0000
0000
0000
0000
0000
ENDCHAR
STARTCHAR U+F1D5
ENCODING 61909
SWIDTH 960 0
DWIDTH 16 0
BBX 16 16 0 -2
BITMAP
0000
0000
0012
0012
0012
0072
0012
0012
0012
0012
0000
0000
0000
0000
0000
0000
ENDCHAR
STARTCHAR U+F1D6
ENCODING 61910
SWIDTH 960 0
DWIDTH 16 0
BBX 16 16 0 -2
BITMAP
0000
0000
0004
0004
003C
0004
0004
003C
0004
0004
0000
0000
0000
0000
0000
0000
ENDCHAR
STARTCHAR U+F1D7
ENCODING 61911
SWIDTH 960 0
DWIDTH 16 0
BBX 16 16 0 -2
BITMAP
0000
0000
0012
0012
0072
0012
0012
0072
0012
0012
0000
0000
0000
0000
0000
0000
ENDCHAR
STARTCHAR U+F1D8
ENCODING 61912
SWIDTH 960 0
DWIDTH 16 0
BBX 16 16 0 -2
BITMAP
0000
0000
0000
0000
0000
0000
0000
0080
0080
7FFF
0000
0000
0000
0000
0000
0000
ENDCHAR
STARTCHAR U+F1D9
ENCODING 61913
SWIDTH 960 0
DWIDTH 16 0
BBX 16 16 0 -2
BITMAP
0000
0000
0004
0004
0004
0007
0004
0404
0404
7FF4
0000
0000
0000
0000
0000
0000
ENDCHAR
STARTCHAR U+F1DA
ENCODING 61914
SWIDTH 960 0
DWIDTH 16 0
BBX 16 16 0 -2
BITMAP
0000
0000
0012
0012
0012
001E
0012
0412
0412
7FD2
0000
0000
0000
0000
0000
0000
ENDCHAR
STARTCHAR U+F1DB
ENCODING 61915
SWIDTH 960 0
DWIDTH 16 0
BBX 16 16 0 -2
BITMAP
0000
0000
0004
0004
0004
0004
0004
0404
0404
7FF4
0000
0000
0000
0000
0000
0000
ENDCHAR
STARTCHAR U+F1DC
ENCODING 61916
SWIDTH 960 0
DWIDTH 16 0
BBX 16 16 0 -2
BITMAP
0000
0000
0000
0000
0000
0000
0000
0220
0220
7FFF
0000
0000
0000
0000
0000
0000
ENDCHAR
STARTCHAR U+F1DD
ENCODING 61917
SWIDTH 960 0
DWIDTH 16 0
BBX 16 16 0 -2
BITMAP
0000
0000
0000
0000
0000
0000
0000
0000
7FFF
0080
0080
0000
0000
0000
0000
0000
ENDCHAR
STARTCHAR U+F1DE
ENCODING 61918
SWIDTH 960 0
DWIDTH 16 0
BBX 16 16 0 -2
BITMAP
0000
0000
0004
0004
0004
001C
0004
0004
7FF4
0404
0400
0000
0000
0000
0000
0000
ENDCHAR
STARTCHAR U+F1DF
ENCODING 61919
SWIDTH 960 0
DWIDTH 16 0
BBX 16 16 0 -2
BITMAP
0000
0000
0012
0012
0012
0072
0012
0012
7FD2
0412
0400
0000
0000
0000
0000
0000
ENDCHAR
STARTCHAR U+F1E0
ENCODING 61920
SWIDTH 960 0
DWIDTH 16 0
BBX 16 16 0 -2
BITMAP
0000
0000
0004
0004
0004
0004
0004
0004
7FF4
0404
0400
0000
0000
0000
0000
0000
ENDCHAR
STARTCHAR U+F1E1
ENCODING 61921
SWIDTH 960 0
DWIDTH 16 0
BBX 16 16 0 -2
BITMAP
0000
0000
0000
0000
0000
0000
0000
0000
7FFF
0220
0220
0000
0000
0000
0000
0000
ENDCHAR
STARTCHAR U+F1E2
ENCODING 61922
SWIDTH 960 0
DWIDTH 16 0
BBX 16 16 0 -2
BITMAP
0000
0000
0000
0000
0000
0000
0000
0000
7FFF
0000
0000
0000
0000
0000
0000
0000
ENDCHAR
STARTCHAR U+F1E3
ENCODING 61923
SWIDTH 960 0
DWIDTH 16 0
BBX 16 16 0 -2
BITMAP
0000
0000
0004
0004
0004
0004
0004
0004
7FF4
0004
0000
0000
0000
0000
0000
0000
ENDCHAR
STARTCHAR U+F1E4
ENCODING 61924
SWIDTH 960 0
DWIDTH 16 0
BBX 16 16 0 -2
BITMAP
0000
0000
0004
0004
0004
0004
0004
0004
0004
0004
0000
0000
0000
0000
0000
0000
ENDCHAR
STARTCHAR U+F1E5
ENCODING 61925
SWIDTH 960 0
DWIDTH 16 0
BBX 16 16 0 -2
BITMAP
0000
0000
0000
0000
0000
0000
0000
0000
0000
0000
0000
1FFC
0004
0004
0004
0004
ENDCHAR
STARTCHAR U+F1E6
ENCODING 61926
SWIDTH 960 0
DWIDTH 16 0
BBX 16 16 0 -2
BITMAP
0000
0000
0000
0000
0000
0000
0000
0000
0000
0000
0000
1F7C
0104
0104
0104
0104
ENDCHAR
STARTCHAR U+F1E7
ENCODING 61927
SWIDTH 960 0
DWIDTH 16 0
BBX 16 16 0 -2
BITMAP
0000
0000
0000
0000
0000
0000
0000
0000
0000
0000
0000
1F10
0110
0110
0128
01C6
ENDCHAR
STARTCHAR U+F1E8
ENCODING 61928
SWIDTH 960 0
DWIDTH 16 0
BBX 16 16 0 -2
BITMAP
0000
0000
0000
0000
0000
0000
0000
0000
0000
0000
0000
1000
1000
1000
1000
0FFC
ENDCHAR
STARTCHAR U+F1E9
ENCODING 61929
SWIDTH 960 0
DWIDTH 16 0
BBX 16 16 0 -2
BITMAP
0000
0000
0000
0000
0000
0000
0000
0000
0000
0000
0000
107C
1010
1010
1028
0FC6
ENDCHAR
STARTCHAR U+F1EA
ENCODING 61930
SWIDTH 960 0
DWIDTH 16 0
BBX 16 16 0 -2
BITMAP
0000
0000
0000
0000
0000
0000
0000
0000
0000
0000
0000
1038
1000
10FE
1044
0F38
ENDCHAR
STARTCHAR U+F1EB
ENCODING 61931
SWIDTH 960 0
DWIDTH 16 0
BBX 16 16 0 -2
BITMAP
0000
0000
0000
0000
0000
0000
0000
0000
0000
0000
0000
1FFC
1000
1000
1000
0FFC
ENDCHAR
STARTCHAR U+F1EC
ENCODING 61932
SWIDTH 960 0
DWIDTH 16 0
BBX 16 16 0 -2
BITMAP
0000
0000
0000
0000
0000
0000
0000
0000
0000
0000
0000
1FFC
0004
1FF8
1000
0FFC
ENDCHAR
STARTCHAR U+F1ED
ENCODING 61933
SWIDTH 960 0
DWIDTH 16 0
BBX 16 16 0 -2
BITMAP
0000
0000
0000
0000
0000
0000
0000
0000
0000
0000
0000
1F7C
0104
1E04
1004
0F04
ENDCHAR
STARTCHAR U+F1EE
ENCODING 61934
SWIDTH 960 0
DWIDTH 16 0
BBX 16 16 0 -2
BITMAP
0000
0000
0000
0000
0000
0000
0000
0000
0000
0000
0000
1F7C
0144
1E44
1044
0F3C
ENDCHAR
STARTCHAR U+F1EF
ENCODING 61935
SWIDTH 960 0
DWIDTH 16 0
BBX 16 16 0 -2
BITMAP
0000
0000
0000
0000
0000
0000
0000
0000
0000
0000
0000
1F44
0144
1E7C
1044
0F3C
ENDCHAR
STARTCHAR U+F1F0
ENCODING 61936
SWIDTH 960 0
DWIDTH 16 0
BBX 16 16 0 -2
BITMAP
0000
0000
0000
0000
0000
0000
0000
0000
0000
0000
0000
1F10
0110
1E10
1028
0FC6
ENDCHAR
STARTCHAR U+F1F1
ENCODING 61937
SWIDTH 960 0
DWIDTH 16 0
BBX 16 16 0 -2
BITMAP
0000
0000
0000
0000
0000
0000
0000
0000
0000
0000
0000
1F7C
0140
1E7C
1040
0F3C
ENDCHAR
STARTCHAR U+F1F2
ENCODING 61938
SWIDTH 960 0
DWIDTH 16 0
BBX 16 16 0 -2
BITMAP
0000
0000
0000
0000
0000
0000
0000
0000
0000
0000
0000
1F7E
0124
1E24
1024
0F7E
ENDCHAR
STARTCHAR U+F1F3
ENCODING 61939
SWIDTH 960 0
DWIDTH 16 0
BBX 16 16 0 -2
BITMAP
0000
0000
0000
0000
0000
0000
0000
0000
0000
0000
0000
1F38
0100
1EFE
1044
0F38
ENDCHAR
STARTCHAR U+F1F4
ENCODING 61940
SWIDTH 960 0
DWIDTH 16 0
BBX 16 16 0 -2
BITMAP
0000
0000
0000
0000
0000
0000
0000
0000
0000
0000
0000
1FFC
1004
1004
1004
0FFC
ENDCHAR
STARTCHAR U+F1F5
ENCODING 61941
SWIDTH 960 0
DWIDTH 16 0
BBX 16 16 0 -2
BITMAP
0000
0000
0000
0000
0000
0000
0000
0000
0000
0000
0000
1004
1004
1FFC
1004
0FFC
ENDCHAR
STARTCHAR U+F1F6
ENCODING 61942
SWIDTH 960 0
DWIDTH 16 0
BBX 16 16 0 -2
BITMAP
0000
0000
0000
0000
0000
0000
0000
0000
0000
0000
0000
1110
1110
1F10
1128
0FC6
ENDCHAR
STARTCHAR U+F1F7
ENCODING 61943
SWIDTH 960 0
DWIDTH 16 0
BBX 16 16 0 -2
BITMAP
0000
0000
0000
0000
0000
0000
0000
0000
0000
0000
0000
0080
0080
0140
0630
180C
ENDCHAR
STARTCHAR U+F1F8
ENCODING 61944
SWIDTH 960 0
DWIDTH 16 0
BBX 16 16 0 -2
BITMAP
0000
0000
0000
0000
0000
0000
0000
0000
0000
0000
0000
0410
0410
0410
0A28
31C6
ENDCHAR
STARTCHAR U+F1F9
ENCODING 61945
SWIDTH 960 0
DWIDTH 16 0
BBX 16 16 0 -2
BITMAP
0000
0000
0000
0000
0000
0000
0000
0000
0000
0000
0000
0FF8
1004
1004
1004
0FF8
ENDCHAR
STARTCHAR U+F1FA
ENCODING 61946
SWIDTH 960 0
DWIDTH 16 0
BBX 16 16 0 -2
BITMAP
0000
0000
0000
0000
0000
0000
0000
0000
0000
0000
0000
1FFC
0080
0140
0630
180C
ENDCHAR
STARTCHAR U+F1FB
ENCODING 61947
SWIDTH 960 0
DWIDTH 16 0
BBX 16 16 0 -2
BITMAP
0000
0000
0000
0000
0000
0000
0000
0000
0000
0000
0000
03E0
0000
1FFC
0220
1C1C
ENDCHAR
STARTCHAR U+F1FC
ENCODING 61948
SWIDTH 960 0
DWIDTH 16 0
BBX 16 16 0 -2
BITMAP
0000
0000
0000
0000
0000
0000
0000
0000
0000
0000
0000
1FFC
0004
1FFC
0004
0004
ENDCHAR
STARTCHAR U+F1FD
ENCODING 61949
SWIDTH 960 0
DWIDTH 16 0
BBX 16 16 0 -2
BITMAP
0000
0000
0000
0000
0000
0000
0000
0000
0000
0000
0000
1FFC
1000
1FF8
1000
0FFC
ENDCHAR
STARTCHAR U+F1FE
ENCODING 61950
SWIDTH 960 0
DWIDTH 16 0
BBX 16 16 0 -2
BITMAP
0000
0000
0000
0000
0000
0000
0000
0000
0000
0000
0000
1FFC
0410
0410
0410
1FFC
ENDCHAR
STARTCHAR U+F1FF
ENCODING 61951
SWIDTH 960 0
DWIDTH 16 0
BBX 16 16 0 -2
BITMAP
0000
0000
0000
0000
0000
0000
0000
0000
0000
0000
0000
03E0
0000
1FFC
0808
07F0
ENDCHAR
ENDFONT
